<?xml version="1.0" standalone="no"?>
<!DOCTYPE svg PUBLIC "-//W3C//DTD SVG 1.1//EN" "http://www.w3.org/Graphics/SVG/1.1/DTD/svg11.dtd" >
<svg xmlns="http://www.w3.org/2000/svg" xmlns:xlink="http://www.w3.org/1999/xlink" version="1.1">
<metadata></metadata>
<defs>
<font id="roadradioregular" horiz-adv-x="1435" >
<font-face units-per-em="2048" ascent="1536" descent="-512" />
<missing-glyph horiz-adv-x="620" />
<glyph horiz-adv-x="0" />
<glyph unicode="&#xd;" horiz-adv-x="681" />
<glyph unicode=" "  horiz-adv-x="620" />
<glyph unicode="&#x09;" horiz-adv-x="620" />
<glyph unicode="&#xa0;" horiz-adv-x="620" />
<glyph unicode="!" horiz-adv-x="466" d="M78 129q0 63 44.5 109.5t110.5 46.5q63 0 109.5 -46t46.5 -110q0 -66 -46 -111t-110 -45q-66 0 -110.5 45t-44.5 111zM135 379v915h197v-915h-197z" />
<glyph unicode="&#x22;" horiz-adv-x="587" d="M72 752v381h184v-158l-27 -223h-157zM334 752v381h184v-158l-26 -223h-158z" />
<glyph unicode="#" horiz-adv-x="870" d="M76 381v156h141l14 112h-155v156h174l20 160h156l-20 -160h114l21 160h155l-20 -160h139v-156h-158l-14 -112h172v-156h-192l-17 -154h-155l16 154h-113l-18 -154h-156l19 154h-123zM373 537h114l15 112h-115z" />
<glyph unicode="$" horiz-adv-x="1310" d="M80 143l98 160q119 -78 240 -113.5t266 -35.5q154 0 249 44t95 132q0 66 -42 98.5t-134 42.5l-373 41q-84 10 -150.5 31.5t-113.5 58.5t-72.5 90t-25.5 129q0 78 34.5 137.5t94 100.5t139.5 64.5t170 31.5l8 141h187l6 -141q119 -10 224 -44t210 -107l-100 -148 q-102 59 -208 88t-245 29q-94 0 -155.5 -12.5t-96.5 -33t-49 -47t-14 -57.5q0 -63 49 -84.5t129 -31.5l352 -41q176 -23 276.5 -103t100.5 -229q0 -84 -34 -146.5t-95.5 -107.5t-147.5 -70.5t-192 -34.5l-10 -170h-187l-10 170q-135 10 -249 49t-224 119z" />
<glyph unicode="%" horiz-adv-x="1574" d="M61 815q0 68 24 124t66 96t98 62.5t122 22.5q68 0 124 -22.5t98 -62.5t65.5 -96t23.5 -124t-23.5 -123t-65.5 -96t-98 -63.5t-124 -22.5q-66 0 -122 22.5t-98 63.5t-66 96.5t-24 122.5zM215 815q0 -78 46.5 -115.5t109.5 -37.5t108 37.5t45 115.5t-45 116t-108 38 t-109.5 -38t-46.5 -116zM379 12l655 1135l150 -70l-654 -1134zM885 283q0 68 23.5 123t65.5 96t99 63.5t123 22.5t122 -22.5t98 -63.5t65.5 -96.5t23.5 -122.5q0 -68 -23.5 -124.5t-65.5 -97.5t-98 -63.5t-122 -22.5t-123 22.5t-99 63.5t-65.5 97.5t-23.5 124.5zM1040 283 q0 -78 46.5 -117t109.5 -39t107.5 39t44.5 117q0 76 -44 113.5t-108 37.5q-63 0 -109.5 -38t-46.5 -113z" />
<glyph unicode="&#x26;" horiz-adv-x="1429" d="M70 354q0 186 178 269q-49 31 -75 84t-26 112q0 74 26 127t71 90q41 37 94 60.5t113.5 37t124 19.5t122.5 6q74 0 139.5 -6t127 -21.5t123 -40t126.5 -61.5l-88 -153q-51 27 -99 45t-99 30.5t-108.5 17.5t-125.5 5q-176 0 -257 -38t-81 -122q0 -121 125 -121h850v-141 l-125 -29l123 -524h-112l-93 96q-113 -66 -229.5 -95.5t-245.5 -29.5q-111 0 -217 17.5t-192 64.5q-74 43 -122 117t-48 184zM279 362q0 -109 97 -158.5t263 -49.5q119 0 220.5 24.5t201.5 75.5l-62 262h-522q-100 0 -149 -43t-49 -111z" />
<glyph unicode="'" horiz-adv-x="329" d="M72 752v381h184v-158l-27 -223h-157z" />
<glyph unicode="(" horiz-adv-x="456" d="M104 567q0 74 6.5 157t20.5 170t38 173t56 164l166 -41q-47 -147 -70.5 -306t-23.5 -319t23.5 -318.5t70.5 -305.5l-168 -43q-70 174 -94.5 347t-24.5 322z" />
<glyph unicode=")" horiz-adv-x="456" d="M70 -59q47 147 71.5 306t24.5 318q0 160 -24.5 318.5t-71.5 306.5l166 41q33 -78 56 -164t37.5 -173t20.5 -170t6 -157q0 -150 -24.5 -322.5t-93.5 -346.5z" />
<glyph unicode="*" horiz-adv-x="733" d="M70 811l151 96l-151 97l65 112l156 -82l12 178h127l12 -178l156 82l64 -112l-148 -97l148 -94l-64 -115l-156 84l-14 -178h-125l-12 178l-156 -84z" />
<glyph unicode="+" horiz-adv-x="856" d="M72 496v174h260v264h190v-264h262v-174h-262v-256h-190v256h-260z" />
<glyph unicode="," horiz-adv-x="462" d="M74 135q0 61 42 108.5t120 47.5q59 0 106 -42t47 -116q0 -31 -10 -61l-119 -299l-127 30l33 193q-41 16 -66.5 53t-25.5 86z" />
<glyph unicode="-" horiz-adv-x="808" d="M82 487v183h645v-183h-645z" />
<glyph unicode="." horiz-adv-x="481" d="M82 133q0 66 46 113t112 47q68 0 114.5 -47t46.5 -113t-47 -109.5t-114 -43.5q-66 0 -112 44t-46 109z" />
<glyph unicode="/" horiz-adv-x="675" d="M37 -27l418 1241l178 -51l-424 -1243z" />
<glyph unicode="0" horiz-adv-x="1366" d="M76 565q0 139 47 250t129 187.5t193.5 116.5t238.5 40t237.5 -40t192.5 -116.5t129 -187.5t47 -250t-47 -249.5t-129 -187.5t-192.5 -117t-237.5 -40t-238.5 40t-193.5 117t-129 187.5t-47 249.5zM283 565q0 -197 107.5 -305t293.5 -108t293.5 108.5t107.5 304.5 q0 197 -107.5 305.5t-293.5 108.5t-293.5 -108.5t-107.5 -305.5z" />
<glyph unicode="1" horiz-adv-x="591" d="M59 946v187h424v-1133h-207v946h-217z" />
<glyph unicode="2" horiz-adv-x="1193" d="M86 950q113 113 242 161t276 48q111 0 205 -23.5t161.5 -70.5t105.5 -120t38 -173q0 -98 -53 -177t-156 -136l-487 -273h667v-186h-974v211l684 393q57 33 85.5 74t28.5 98q0 92 -76.5 143.5t-236.5 51.5q-123 0 -212 -39t-173 -115z" />
<glyph unicode="3" horiz-adv-x="1277" d="M63 133l101 160q55 -37 106.5 -62.5t103.5 -42t109.5 -24.5t126.5 -8q193 0 289 51t96 162q0 72 -42 115.5t-154 43.5h-396v179h385q131 0 132 116q0 78 -72 116t-240 38q-59 0 -110.5 -6t-98.5 -20.5t-92 -37t-92 -53.5l-94 148q125 88 238.5 119.5t246.5 31.5 q121 0 215 -18.5t170 -67.5q66 -41 101.5 -101.5t35.5 -146.5q0 -129 -112 -192q94 -33 140 -101.5t46 -166.5q0 -86 -38 -157t-109 -124q-80 -61 -192.5 -87t-266.5 -26t-285 38t-248 124z" />
<glyph unicode="4" horiz-adv-x="1304" d="M68 186v187l655 760h381v-764h125v-183h-125v-186h-205v186h-831zM322 369h577v577h-94z" />
<glyph unicode="5" horiz-adv-x="1241" d="M53 125l94 164q59 -35 112.5 -59.5t109 -40t117 -22.5t137.5 -7q178 0 256.5 60.5t78.5 154.5q0 100 -76.5 148t-238.5 48q-86 0 -163 -16t-148 -47l-172 12l30 613h889v-187h-696l-16 -246q74 29 145.5 40.5t173.5 11.5q227 0 353 -98.5t126 -278.5q0 -104 -41 -180 t-115.5 -125.5t-178 -73t-228.5 -23.5q-166 0 -295 34t-254 118z" />
<glyph unicode="6" horiz-adv-x="1292" d="M100 567q0 129 43 237.5t122 187.5t189.5 123t243.5 44q135 0 249 -25.5t224 -86.5l-81 -160q-49 25 -95.5 42t-92.5 28.5t-95 15.5t-109 4q-164 0 -267 -78t-126 -244q51 23 97.5 38.5t94.5 25.5t100 15t114 5q98 0 188 -20.5t158.5 -65.5t108.5 -116.5t40 -176.5 q0 -90 -39 -161.5t-109.5 -121.5t-170 -78t-219.5 -28q-143 0 -250 43t-177.5 121t-105.5 187.5t-35 244.5zM303 487q14 -172 102.5 -250.5t286.5 -78.5q158 0 235 53t77 151q0 104 -76 148.5t-248 44.5q-55 0 -103.5 -4t-92.5 -12.5t-88 -22t-93 -29.5z" />
<glyph unicode="7" horiz-adv-x="1167" d="M74 946v187h1028v-179l-582 -954h-241l587 946h-792z" />
<glyph unicode="8" horiz-adv-x="1327" d="M80 340q0 92 55 173t148 114q-57 35 -87 84t-30 125q0 88 41 149.5t110.5 100t159 56t187.5 17.5q137 0 232 -25.5t153.5 -68.5t85 -100.5t26.5 -120.5q0 -72 -30.5 -129.5t-90.5 -85.5q102 -35 154.5 -106.5t52.5 -186.5q0 -176 -152.5 -270.5t-430.5 -94.5 q-279 0 -431.5 91.5t-152.5 277.5zM289 354q0 -88 86 -144t289 -56q195 0 284.5 52t89.5 140q0 127 -145 143l-449 50q-84 -23 -119.5 -74t-35.5 -111zM371 834q0 -55 37.5 -80t115.5 -35l353 -37q45 31 62 65.5t17 75.5q0 78 -66.5 117t-225.5 39q-90 0 -146.5 -10.5 t-89.5 -29.5t-45 -46t-12 -59z" />
<glyph unicode="9" horiz-adv-x="1292" d="M92 764q0 90 38 162.5t108.5 125t171 80t223.5 27.5q143 0 249.5 -42t176 -119.5t104.5 -187.5t35 -247q0 -129 -42 -237.5t-120 -187.5t-188.5 -123t-245.5 -44q-137 0 -248.5 23.5t-224.5 83.5l80 162q49 -25 95 -41.5t92 -25.5t96.5 -13t109.5 -4q168 0 268.5 77.5 t122.5 241.5q-51 -23 -97 -39t-94 -27.5t-99.5 -17.5t-112.5 -6q-102 0 -192.5 20.5t-158 65.5t-107.5 118t-40 175zM297 762q0 -104 76 -148.5t245 -44.5q55 0 103.5 5.5t92.5 14.5t88 23.5t93 32.5q-14 170 -100 250t-285 80q-158 0 -235.5 -57.5t-77.5 -155.5z" />
<glyph unicode=":" horiz-adv-x="466" d="M80 129q0 63 45 108.5t111 45.5q63 0 108 -45t45 -109q0 -66 -45 -106.5t-108 -40.5q-66 0 -111 40.5t-45 106.5zM80 733q0 63 45 107.5t111 44.5q63 0 108 -44t45 -108q0 -66 -45 -109.5t-108 -43.5q-66 0 -111 44t-45 109z" />
<glyph unicode=";" horiz-adv-x="466" d="M76 733q0 63 44.5 107.5t110.5 44.5q63 0 108.5 -44t45.5 -108q0 -66 -45 -109.5t-109 -43.5q-66 0 -110.5 44t-44.5 109zM82 127q0 63 46 109.5t112 46.5q61 0 106 -46.5t45 -109.5q0 -27 -12 -53l-113 -299l-127 28l35 183q-43 16 -67.5 56t-24.5 85z" />
<glyph unicode="&#x3c;" horiz-adv-x="581" d="M55 553l355 346l110 -106l-203 -240l203 -238l-110 -108z" />
<glyph unicode="=" horiz-adv-x="790" d="M84 336v170h625v-170h-625zM84 625v172h625v-172h-625z" />
<glyph unicode="&#x3e;" horiz-adv-x="581" d="M61 315l203 238l-203 240l109 106l356 -346l-356 -346z" />
<glyph unicode="?" horiz-adv-x="1177" d="M70 1128q113 106 250 152.5t288 46.5q115 0 210 -21.5t165 -68.5t107.5 -122t37.5 -181q0 -121 -77.5 -210t-208.5 -130l-78 -23q-41 -12 -57.5 -41.5t-16.5 -60.5v-82h-207v121q0 66 41 130t133 93l82 25q86 27 132.5 72.5t46.5 117.5q0 100 -75 147.5t-233 47.5 q-145 0 -246.5 -37t-193.5 -119zM430 131q0 66 46 112t112 46t111.5 -46t45.5 -112t-46 -107.5t-111 -41.5q-66 0 -112 42t-46 107z" />
<glyph unicode="@" horiz-adv-x="1443" d="M78 602q0 143 51 259t138 196t205 123t253 43q150 0 269.5 -46.5t203.5 -129t128 -197.5t44 -252q0 -57 -17.5 -112.5t-49 -99.5t-78.5 -70.5t-107 -26.5q-59 0 -105 24.5t-75 69.5q-47 -47 -103.5 -73.5t-119.5 -26.5q-70 0 -129.5 21.5t-103.5 62.5t-68.5 99t-24.5 130 t25.5 130t69.5 100t104.5 64.5t130.5 22.5q102 0 178 -29.5t147 -95.5v-231q0 -49 14.5 -76.5t53.5 -27.5q47 0 70.5 43t23.5 102q0 102 -28.5 188t-89 147.5t-150.5 96.5t-213 35q-106 0 -193.5 -32t-150 -92t-97 -146t-34.5 -193q0 -106 36 -194.5t101.5 -150.5t159.5 -96 t211 -34q174 0 319 74l66 -121q-86 -59 -179.5 -84t-207.5 -25q-158 0 -284 45t-214 128t-134 200t-46 258zM559 596q0 -78 49 -117t111 -39q59 0 109.5 36t50.5 114v129q-33 23 -74 32t-82 9q-76 0 -120 -45t-44 -119z" />
<glyph unicode="A" horiz-adv-x="1505" d="M68 0l495 1133h393l482 -1133h-219l-78 178h-772l-78 -178h-223zM446 362h611l-238 584h-129z" />
<glyph unicode="B" horiz-adv-x="1327" d="M109 0v1133h722q76 0 140.5 -20.5t109.5 -59.5t71 -92.5t26 -120.5q0 -141 -97 -207q84 -37 130 -109.5t46 -175.5q0 -72 -27.5 -135t-76.5 -110.5t-117.5 -75t-152.5 -27.5h-774zM317 188h557q90 0 135.5 46.5t45.5 111.5q0 72 -44 113t-116 41h-578v-312zM317 682h533 q59 0 92 40t33 89q0 27 -7 50.5t-25.5 42t-48.5 29.5t-75 11h-502v-262z" />
<glyph unicode="C" horiz-adv-x="1349" d="M82 565q0 137 48 248t133 187.5t200 117.5t248 41q193 0 333 -72.5t228 -212.5l-162 -94q-68 92 -165 142.5t-238 50.5q-96 0 -173 -29t-131.5 -82t-84 -129t-29.5 -168q0 -90 30.5 -164.5t86 -129t132 -84t169.5 -29.5q141 0 236 50t167 144l164 -96 q-90 -137 -229.5 -211t-333.5 -74q-135 0 -250 41t-200 118t-132 187.5t-47 247.5z" />
<glyph unicode="D" horiz-adv-x="1372" d="M109 0v1133h571q119 0 229.5 -40t195.5 -114t135 -178.5t50 -233.5t-51 -234.5t-135 -179t-194.5 -113.5t-229.5 -40h-571zM317 190h359q90 0 164.5 28t128 77t83 118.5t29.5 153.5t-29.5 154t-83 119t-128 76.5t-164.5 27.5h-359v-754z" />
<glyph unicode="E" horiz-adv-x="1245" d="M109 0v1133h1013v-189h-805v-272h725v-187h-725v-295h836v-190h-1044z" />
<glyph unicode="F" horiz-adv-x="1208" d="M109 0v1133h1021v-189h-813v-301h723v-186h-723v-457h-208z" />
<glyph unicode="G" horiz-adv-x="1411" d="M82 565q0 137 48 248t133 187.5t201 117.5t249 41q193 0 328 -68.5t229 -203.5l-164 -94q-72 90 -163 133t-236 43q-96 0 -173 -29t-131.5 -81t-84 -127t-29.5 -167t30.5 -165.5t86 -127t132 -82t169.5 -28.5q137 0 227 32.5t162 100.5v166l-299 12v170h499v-643h-133 l-30 104q-84 -66 -181.5 -99.5t-238.5 -33.5q-135 0 -251 41t-200 118t-132 187.5t-48 247.5z" />
<glyph unicode="H" horiz-adv-x="1361" d="M109 0v1133h208v-453h727v453h207v-1133h-207v494h-727v-494h-208z" />
<glyph unicode="I" horiz-adv-x="425" d="M109 0v1133h208v-1133h-208z" />
<glyph unicode="J" horiz-adv-x="1222" d="M55 268l178 92q47 -100 139.5 -151t192.5 -51q98 0 165 24.5t107 70.5t56 111.5t16 145.5v623h203v-644q0 -109 -31.5 -202.5t-97 -164.5t-169 -111t-247.5 -40q-176 0 -308 77t-204 220z" />
<glyph unicode="K" horiz-adv-x="1325" d="M109 0v1133h206v-439h396l299 439h239l-360 -525l389 -608h-246l-315 506h-402v-506h-206z" />
<glyph unicode="L" horiz-adv-x="1189" d="M109 0v1133h208v-945h816v-188h-1024z" />
<glyph unicode="M" horiz-adv-x="1712" d="M109 0v1133h303l442 -891h10l445 891h295v-1133h-207v874h-21l-430 -874h-186l-428 874h-23v-874h-200z" />
<glyph unicode="N" horiz-adv-x="1384" d="M109 0v1133h208l752 -842v842h207v-1133h-211l-752 846v-846h-204z" />
<glyph unicode="O" d="M84 565q0 135 49 245t135 187.5t202 119.5t247 42t246.5 -42t201.5 -119.5t135.5 -187.5t49.5 -245t-49.5 -244.5t-135.5 -187.5t-201.5 -120t-246.5 -42t-247 42t-202 120t-135 187.5t-49 244.5zM293 565q0 -98 32.5 -175t90 -130t134.5 -80.5t167 -27.5t168 27.5 t135 80.5t90 130t33 175t-33 175t-90 130.5t-135 81t-168 27.5t-167 -27.5t-134.5 -81t-90 -130.5t-32.5 -175z" />
<glyph unicode="P" horiz-adv-x="1306" d="M109 0v1133h665q98 0 182 -32t145.5 -89.5t97.5 -138t36 -179.5q0 -98 -36 -178t-97.5 -136t-145.5 -87t-182 -31h-457v-262h-208zM317 453h449q117 0 189.5 63.5t72.5 177.5q0 117 -72.5 182.5t-189.5 65.5h-449v-489z" />
<glyph unicode="Q" d="M84 565q0 135 49 245t135 187.5t202 119.5t247 42t246.5 -42t201.5 -119.5t135.5 -187.5t49.5 -245q0 -115 -35 -211t-101 -172l113 -110l-137 -138l-127 127q-150 -90 -346 -90q-131 0 -247 42t-202 120t-135 187.5t-49 244.5zM293 565q0 -98 32.5 -175t90 -130 t134.5 -80.5t167 -27.5q117 0 207 49l-115 114l137 138l127 -127q33 47 51.5 107.5t18.5 131.5q0 98 -33 175t-90 130.5t-135 81t-168 27.5t-167 -27.5t-134.5 -81t-90 -130t-32.5 -175.5z" />
<glyph unicode="R" horiz-adv-x="1306" d="M109 0v1133h665q98 0 182 -32t145.5 -89.5t97.5 -138t36 -179.5q0 -135 -64.5 -232t-171.5 -149l179 -313h-228l-143 262h-490v-262h-208zM317 453h449q117 0 189.5 63.5t72.5 177.5q0 117 -72.5 182.5t-189.5 65.5h-449v-489z" />
<glyph unicode="S" horiz-adv-x="1310" d="M80 143l98 162q119 -80 238 -115.5t268 -35.5q154 0 249 43t95 131q0 121 -176 139l-373 41q-168 20 -265 91t-97 222q0 86 41 150.5t111.5 105.5t165.5 61.5t202 20.5q154 0 288 -31.5t265 -123.5l-100 -154q-102 66 -208 95.5t-245 29.5q-94 0 -155.5 -12.5t-96.5 -34 t-49 -48t-14 -57.5q0 -63 49 -86.5t129 -34.5l352 -40q176 -23 276.5 -102t100.5 -228q0 -92 -42 -161t-118 -113t-182.5 -65.5t-233.5 -21.5q-170 0 -306 39t-267 133z" />
<glyph unicode="T" horiz-adv-x="1294" d="M61 944v189h1172v-189h-481v-944h-209v944h-482z" />
<glyph unicode="U" horiz-adv-x="1349" d="M98 555v578h209v-580q0 -182 88 -289.5t279 -107.5q190 0 279 107.5t89 289.5v580h207v-578q0 -141 -40 -249.5t-115.5 -182.5t-182 -113t-237.5 -39q-133 0 -238.5 39t-181.5 113t-116 182.5t-40 249.5z" />
<glyph unicode="V" horiz-adv-x="1460" d="M61 1133h230l399 -945h82l399 945h228l-500 -1133h-340z" />
<glyph unicode="W" horiz-adv-x="2072" d="M61 1133h222l309 -951h35l268 951h274l277 -951h35l313 951h217l-403 -1133h-312l-254 907h-24l-254 -907h-307z" />
<glyph unicode="X" horiz-adv-x="1374" d="M55 0l416 590l-383 543h238l313 -457h96l314 457h237l-381 -537l412 -596h-242l-334 487h-108l-336 -487h-242z" />
<glyph unicode="Y" horiz-adv-x="1404" d="M61 1133h238l397 -644h25l385 644h237l-538 -850v-283h-205v283z" />
<glyph unicode="Z" horiz-adv-x="1245" d="M82 0v186l807 766l-352 -6h-433v187h1039v-183l-795 -772l377 8h438v-186h-1081z" />
<glyph unicode="[" horiz-adv-x="446" d="M82 -207v1542h330v-161h-125v-1219h125v-162h-330z" />
<glyph unicode="\" horiz-adv-x="675" d="M37 1163l178 51l418 -1241l-172 -53z" />
<glyph unicode="]" horiz-adv-x="446" d="M35 -43h125v1217h-125v161h330v-1542h-330v164z" />
<glyph unicode="^" horiz-adv-x="755" d="M57 881l320 313l319 -313l-116 -115l-203 176l-207 -176z" />
<glyph unicode="_" horiz-adv-x="1034" d="M20 -131h994v-166h-994v166z" />
<glyph unicode="`" horiz-adv-x="432" d="M63 1616l179 43l98 -375l-174 -41z" />
<glyph unicode="a" horiz-adv-x="1505" d="M68 0l495 1133h393l482 -1133h-219l-78 178h-772l-78 -178h-223zM446 362h611l-238 584h-129z" />
<glyph unicode="b" horiz-adv-x="1327" d="M109 0v1133h722q76 0 140.5 -20.5t109.5 -59.5t71 -92.5t26 -120.5q0 -141 -97 -207q84 -37 130 -109.5t46 -175.5q0 -72 -27.5 -135t-76.5 -110.5t-117.5 -75t-152.5 -27.5h-774zM317 188h557q90 0 135.5 46.5t45.5 111.5q0 72 -44 113t-116 41h-578v-312zM317 682h533 q59 0 92 40t33 89q0 27 -7 50.5t-25.5 42t-48.5 29.5t-75 11h-502v-262z" />
<glyph unicode="c" horiz-adv-x="1349" d="M82 565q0 137 48 248t133 187.5t200 117.5t248 41q193 0 333 -72.5t228 -212.5l-162 -94q-68 92 -165 142.5t-238 50.5q-96 0 -173 -29t-131.5 -82t-84 -129t-29.5 -168q0 -90 30.5 -164.5t86 -129t132 -84t169.5 -29.5q141 0 236 50t167 144l164 -96 q-90 -137 -229.5 -211t-333.5 -74q-135 0 -250 41t-200 118t-132 187.5t-47 247.5z" />
<glyph unicode="d" horiz-adv-x="1372" d="M109 0v1133h571q119 0 229.5 -40t195.5 -114t135 -178.5t50 -233.5t-51 -234.5t-135 -179t-194.5 -113.5t-229.5 -40h-571zM317 190h359q90 0 164.5 28t128 77t83 118.5t29.5 153.5t-29.5 154t-83 119t-128 76.5t-164.5 27.5h-359v-754z" />
<glyph unicode="e" horiz-adv-x="1245" d="M109 0v1133h1013v-189h-805v-272h725v-187h-725v-295h836v-190h-1044z" />
<glyph unicode="f" horiz-adv-x="1208" d="M109 0v1133h1021v-189h-813v-301h723v-186h-723v-457h-208z" />
<glyph unicode="g" horiz-adv-x="1411" d="M82 565q0 137 48 248t133 187.5t201 117.5t249 41q193 0 328 -68.5t229 -203.5l-164 -94q-72 90 -163 133t-236 43q-96 0 -173 -29t-131.5 -81t-84 -127t-29.5 -167t30.5 -165.5t86 -127t132 -82t169.5 -28.5q137 0 227 32.5t162 100.5v166l-299 12v170h499v-643h-133 l-30 104q-84 -66 -181.5 -99.5t-238.5 -33.5q-135 0 -251 41t-200 118t-132 187.5t-48 247.5z" />
<glyph unicode="h" horiz-adv-x="1361" d="M109 0v1133h208v-453h727v453h207v-1133h-207v494h-727v-494h-208z" />
<glyph unicode="i" horiz-adv-x="425" d="M109 0v1133h208v-1133h-208z" />
<glyph unicode="j" horiz-adv-x="1222" d="M55 268l178 92q47 -100 139.5 -151t192.5 -51q98 0 165 24.5t107 70.5t56 111.5t16 145.5v623h203v-644q0 -109 -31.5 -202.5t-97 -164.5t-169 -111t-247.5 -40q-176 0 -308 77t-204 220z" />
<glyph unicode="k" horiz-adv-x="1325" d="M109 0v1133h206v-439h396l299 439h239l-360 -525l389 -608h-246l-315 506h-402v-506h-206z" />
<glyph unicode="l" horiz-adv-x="1189" d="M109 0v1133h208v-945h816v-188h-1024z" />
<glyph unicode="m" horiz-adv-x="1712" d="M109 0v1133h303l442 -891h10l445 891h295v-1133h-207v874h-21l-430 -874h-186l-428 874h-23v-874h-200z" />
<glyph unicode="n" horiz-adv-x="1384" d="M109 0v1133h208l752 -842v842h207v-1133h-211l-752 846v-846h-204z" />
<glyph unicode="o" d="M84 565q0 135 49 245t135 187.5t202 119.5t247 42t246.5 -42t201.5 -119.5t135.5 -187.5t49.5 -245t-49.5 -244.5t-135.5 -187.5t-201.5 -120t-246.5 -42t-247 42t-202 120t-135 187.5t-49 244.5zM293 565q0 -98 32.5 -175t90 -130t134.5 -80.5t167 -27.5t168 27.5 t135 80.5t90 130t33 175t-33 175t-90 130.5t-135 81t-168 27.5t-167 -27.5t-134.5 -81t-90 -130.5t-32.5 -175z" />
<glyph unicode="p" horiz-adv-x="1300" d="M109 0v1133h665q98 0 182 -32t145.5 -89.5t97.5 -138t36 -179.5q0 -98 -36 -178t-97.5 -136t-145.5 -87t-182 -31h-457v-262h-208zM317 453h449q117 0 189.5 63.5t72.5 177.5q0 117 -72.5 182.5t-189.5 65.5h-449v-489z" />
<glyph unicode="q" d="M84 565q0 135 49 245t135 187.5t202 119.5t247 42t246.5 -42t201.5 -119.5t135.5 -187.5t49.5 -245q0 -115 -35 -211t-101 -172l113 -110l-137 -138l-127 127q-150 -90 -346 -90q-131 0 -247 42t-202 120t-135 187.5t-49 244.5zM293 565q0 -98 32.5 -175t90 -130 t134.5 -80.5t167 -27.5q117 0 207 49l-115 114l137 138l127 -127q33 47 51.5 107.5t18.5 131.5q0 98 -33 175t-90 130.5t-135 81t-168 27.5t-167 -27.5t-134.5 -81t-90 -130t-32.5 -175.5z" />
<glyph unicode="r" horiz-adv-x="1304" d="M109 0v1133h665q98 0 182 -32t145.5 -89.5t97.5 -138t36 -179.5q0 -135 -64.5 -232t-171.5 -149l179 -313h-228l-143 262h-490v-262h-208zM317 453h449q117 0 189.5 63.5t72.5 177.5q0 117 -72.5 182.5t-189.5 65.5h-449v-489z" />
<glyph unicode="s" horiz-adv-x="1310" d="M80 143l98 162q119 -80 238 -115.5t268 -35.5q154 0 249 43t95 131q0 121 -176 139l-373 41q-168 20 -265 91t-97 222q0 86 41 150.5t111.5 105.5t165.5 61.5t202 20.5q154 0 288 -31.5t265 -123.5l-100 -154q-102 66 -208 95.5t-245 29.5q-94 0 -155.5 -12.5t-96.5 -34 t-49 -48t-14 -57.5q0 -63 49 -86.5t129 -34.5l352 -40q176 -23 276.5 -102t100.5 -228q0 -92 -42 -161t-118 -113t-182.5 -65.5t-233.5 -21.5q-170 0 -306 39t-267 133z" />
<glyph unicode="t" horiz-adv-x="1294" d="M61 944v189h1172v-189h-481v-944h-209v944h-482z" />
<glyph unicode="u" horiz-adv-x="1349" d="M98 555v578h209v-580q0 -182 88 -289.5t279 -107.5q190 0 279 107.5t89 289.5v580h207v-578q0 -141 -40 -249.5t-115.5 -182.5t-182 -113t-237.5 -39q-133 0 -238.5 39t-181.5 113t-116 182.5t-40 249.5z" />
<glyph unicode="v" horiz-adv-x="1460" d="M61 1133h230l399 -945h82l399 945h228l-500 -1133h-340z" />
<glyph unicode="w" horiz-adv-x="2070" d="M61 1133h222l309 -951h35l268 951h274l277 -951h35l313 951h217l-403 -1133h-312l-254 907h-24l-254 -907h-307z" />
<glyph unicode="x" horiz-adv-x="1374" d="M55 0l416 590l-383 543h238l313 -457h96l314 457h237l-381 -537l412 -596h-242l-334 487h-108l-336 -487h-242z" />
<glyph unicode="y" horiz-adv-x="1404" d="M61 1133h238l397 -644h25l385 644h237l-538 -850v-283h-205v283z" />
<glyph unicode="z" horiz-adv-x="1245" d="M82 0v186l807 766l-352 -6h-433v187h1039v-183l-795 -772l377 8h438v-186h-1081z" />
<glyph unicode="{" horiz-adv-x="577" d="M45 469v186h51q47 0 76 37t29 88v291q0 125 68.5 201t195.5 76h94v-172h-59q-51 0 -77 -25t-26 -80v-303q0 -59 -23.5 -114.5t-82.5 -90.5q59 -35 82.5 -91t23.5 -116v-303q0 -55 26 -79.5t77 -24.5h59v-172h-94q-127 0 -195.5 75.5t-68.5 200.5v291q0 51 -29 88t-76 37 h-51z" />
<glyph unicode="|" horiz-adv-x="409" d="M109 -70v1270h192v-1270h-192z" />
<glyph unicode="}" horiz-adv-x="577" d="M20 -51h60q51 0 76.5 24.5t25.5 79.5v303q0 59 22.5 115.5t82.5 91.5q-59 35 -82 90.5t-23 114.5v303q0 55 -25.5 80t-76.5 25h-60v172h93q127 0 195.5 -76t68.5 -201v-291q0 -51 28.5 -88t75.5 -37h51v-186h-51q-47 0 -75.5 -37t-28.5 -88v-291q0 -125 -68.5 -200.5 t-195.5 -75.5h-93v172z" />
<glyph unicode="~" horiz-adv-x="890" d="M51 559q94 147 262 147q53 0 91 -11t68.5 -25.5t59.5 -25.5t66 -11q51 0 85.5 14t63.5 45l82 -105q-41 -66 -97.5 -96.5t-136.5 -30.5q-45 0 -80.5 12.5t-69.5 27t-66.5 26.5t-71.5 12q-53 0 -91 -20.5t-67 -57.5z" />
<glyph unicode="&#xa1;" horiz-adv-x="466" d="M76 1004q0 66 46 111t110 45q66 0 110.5 -45t44.5 -111q0 -63 -44.5 -109.5t-110.5 -46.5q-63 0 -109.5 46t-46.5 110zM133 -161v915h197v-915h-197z" />
<glyph unicode="&#xa2;" horiz-adv-x="1335" d="M82 545q0 117 39 214t107.5 169.5t163.5 119t206 60.5l8 135h185l6 -131q152 -16 263 -87t197 -189l-161 -95q-70 92 -163 141.5t-233 49.5q-190 0 -300.5 -104.5t-110.5 -282.5q0 -86 29.5 -158t84 -123t130 -78.5t167.5 -27.5q141 0 232.5 49t163.5 141l164 -96 q-86 -119 -198 -188.5t-263 -86.5l-6 -165h-187l-8 168q-115 14 -209 60t-162.5 119.5t-106.5 171t-38 214.5z" />
<glyph unicode="&#xa6;" horiz-adv-x="409" d="M109 -70v584h192v-584h-192zM109 616v584h192v-584h-192z" />
<glyph unicode="&#xa7;" horiz-adv-x="1236" d="M80 588q0 90 51 168t143 123q-57 37 -82.5 92t-25.5 123q0 82 41 141t105.5 97t144.5 55.5t159 17.5q117 0 217.5 -26.5t196.5 -88.5l-90 -145q-39 20 -75 34.5t-72.5 23.5t-78.5 14.5t-91 5.5q-125 0 -188.5 -32t-63.5 -104q0 -51 32.5 -78.5t104.5 -37.5l219 -33 q178 -25 283.5 -112t105.5 -242q0 -84 -43 -160t-139 -125q61 -41 90 -93t29 -138q0 -80 -37 -139.5t-101.5 -99.5t-152.5 -60.5t-191 -20.5q-78 0 -138 6t-113.5 20.5t-102.5 37t-104 55.5l82 149q47 -25 89 -42t87 -27t94 -15.5t110 -5.5q141 0 207 42t66 102 q0 59 -31 85.5t-104 39.5l-242 38q-178 27 -284.5 112t-106.5 243zM293 610q0 -82 40 -125t126 -55l286 -43q84 29 122 78t38 113q0 63 -38 106t-130 57l-313 47q-70 -29 -100.5 -74.5t-30.5 -103.5z" />
<glyph unicode="&#xa8;" horiz-adv-x="929" d="M88 1397q0 53 39 92t94 39q57 0 96 -39t39 -92q0 -55 -38.5 -95t-96.5 -40q-55 0 -94 39.5t-39 95.5zM573 1397q0 53 40.5 92t93.5 39q57 0 97 -39t40 -92q0 -55 -40 -95t-97 -40q-53 0 -93.5 39.5t-40.5 95.5z" />
<glyph unicode="&#xa9;" horiz-adv-x="1488" d="M53 596q0 150 54.5 272.5t147.5 209.5t219 134.5t269 47.5t269.5 -47.5t220.5 -134.5t148.5 -210t54.5 -272q0 -150 -54.5 -272.5t-148.5 -209.5t-220 -134.5t-270 -47.5q-143 0 -269 47.5t-219 134.5t-147.5 209.5t-54.5 272.5zM221 596q0 -115 40 -209t110.5 -159.5 t166 -101.5t205.5 -36q111 0 207.5 36t167 101.5t111.5 159.5t41 209t-41 208t-111.5 159.5t-167 102.5t-207.5 36t-206 -36t-165.5 -102.5t-110.5 -159.5t-40 -208zM383 598q0 80 29.5 144.5t80 108.5t118 67.5t143.5 23.5q96 0 169.5 -31.5t135.5 -97.5l-92 -94 q-47 47 -97.5 66.5t-115.5 19.5q-100 0 -156.5 -52.5t-56.5 -154.5q0 -98 56 -152.5t157 -54.5q66 0 117 20.5t98 67.5l90 -96q-63 -66 -136 -97.5t-169 -31.5q-76 0 -143.5 23.5t-118 67.5t-80 108.5t-29.5 144.5z" />
<glyph unicode="&#xab;" horiz-adv-x="876" d="M43 582l346 350l107 -107l-203 -243l203 -242l-107 -104zM381 582l338 342l106 -107l-194 -235l194 -234l-106 -106z" />
<glyph unicode="&#xad;" horiz-adv-x="808" d="M82 487v183h645v-183h-645z" />
<glyph unicode="&#xae;" horiz-adv-x="950" d="M61 850q0 86 32 159.5t88.5 128t132 84t161.5 29.5t161 -29.5t132 -84t90 -128t33 -159.5t-32 -159t-88 -127t-132 -83.5t-164 -29.5q-86 0 -161.5 29.5t-132 83.5t-88.5 127t-32 159zM176 852q0 -61 21.5 -114.5t60.5 -92.5t94.5 -61.5t122.5 -22.5q141 0 221 83t80 208 q0 63 -23.5 116.5t-63.5 92.5t-95 61.5t-119 22.5q-139 0 -219 -83t-80 -210zM305 674v368h219q72 0 116 -40.5t44 -96.5q0 -35 -18.5 -68.5t-53.5 -52.5l64 -110h-111l-41 80h-118v-80h-101zM406 846h114q61 0 62 53q0 51 -62 51h-114v-104z" />
<glyph unicode="&#xaf;" horiz-adv-x="899" d="M80 1282v166h741v-166h-741z" />
<glyph unicode="&#xb0;" horiz-adv-x="718" d="M57 883q0 61 22.5 111t62.5 85t91.5 54.5t110.5 19.5t112.5 -19.5t92.5 -54.5t61.5 -85t22.5 -111t-22.5 -111.5t-61.5 -85.5t-92.5 -54.5t-112.5 -19.5t-110.5 19.5t-91.5 54.5t-62.5 85t-22.5 112zM215 883q0 -61 38 -94t91 -33q55 0 93 32.5t38 94.5q0 61 -38 93 t-93 32t-92 -32t-37 -93z" />
<glyph unicode="&#xb1;" horiz-adv-x="856" d="M72 639v174h260v262h190v-262h262v-174h-262v-256h-190v256h-260zM74 131v170h708v-170h-708z" />
<glyph unicode="&#xb4;" horiz-adv-x="419" d="M63 1284l99 375l178 -43l-102 -373z" />
<glyph unicode="&#xb6;" horiz-adv-x="1126" d="M119 1018q0 61 22.5 118.5t62.5 100.5t97 69.5t127 26.5h604l8 -127l-161 -49v-1157h-156v1176h-137v-1176h-158v702q-70 0 -127 27t-97 70t-62.5 100t-22.5 119z" />
<glyph unicode="&#xb7;" horiz-adv-x="466" d="M76 614q0 66 45 110t108 44t107.5 -44t44.5 -110q0 -61 -44 -106t-108 -45q-63 0 -108 45t-45 106z" />
<glyph unicode="&#xb8;" horiz-adv-x="487" d="M29 -416l37 109q31 -12 65.5 -18.5t63.5 -6.5q55 0 87.5 19.5t32.5 60.5q0 61 -84 62h-92l-12 12l20 211l136 -10v-95q86 -6 135 -53t49 -127q0 -53 -22.5 -91t-60.5 -62.5t-88 -36t-108 -11.5q-41 0 -79.5 8.5t-79.5 28.5z" />
<glyph unicode="&#xbb;" horiz-adv-x="876" d="M45 348l197 234l-197 235l107 107l337 -342l-337 -340zM377 340l203 242l-203 243l106 107l344 -350l-344 -346z" />
<glyph unicode="&#xbf;" horiz-adv-x="1177" d="M89 199q0 121 77.5 210t208.5 130l78 23q41 12 57.5 41.5t16.5 60.5v82h207v-121q0 -66 -41 -130t-133 -93l-82 -25q-86 -27 -132.5 -72.5t-46.5 -117.5q0 -100 75 -147.5t233 -47.5q145 0 246.5 37t193.5 119l100 -143q-113 -106 -250 -152.5t-288 -46.5 q-115 0 -210 21.5t-165 68.5t-107.5 122t-37.5 181zM472 1002q0 66 46 107.5t111 41.5q66 0 112 -42t46 -107q0 -66 -46 -112t-112 -46t-111.5 46t-45.5 112z" />
<glyph unicode="&#xc0;" horiz-adv-x="1505" d="M68 0l495 1133h393l482 -1133h-219l-78 178h-772l-78 -178h-223zM446 362h611l-238 584h-129zM571 1616l179 43l98 -375l-174 -41z" />
<glyph unicode="&#xc1;" horiz-adv-x="1505" d="M68 0l495 1133h393l482 -1133h-219l-78 178h-772l-78 -178h-223zM446 362h611l-238 584h-129zM677 1286l99 375l178 -43l-102 -373z" />
<glyph unicode="&#xc2;" horiz-adv-x="1505" d="M68 0l495 1133h393l482 -1133h-219l-78 178h-772l-78 -178h-223zM444 1339l305 226l308 -226l-86 -108l-222 139l-223 -139zM446 362h611l-238 584h-129z" />
<glyph unicode="&#xc3;" horiz-adv-x="1505" d="M68 0l495 1133h393l482 -1133h-219l-78 178h-772l-78 -178h-223zM361 1336q94 147 262 147q53 0 91 -11t68.5 -25.5t59.5 -25.5t66 -11q51 0 85.5 14t63.5 45l82 -105q-41 -66 -97.5 -96.5t-136.5 -30.5q-45 0 -80.5 12.5t-69.5 27t-66.5 26.5t-71.5 12q-53 0 -91 -20.5 t-67 -57.5zM446 362h611l-238 584h-129z" />
<glyph unicode="&#xc4;" horiz-adv-x="1505" d="M68 0l495 1133h393l482 -1133h-219l-78 178h-772l-78 -178h-223zM364 1397q0 53 39 92t94 39q57 0 96 -39t39 -92q0 -55 -38.5 -95t-96.5 -40q-55 0 -94 39.5t-39 95.5zM446 362h611l-238 584h-129zM849 1397q0 53 40.5 92t93.5 39q57 0 97 -39t40 -92q0 -55 -40 -95 t-97 -40q-53 0 -93.5 39.5t-40.5 95.5z" />
<glyph unicode="&#xc5;" horiz-adv-x="1505" d="M68 0l495 1133h393l482 -1133h-219l-78 178h-772l-78 -178h-223zM446 362h611l-238 584h-129zM482 1481q0 57 21.5 104t58 81t86 51.5t102.5 17.5t102.5 -17.5t86 -51.5t58 -81t21.5 -104q0 -59 -21.5 -106.5t-58 -81t-86 -51t-102.5 -17.5t-102.5 17.5t-86 51t-58 80.5 t-21.5 107zM631 1481q0 -59 33 -89t86 -30t86 29.5t33 89.5q0 57 -33 86.5t-86 29.5t-86 -29.5t-33 -86.5z" />
<glyph unicode="&#xc6;" horiz-adv-x="2242" d="M18 0l766 1133h1330v-187h-822v-272h740v-185h-740v-299h862v-190h-1069v205h-677l-146 -205h-244zM541 397h544v549h-198z" />
<glyph unicode="&#xc7;" horiz-adv-x="1349" d="M82 565q0 137 48 248t133 187.5t200 117.5t248 41q193 0 333 -72.5t228 -212.5l-162 -94q-68 92 -165 142.5t-238 50.5q-96 0 -173 -29t-131.5 -82t-84 -129t-29.5 -168q0 -90 30.5 -164.5t86 -129t132 -84t169.5 -29.5q141 0 236 50t167 144l164 -96 q-84 -129 -209 -200.5t-297 -82.5v-61q86 -6 135 -53t49 -127q0 -53 -22.5 -91t-60.5 -62.5t-88 -36t-107 -11.5q-41 0 -80 8t-80 29l37 108q29 -12 64.5 -17t62.5 -5q57 0 89 18.5t32 59.5q0 61 -82 61h-92l-13 12l17 172q-121 12 -221.5 57.5t-173 121t-112.5 179 t-40 230.5z" />
<glyph unicode="&#xc8;" horiz-adv-x="1245" d="M109 0v1133h1013v-189h-805v-272h725v-187h-725v-295h836v-190h-1044zM493 1616l179 43l98 -375l-174 -41z" />
<glyph unicode="&#xc9;" horiz-adv-x="1245" d="M109 0v1133h1013v-189h-805v-272h725v-187h-725v-295h836v-190h-1044zM520 1284l99 375l178 -43l-102 -373z" />
<glyph unicode="&#xca;" horiz-adv-x="1245" d="M109 0v1133h1013v-189h-805v-272h725v-187h-725v-295h836v-190h-1044zM336 1339l305 226l308 -226l-86 -108l-222 139l-223 -139z" />
<glyph unicode="&#xcb;" horiz-adv-x="1245" d="M109 0v1133h1013v-189h-805v-272h725v-187h-725v-295h836v-190h-1044zM248 1397q0 53 39 92t94 39q57 0 96 -39t39 -92q0 -55 -38.5 -95t-96.5 -40q-55 0 -94 39.5t-39 95.5zM733 1397q0 53 40.5 92t93.5 39q57 0 97 -39t40 -92q0 -55 -40 -95t-97 -40q-53 0 -93.5 39.5 t-40.5 95.5z" />
<glyph unicode="&#xcc;" horiz-adv-x="425" d="M67 1616l179 43l98 -375l-174 -41zM109 0v1133h208v-1133h-208z" />
<glyph unicode="&#xcd;" horiz-adv-x="425" d="M102 1284l99 375l178 -43l-102 -373zM109 0v1133h208v-1133h-208z" />
<glyph unicode="&#xce;" horiz-adv-x="425" d="M-80 1339l305 226l308 -226l-86 -108l-222 139l-223 -139zM109 0v1133h208v-1133h-208z" />
<glyph unicode="&#xcf;" horiz-adv-x="425" d="M-158 1397q0 53 39 92t94 39q57 0 96 -39t39 -92q0 -55 -38.5 -95t-96.5 -40q-55 0 -94 39.5t-39 95.5zM109 0v1133h208v-1133h-208zM327 1397q0 53 40.5 92t93.5 39q57 0 97 -39t40 -92q0 -55 -40 -95t-97 -40q-53 0 -93.5 39.5t-40.5 95.5z" />
<glyph unicode="&#xd0;" horiz-adv-x="1415" d="M20 494v184h134v455h571q119 0 229.5 -40t194.5 -114t134 -178.5t50 -233.5t-51 -234.5t-135 -179t-193.5 -113.5t-228.5 -40h-571v494h-134zM360 190h359q90 0 164.5 28t129 77t84 118.5t29.5 153.5t-29.5 154t-84 119t-129 76.5t-164.5 27.5h-359v-266h306v-184h-306 v-304z" />
<glyph unicode="&#xd1;" horiz-adv-x="1384" d="M109 0v1133h208l752 -842v842h207v-1133h-211l-752 846v-846h-204zM310 1356q94 147 262 147q53 0 91 -11t68.5 -25.5t59.5 -25.5t66 -11q51 0 85.5 14t63.5 45l82 -105q-41 -66 -97.5 -96.5t-136.5 -30.5q-45 0 -80.5 12.5t-69.5 27t-66.5 26.5t-71.5 12 q-53 0 -91 -20.5t-67 -57.5z" />
<glyph unicode="&#xd2;" d="M84 565q0 135 49 245t135 187.5t202 119.5t247 42t246.5 -42t201.5 -119.5t135.5 -187.5t49.5 -245t-49.5 -244.5t-135.5 -187.5t-201.5 -120t-246.5 -42t-247 42t-202 120t-135 187.5t-49 244.5zM293 565q0 -98 32.5 -175t90 -130t134.5 -80.5t167 -27.5t168 27.5 t135 80.5t90 130t33 175t-33 175t-90 130.5t-135 81t-168 27.5t-167 -27.5t-134.5 -81t-90 -130.5t-32.5 -175zM518 1616l179 43l98 -375l-174 -41z" />
<glyph unicode="&#xd3;" d="M84 565q0 135 49 245t135 187.5t202 119.5t247 42t246.5 -42t201.5 -119.5t135.5 -187.5t49.5 -245t-49.5 -244.5t-135.5 -187.5t-201.5 -120t-246.5 -42t-247 42t-202 120t-135 187.5t-49 244.5zM293 565q0 -98 32.5 -175t90 -130t134.5 -80.5t167 -27.5t168 27.5 t135 80.5t90 130t33 175t-33 175t-90 130.5t-135 81t-168 27.5t-167 -27.5t-134.5 -81t-90 -130.5t-32.5 -175zM647 1284l99 375l178 -43l-102 -373z" />
<glyph unicode="&#xd4;" d="M84 565q0 135 49 245t135 187.5t202 119.5t247 42t246.5 -42t201.5 -119.5t135.5 -187.5t49.5 -245t-49.5 -244.5t-135.5 -187.5t-201.5 -120t-246.5 -42t-247 42t-202 120t-135 187.5t-49 244.5zM293 565q0 -98 32.5 -175t90 -130t134.5 -80.5t167 -27.5t168 27.5 t135 80.5t90 130t33 175t-33 175t-90 130.5t-135 81t-168 27.5t-167 -27.5t-134.5 -81t-90 -130.5t-32.5 -175zM409 1339l305 226l308 -226l-86 -108l-222 139l-223 -139z" />
<glyph unicode="&#xd5;" d="M84 565q0 135 49 245t135 187.5t202 119.5t247 42t246.5 -42t201.5 -119.5t135.5 -187.5t49.5 -245t-49.5 -244.5t-135.5 -187.5t-201.5 -120t-246.5 -42t-247 42t-202 120t-135 187.5t-49 244.5zM293 565q0 -98 32.5 -175t90 -130t134.5 -80.5t167 -27.5t168 27.5 t135 80.5t90 130t33 175t-33 175t-90 130.5t-135 81t-168 27.5t-167 -27.5t-134.5 -81t-90 -130.5t-32.5 -175zM328 1356q94 147 262 147q53 0 91 -11t68.5 -25.5t59.5 -25.5t66 -11q51 0 85.5 14t63.5 45l82 -105q-41 -66 -97.5 -96.5t-136.5 -30.5q-45 0 -80.5 12.5 t-69.5 27t-66.5 26.5t-71.5 12q-53 0 -91 -20.5t-67 -57.5z" />
<glyph unicode="&#xd6;" d="M84 565q0 135 49 245t135 187.5t202 119.5t247 42t246.5 -42t201.5 -119.5t135.5 -187.5t49.5 -245t-49.5 -244.5t-135.5 -187.5t-201.5 -120t-246.5 -42t-247 42t-202 120t-135 187.5t-49 244.5zM293 565q0 -98 32.5 -175t90 -130t134.5 -80.5t167 -27.5t168 27.5 t135 80.5t90 130t33 175t-33 175t-90 130.5t-135 81t-168 27.5t-167 -27.5t-134.5 -81t-90 -130.5t-32.5 -175zM340 1397q0 53 39 92t94 39q57 0 96 -39t39 -92q0 -55 -38.5 -95t-96.5 -40q-55 0 -94 39.5t-39 95.5zM825 1397q0 53 40.5 92t93.5 39q57 0 97 -39t40 -92 q0 -55 -40 -95t-97 -40q-53 0 -93.5 39.5t-40.5 95.5z" />
<glyph unicode="&#xd7;" horiz-adv-x="856" d="M125 774l123 123l184 -184l189 188l129 -127l-189 -188l184 -185l-122 -125l-187 187l-182 -184l-127 129l182 182z" />
<glyph unicode="&#xd8;" d="M84 567q0 133 49 243t135 187.5t202 119.5t247 42q115 0 223 -35l49 84l164 -86l-47 -80q111 -78 177.5 -198.5t66.5 -276.5q0 -135 -49.5 -244.5t-135.5 -187.5t-201.5 -120t-246.5 -42q-57 0 -110.5 8.5t-104.5 22.5l-53 -90l-158 86l47 82q-117 78 -185.5 202 t-68.5 283zM293 567q0 -106 38 -185t103 -132l410 711q-59 18 -127 18q-90 0 -167 -27.5t-134.5 -81t-90 -129t-32.5 -174.5zM598 168q55 -12 119 -12q90 0 168 27.5t135 80.5t90 129t33 174q0 100 -36 177t-97 130z" />
<glyph unicode="&#xd9;" horiz-adv-x="1349" d="M98 555v578h209v-580q0 -182 88 -289.5t279 -107.5q190 0 279 107.5t89 289.5v580h207v-578q0 -141 -40 -249.5t-115.5 -182.5t-182 -113t-237.5 -39q-133 0 -238.5 39t-181.5 113t-116 182.5t-40 249.5zM479 1616l179 43l98 -375l-174 -41z" />
<glyph unicode="&#xda;" horiz-adv-x="1349" d="M98 555v578h209v-580q0 -182 88 -289.5t279 -107.5q190 0 279 107.5t89 289.5v580h207v-578q0 -141 -40 -249.5t-115.5 -182.5t-182 -113t-237.5 -39q-133 0 -238.5 39t-181.5 113t-116 182.5t-40 249.5zM587 1284l99 375l178 -43l-102 -373z" />
<glyph unicode="&#xdb;" horiz-adv-x="1349" d="M98 555v578h209v-580q0 -182 88 -289.5t279 -107.5q190 0 279 107.5t89 289.5v580h207v-578q0 -141 -40 -249.5t-115.5 -182.5t-182 -113t-237.5 -39q-133 0 -238.5 39t-181.5 113t-116 182.5t-40 249.5zM370 1339l305 226l308 -226l-86 -108l-222 139l-223 -139z" />
<glyph unicode="&#xdc;" horiz-adv-x="1349" d="M98 555v578h209v-580q0 -182 88 -289.5t279 -107.5q190 0 279 107.5t89 289.5v580h207v-578q0 -141 -40 -249.5t-115.5 -182.5t-182 -113t-237.5 -39q-133 0 -238.5 39t-181.5 113t-116 182.5t-40 249.5zM297 1397q0 53 39 92t94 39q57 0 96 -39t39 -92q0 -55 -38.5 -95 t-96.5 -40q-55 0 -94 39.5t-39 95.5zM782 1397q0 53 40.5 92t93.5 39q57 0 97 -39t40 -92q0 -55 -40 -95t-97 -40q-53 0 -93.5 39.5t-40.5 95.5z" />
<glyph unicode="&#xdd;" horiz-adv-x="1404" d="M61 1133h238l397 -644h25l385 644h237l-538 -850v-283h-205v283zM626 1284l99 375l178 -43l-102 -373z" />
<glyph unicode="&#xde;" horiz-adv-x="1259" d="M109 0v1133h208v-138h431q90 0 169.5 -32.5t138 -91t92.5 -137.5t34 -169t-34 -168t-92.5 -135t-138 -90t-169.5 -33h-431v-139h-208zM317 328h422q59 0 103.5 19.5t74 51t45 74.5t15.5 92q0 98 -59.5 170t-178.5 72h-422v-479z" />
<glyph unicode="&#xe0;" horiz-adv-x="1505" d="M68 0l495 1133h393l482 -1133h-219l-78 178h-772l-78 -178h-223zM446 362h611l-238 584h-129zM571 1616l179 43l98 -375l-174 -41z" />
<glyph unicode="&#xe1;" horiz-adv-x="1505" d="M68 0l495 1133h393l482 -1133h-219l-78 178h-772l-78 -178h-223zM446 362h611l-238 584h-129zM677 1286l99 375l178 -43l-102 -373z" />
<glyph unicode="&#xe2;" horiz-adv-x="1505" d="M68 0l495 1133h393l482 -1133h-219l-78 178h-772l-78 -178h-223zM444 1339l305 226l308 -226l-86 -108l-222 139l-223 -139zM446 362h611l-238 584h-129z" />
<glyph unicode="&#xe3;" horiz-adv-x="1505" d="M68 0l495 1133h393l482 -1133h-219l-78 178h-772l-78 -178h-223zM361 1356q94 147 262 147q53 0 91 -11t68.5 -25.5t59.5 -25.5t66 -11q51 0 85.5 14t63.5 45l82 -105q-41 -66 -97.5 -96.5t-136.5 -30.5q-45 0 -80.5 12.5t-69.5 27t-66.5 26.5t-71.5 12q-53 0 -91 -20.5 t-67 -57.5zM446 362h611l-238 584h-129z" />
<glyph unicode="&#xe4;" horiz-adv-x="1505" d="M68 0l495 1133h393l482 -1133h-219l-78 178h-772l-78 -178h-223zM373 1397q0 53 39 92t94 39q57 0 96 -39t39 -92q0 -55 -38.5 -95t-96.5 -40q-55 0 -94 39.5t-39 95.5zM446 362h611l-238 584h-129zM858 1397q0 53 40.5 92t93.5 39q57 0 97 -39t40 -92q0 -55 -40 -95 t-97 -40q-53 0 -93.5 39.5t-40.5 95.5z" />
<glyph unicode="&#xe5;" horiz-adv-x="1505" d="M68 0l495 1133h393l482 -1133h-219l-78 178h-772l-78 -178h-223zM446 362h611l-238 584h-129zM482 1481q0 57 21.5 104t58 81t86 51.5t102.5 17.5t102.5 -17.5t86 -51.5t58 -81t21.5 -104q0 -59 -21.5 -106.5t-58 -81t-86 -51t-102.5 -17.5t-102.5 17.5t-86 51t-58 80.5 t-21.5 107zM631 1481q0 -59 33 -89t86 -30t86 29.5t33 89.5q0 57 -33 86.5t-86 29.5t-86 -29.5t-33 -86.5z" />
<glyph unicode="&#xe6;" horiz-adv-x="2242" d="M18 0l766 1133h1330v-187h-822v-272h740v-185h-740v-299h862v-190h-1069v205h-677l-146 -205h-244zM541 397h544v549h-198z" />
<glyph unicode="&#xe7;" horiz-adv-x="1349" d="M82 565q0 137 48 248t133 187.5t200 117.5t248 41q193 0 333 -72.5t228 -212.5l-162 -94q-68 92 -165 142.5t-238 50.5q-96 0 -173 -29t-131.5 -82t-84 -129t-29.5 -168q0 -90 30.5 -164.5t86 -129t132 -84t169.5 -29.5q141 0 236 50t167 144l164 -96 q-84 -129 -209 -200.5t-297 -82.5v-61q86 -6 135 -53t49 -127q0 -53 -22.5 -91t-60.5 -62.5t-88 -36t-107 -11.5q-41 0 -80 8t-80 29l37 108q29 -12 64.5 -17t62.5 -5q57 0 89 18.5t32 59.5q0 61 -82 61h-92l-13 12l17 172q-121 12 -221.5 57.5t-173 121t-112.5 179 t-40 230.5z" />
<glyph unicode="&#xe8;" horiz-adv-x="1245" d="M109 0v1133h1013v-189h-805v-272h725v-187h-725v-295h836v-190h-1044zM493 1616l179 43l98 -375l-174 -41z" />
<glyph unicode="&#xe9;" horiz-adv-x="1245" d="M109 0v1133h1013v-189h-805v-272h725v-187h-725v-295h836v-190h-1044zM542 1284l99 375l178 -43l-102 -373z" />
<glyph unicode="&#xea;" horiz-adv-x="1245" d="M109 0v1133h1013v-189h-805v-272h725v-187h-725v-295h836v-190h-1044zM336 1339l305 226l308 -226l-86 -108l-222 139l-223 -139z" />
<glyph unicode="&#xeb;" horiz-adv-x="1245" d="M109 0v1133h1013v-189h-805v-272h725v-187h-725v-295h836v-190h-1044zM248 1397q0 53 39 92t94 39q57 0 96 -39t39 -92q0 -55 -38.5 -95t-96.5 -40q-55 0 -94 39.5t-39 95.5zM733 1397q0 53 40.5 92t93.5 39q57 0 97 -39t40 -92q0 -55 -40 -95t-97 -40q-53 0 -93.5 39.5 t-40.5 95.5z" />
<glyph unicode="&#xec;" horiz-adv-x="425" d="M36 1616l179 43l98 -375l-174 -41zM109 0v1133h208v-1133h-208z" />
<glyph unicode="&#xed;" horiz-adv-x="425" d="M109 0v1133h208v-1133h-208zM129 1284l99 375l178 -43l-102 -373z" />
<glyph unicode="&#xee;" horiz-adv-x="425" d="M-80 1339l305 226l308 -226l-86 -108l-222 139l-223 -139zM109 0v1133h208v-1133h-208z" />
<glyph unicode="&#xef;" horiz-adv-x="425" d="M-158 1397q0 53 39 92t94 39q57 0 96 -39t39 -92q0 -55 -38.5 -95t-96.5 -40q-55 0 -94 39.5t-39 95.5zM109 0v1133h208v-1133h-208zM327 1397q0 53 40.5 92t93.5 39q57 0 97 -39t40 -92q0 -55 -40 -95t-97 -40q-53 0 -93.5 39.5t-40.5 95.5z" />
<glyph unicode="&#xf0;" horiz-adv-x="1415" d="M20 494v184h134v455h571q119 0 229.5 -40t194.5 -114t134 -178.5t50 -233.5t-51 -234.5t-135 -179t-193.5 -113.5t-228.5 -40h-571v494h-134zM360 190h359q90 0 164.5 28t129 77t84 118.5t29.5 153.5t-29.5 154t-84 119t-129 76.5t-164.5 27.5h-359v-266h306v-184h-306 v-304z" />
<glyph unicode="&#xf1;" horiz-adv-x="1384" d="M109 0v1133h208l752 -842v842h207v-1133h-211l-752 846v-846h-204zM301 1356q94 147 262 147q53 0 91 -11t68.5 -25.5t59.5 -25.5t66 -11q51 0 85.5 14t63.5 45l82 -105q-41 -66 -97.5 -96.5t-136.5 -30.5q-45 0 -80.5 12.5t-69.5 27t-66.5 26.5t-71.5 12 q-53 0 -91 -20.5t-67 -57.5z" />
<glyph unicode="&#xf2;" d="M84 565q0 135 49 245t135 187.5t202 119.5t247 42t246.5 -42t201.5 -119.5t135.5 -187.5t49.5 -245t-49.5 -244.5t-135.5 -187.5t-201.5 -120t-246.5 -42t-247 42t-202 120t-135 187.5t-49 244.5zM293 565q0 -98 32.5 -175t90 -130t134.5 -80.5t167 -27.5t168 27.5 t135 80.5t90 130t33 175t-33 175t-90 130.5t-135 81t-168 27.5t-167 -27.5t-134.5 -81t-90 -130.5t-32.5 -175zM520 1616l179 43l98 -375l-174 -41z" />
<glyph unicode="&#xf3;" d="M84 565q0 135 49 245t135 187.5t202 119.5t247 42t246.5 -42t201.5 -119.5t135.5 -187.5t49.5 -245t-49.5 -244.5t-135.5 -187.5t-201.5 -120t-246.5 -42t-247 42t-202 120t-135 187.5t-49 244.5zM293 565q0 -98 32.5 -175t90 -130t134.5 -80.5t167 -27.5t168 27.5 t135 80.5t90 130t33 175t-33 175t-90 130.5t-135 81t-168 27.5t-167 -27.5t-134.5 -81t-90 -130.5t-32.5 -175zM641 1284l99 375l178 -43l-102 -373z" />
<glyph unicode="&#xf4;" d="M84 565q0 135 49 245t135 187.5t202 119.5t247 42t246.5 -42t201.5 -119.5t135.5 -187.5t49.5 -245t-49.5 -244.5t-135.5 -187.5t-201.5 -120t-246.5 -42t-247 42t-202 120t-135 187.5t-49 244.5zM293 565q0 -98 32.5 -175t90 -130t134.5 -80.5t167 -27.5t168 27.5 t135 80.5t90 130t33 175t-33 175t-90 130.5t-135 81t-168 27.5t-167 -27.5t-134.5 -81t-90 -130.5t-32.5 -175zM409 1339l305 226l308 -226l-86 -108l-222 139l-223 -139z" />
<glyph unicode="&#xf5;" d="M84 565q0 135 49 245t135 187.5t202 119.5t247 42t246.5 -42t201.5 -119.5t135.5 -187.5t49.5 -245t-49.5 -244.5t-135.5 -187.5t-201.5 -120t-246.5 -42t-247 42t-202 120t-135 187.5t-49 244.5zM293 565q0 -98 32.5 -175t90 -130t134.5 -80.5t167 -27.5t168 27.5 t135 80.5t90 130t33 175t-33 175t-90 130.5t-135 81t-168 27.5t-167 -27.5t-134.5 -81t-90 -130.5t-32.5 -175zM312 1360q94 147 262 147q53 0 91 -11t68.5 -25.5t59.5 -25.5t66 -11q51 0 85.5 14t63.5 45l82 -105q-41 -66 -97.5 -96.5t-136.5 -30.5q-45 0 -80.5 12.5 t-69.5 27t-66.5 26.5t-71.5 12q-53 0 -91 -20.5t-67 -57.5z" />
<glyph unicode="&#xf6;" d="M84 565q0 135 49 245t135 187.5t202 119.5t247 42t246.5 -42t201.5 -119.5t135.5 -187.5t49.5 -245t-49.5 -244.5t-135.5 -187.5t-201.5 -120t-246.5 -42t-247 42t-202 120t-135 187.5t-49 244.5zM293 565q0 -98 32.5 -175t90 -130t134.5 -80.5t167 -27.5t168 27.5 t135 80.5t90 130t33 175t-33 175t-90 130.5t-135 81t-168 27.5t-167 -27.5t-134.5 -81t-90 -130.5t-32.5 -175zM340 1397q0 53 39 92t94 39q57 0 96 -39t39 -92q0 -55 -38.5 -95t-96.5 -40q-55 0 -94 39.5t-39 95.5zM825 1397q0 53 40.5 92t93.5 39q57 0 97 -39t40 -92 q0 -55 -40 -95t-97 -40q-53 0 -93.5 39.5t-40.5 95.5z" />
<glyph unicode="&#xf7;" horiz-adv-x="784" d="M68 487v168h647v-168h-647zM252 256q0 59 42 100t101 41t100.5 -40t41.5 -99t-41 -98t-101 -39q-59 0 -101 38t-42 97zM252 901q0 59 42 100t101 41t100.5 -40.5t41.5 -100.5q0 -59 -41 -100t-101 -41q-59 0 -101 41t-42 100z" />
<glyph unicode="&#xf8;" horiz-adv-x="1413" d="M84 567q0 133 49 243t135 187.5t202 119.5t247 42q115 0 223 -35l49 84l164 -86l-47 -80q111 -78 177.5 -198.5t66.5 -276.5q0 -135 -49.5 -244.5t-135.5 -187.5t-201.5 -120t-246.5 -42q-57 0 -110.5 8.5t-104.5 22.5l-53 -90l-158 86l47 82q-117 78 -185.5 202 t-68.5 283zM293 567q0 -106 38 -185t103 -132l410 711q-59 18 -127 18q-90 0 -167 -27.5t-134.5 -81t-90 -129t-32.5 -174.5zM598 168q55 -12 119 -12q90 0 168 27.5t135 80.5t90 129t33 174q0 100 -36 177t-97 130z" />
<glyph unicode="&#xf9;" horiz-adv-x="1349" d="M98 555v578h209v-580q0 -182 88 -289.5t279 -107.5q190 0 279 107.5t89 289.5v580h207v-578q0 -141 -40 -249.5t-115.5 -182.5t-182 -113t-237.5 -39q-133 0 -238.5 39t-181.5 113t-116 182.5t-40 249.5zM487 1616l179 43l98 -375l-174 -41z" />
<glyph unicode="&#xfa;" horiz-adv-x="1349" d="M98 555v578h209v-580q0 -182 88 -289.5t279 -107.5q190 0 279 107.5t89 289.5v580h207v-578q0 -141 -40 -249.5t-115.5 -182.5t-182 -113t-237.5 -39q-133 0 -238.5 39t-181.5 113t-116 182.5t-40 249.5zM573 1284l99 375l178 -43l-102 -373z" />
<glyph unicode="&#xfb;" horiz-adv-x="1349" d="M98 555v578h209v-580q0 -182 88 -289.5t279 -107.5q190 0 279 107.5t89 289.5v580h207v-578q0 -141 -40 -249.5t-115.5 -182.5t-182 -113t-237.5 -39q-133 0 -238.5 39t-181.5 113t-116 182.5t-40 249.5zM368 1339l305 226l308 -226l-86 -108l-222 139l-223 -139z" />
<glyph unicode="&#xfc;" horiz-adv-x="1349" d="M98 555v578h209v-580q0 -182 88 -289.5t279 -107.5q190 0 279 107.5t89 289.5v580h207v-578q0 -141 -40 -249.5t-115.5 -182.5t-182 -113t-237.5 -39q-133 0 -238.5 39t-181.5 113t-116 182.5t-40 249.5zM297 1397q0 53 39 92t94 39q57 0 96 -39t39 -92q0 -55 -38.5 -95 t-96.5 -40q-55 0 -94 39.5t-39 95.5zM782 1397q0 53 40.5 92t93.5 39q57 0 97 -39t40 -92q0 -55 -40 -95t-97 -40q-53 0 -93.5 39.5t-40.5 95.5z" />
<glyph unicode="&#xfd;" horiz-adv-x="1404" d="M61 1133h238l397 -644h25l385 644h237l-538 -850v-283h-205v283zM618 1284l99 375l178 -43l-102 -373z" />
<glyph unicode="&#xfe;" horiz-adv-x="1259" d="M109 0v1133h208v-138h431q90 0 169.5 -32.5t138 -91t92.5 -137.5t34 -169t-34 -168t-92.5 -135t-138 -90t-169.5 -33h-431v-139h-208zM317 328h422q59 0 103.5 19.5t74 51t45 74.5t15.5 92q0 98 -59.5 170t-178.5 72h-422v-479z" />
<glyph unicode="&#xff;" horiz-adv-x="1404" d="M61 1133h238l397 -644h25l385 644h237l-538 -850v-283h-205v283zM324 1397q0 53 39 92t94 39q57 0 96 -39t39 -92q0 -55 -38.5 -95t-96.5 -40q-55 0 -94 39.5t-39 95.5zM809 1397q0 53 40.5 92t93.5 39q57 0 97 -39t40 -92q0 -55 -40 -95t-97 -40q-53 0 -93.5 39.5 t-40.5 95.5z" />
<glyph unicode="&#x152;" horiz-adv-x="2199" d="M84 567q0 141 46 247t142 192q86 80 193.5 116.5t245.5 36.5q123 0 225 -32.5t184 -104.5v111h953v-189h-752v-270h670v-189h-670v-295h780v-190h-981v109q-82 -72 -182 -105t-227 -33q-137 0 -245 37t-194 117q-188 170 -188 442zM293 565q0 -178 96 -286 q111 -127 322 -127q209 0 319 127q94 102 94 288q0 182 -94 285q-111 127 -319 127q-211 0 -322 -127q-47 -53 -71.5 -124t-24.5 -163z" />
<glyph unicode="&#x153;" horiz-adv-x="2199" d="M84 567q0 141 46 247t142 192q86 80 193.5 116.5t245.5 36.5q123 0 225 -32.5t184 -104.5v111h953v-189h-752v-270h670v-189h-670v-295h780v-190h-981v109q-82 -72 -182 -105t-227 -33q-137 0 -245 37t-194 117q-188 170 -188 442zM293 565q0 -178 96 -286 q111 -127 322 -127q209 0 319 127q94 102 94 288q0 182 -94 285q-111 127 -319 127q-211 0 -322 -127q-47 -53 -71.5 -124t-24.5 -163z" />
<glyph unicode="&#x178;" horiz-adv-x="1404" d="M61 1133h238l397 -644h25l385 644h237l-538 -850v-283h-205v283zM324 1397q0 53 39 92t94 39q57 0 96 -39t39 -92q0 -55 -38.5 -95t-96.5 -40q-55 0 -94 39.5t-39 95.5zM809 1397q0 53 40.5 92t93.5 39q57 0 97 -39t40 -92q0 -55 -40 -95t-97 -40q-53 0 -93.5 39.5 t-40.5 95.5z" />
<glyph unicode="&#x2c6;" horiz-adv-x="720" d="M55 1339l305 226l308 -226l-86 -108l-222 139l-223 -139z" />
<glyph unicode="&#x2dc;" horiz-adv-x="854" d="M31 1356q94 147 262 147q53 0 91 -11t68.5 -25.5t59.5 -25.5t66 -11q51 0 85.5 14t63.5 45l82 -105q-41 -66 -97.5 -96.5t-136.5 -30.5q-45 0 -80.5 12.5t-69.5 27t-66.5 26.5t-71.5 12q-53 0 -91 -20.5t-67 -57.5z" />
<glyph unicode="&#x2000;" horiz-adv-x="867" />
<glyph unicode="&#x2001;" horiz-adv-x="1735" />
<glyph unicode="&#x2002;" horiz-adv-x="867" />
<glyph unicode="&#x2003;" horiz-adv-x="1735" />
<glyph unicode="&#x2004;" horiz-adv-x="578" />
<glyph unicode="&#x2005;" horiz-adv-x="433" />
<glyph unicode="&#x2006;" horiz-adv-x="289" />
<glyph unicode="&#x2007;" horiz-adv-x="289" />
<glyph unicode="&#x2008;" horiz-adv-x="216" />
<glyph unicode="&#x2009;" horiz-adv-x="347" />
<glyph unicode="&#x200a;" horiz-adv-x="96" />
<glyph unicode="&#x2010;" horiz-adv-x="808" d="M82 487v183h645v-183h-645z" />
<glyph unicode="&#x2011;" horiz-adv-x="808" d="M82 487v183h645v-183h-645z" />
<glyph unicode="&#x2012;" horiz-adv-x="808" d="M82 487v183h645v-183h-645z" />
<glyph unicode="&#x2013;" horiz-adv-x="987" d="M82 487v183h823v-183h-823z" />
<glyph unicode="&#x2014;" horiz-adv-x="1150" d="M82 487v183h987v-183h-987z" />
<glyph unicode="&#x2018;" horiz-adv-x="495" d="M84 936q0 25 10 51l113 266l112 -24l-36 -166q39 -14 60.5 -50t21.5 -77q0 -59 -42 -99t-102 -40q-55 0 -96 36.5t-41 102.5z" />
<glyph unicode="&#x2019;" horiz-adv-x="434" d="M84 1079q0 59 41 98.5t102 39.5q53 0 95.5 -37t42.5 -103q0 -23 -11 -49l-112 -266l-113 24l37 166q-41 14 -61.5 50t-20.5 77z" />
<glyph unicode="&#x201a;" horiz-adv-x="452" d="M84 111q0 59 41 98t102 39q53 0 95.5 -37t42.5 -102q0 -23 -11 -50l-112 -266l-113 25l37 166q-41 14 -61.5 50t-20.5 77z" />
<glyph unicode="&#x201c;" horiz-adv-x="757" d="M70 928q0 25 10 51l113 266l112 -24l-37 -166q39 -14 60.5 -50t21.5 -77q0 -59 -42 -99.5t-101 -40.5q-55 0 -96 37t-41 103zM385 928q0 25 10 51l103 231l106 -24l-22 -131q39 -14 61.5 -50t22.5 -77q0 -59 -41 -99.5t-103 -40.5q-55 0 -96 37t-41 103z" />
<glyph unicode="&#x201d;" horiz-adv-x="757" d="M70 1067q0 59 41 99t102 40q53 0 95 -36.5t42 -102.5q0 -25 -10 -51l-102 -232l-107 25l23 131q-39 14 -61.5 50t-22.5 77zM385 1067q0 59 41 99t102 40q55 0 96.5 -36.5t41.5 -102.5q0 -25 -11 -51l-112 -266l-113 24l37 166q-39 14 -60.5 50t-21.5 77z" />
<glyph unicode="&#x201e;" horiz-adv-x="739" d="M70 92q0 59 41 99t102 40q53 0 95 -36.5t42 -102.5q0 -25 -10 -51l-102 -231l-107 24l23 131q-39 14 -61.5 50t-22.5 77zM385 92q0 59 41 99t102 40q55 0 96.5 -36.5t41.5 -102.5q0 -25 -11 -51l-112 -266l-113 24l37 166q-39 14 -60.5 50t-21.5 77z" />
<glyph unicode="&#x2022;" horiz-adv-x="538" d="M59 612q0 43 16.5 80t44 64.5t64.5 43t78 15.5q86 0 144.5 -58.5t58.5 -144.5q0 -84 -58.5 -142t-144.5 -58q-41 0 -78 15t-64.5 43t-44 64.5t-16.5 77.5z" />
<glyph unicode="&#x2026;" horiz-adv-x="1423" d="M68 139q0 72 47.5 120t117.5 48t119 -48t49 -120q0 -70 -49 -114.5t-119 -44.5t-117.5 45t-47.5 114zM530 139q0 72 48 120t118 48q72 0 120 -48t48 -120q0 -70 -48 -114.5t-120 -44.5q-70 0 -118 45t-48 114zM993 139q0 72 48 120t120 48q70 0 118 -48t48 -120 q0 -70 -48 -114.5t-118 -44.5q-72 0 -120 45t-48 114z" />
<glyph unicode="&#x202f;" horiz-adv-x="347" />
<glyph unicode="&#x2039;" horiz-adv-x="577" d="M55 549l357 344l106 -105l-199 -239l199 -240l-106 -104z" />
<glyph unicode="&#x203a;" horiz-adv-x="577" d="M59 309l199 240l-199 239l107 105l356 -344l-356 -344z" />
<glyph unicode="&#x205f;" horiz-adv-x="433" />
<glyph unicode="&#x20ac;" horiz-adv-x="1349" d="M18 373v151h840v-151h-524q47 -102 144 -159.5t229 -57.5q141 0 236 51t167 145l164 -96q-90 -137 -229.5 -211t-333.5 -74q-111 0 -207 28t-174 79t-134.5 126t-84.5 169h-93zM18 606v152h91q31 94 87 168.5t135 126t175 79t205 27.5q193 0 333 -72.5t228 -212.5 l-162 -94q-68 92 -165 143.5t-238 51.5q-135 0 -232.5 -57.5t-144.5 -159.5h528v-152h-840z" />
<glyph unicode="&#x2122;" horiz-adv-x="1343" d="M43 1010v123h676l184 -359l182 359h160v-545h-127v342l-178 -342h-78l-178 342v-342h-127v422h-174v-422h-129v422h-211z" />
<glyph unicode="&#x25fc;" horiz-adv-x="1136" d="M0 0v1137h1137v-1137h-1137z" />
</font>
</defs>
</svg>
