<?xml version="1.0" standalone="no"?>
<!DOCTYPE svg PUBLIC "-//W3C//DTD SVG 1.1//EN" "http://www.w3.org/Graphics/SVG/1.1/DTD/svg11.dtd" >
<svg xmlns="http://www.w3.org/2000/svg" xmlns:xlink="http://www.w3.org/1999/xlink" version="1.1">
<metadata></metadata>
<defs>
<font id="roadradiothin" horiz-adv-x="1421" >
<font-face units-per-em="2048" ascent="1536" descent="-512" />
<missing-glyph horiz-adv-x="679" />
<glyph horiz-adv-x="0" />
<glyph unicode="&#xd;" horiz-adv-x="681" />
<glyph unicode=" "  horiz-adv-x="679" />
<glyph unicode="&#x09;" horiz-adv-x="679" />
<glyph unicode="&#xa0;" horiz-adv-x="679" />
<glyph unicode="!" horiz-adv-x="397" d="M82 94q0 49 34 83t83 34t82.5 -34t33.5 -83t-33.5 -81.5t-82.5 -32.5t-83 32.5t-34 81.5zM143 326v966h111v-966h-111z" />
<glyph unicode="&#x22;" horiz-adv-x="466" d="M72 752v381h110v-158l-26 -223h-84zM285 752v381h110v-158l-26 -223h-84z" />
<glyph unicode="#" horiz-adv-x="808" d="M82 414v104h156l18 156h-174v104h186l21 166h104l-20 -166h155l21 166h104l-20 -166h155v-104h-167l-19 -156h186v-104h-198l-21 -176h-104l20 176h-155l-21 -176h-104l20 176h-143zM342 518h156l18 156h-156z" />
<glyph unicode="$" horiz-adv-x="1269" d="M82 121l59 94q123 -76 248 -108.5t277 -32.5q193 0 301 59.5t108 177.5q0 98 -69.5 147.5t-198.5 63.5l-356 39q-154 16 -248 80t-94 203q0 80 37.5 138t103 97t154 58.5t186.5 21.5l8 152h92l6 -154q121 -4 225.5 -31.5t213.5 -97.5l-56 -80q-106 55 -212.5 82 t-252.5 27q-115 0 -190.5 -17.5t-120.5 -47t-63.5 -67.5t-18.5 -79q0 -90 65.5 -126t176.5 -48l371 -45q166 -20 260 -98t94 -214q0 -166 -130 -248.5t-356 -93.5l-14 -170h-92l-12 168q-147 4 -266 39t-236 111z" />
<glyph unicode="%" horiz-adv-x="1454" d="M61 815q0 63 24 115.5t64.5 89.5t95 57.5t115.5 20.5q63 0 117.5 -20.5t95.5 -57.5t65 -89t24 -116q0 -66 -24 -118t-65 -89t-95.5 -56.5t-117.5 -19.5q-61 0 -115.5 19.5t-95 56.5t-64.5 89.5t-24 117.5zM168 815q0 -84 53 -135t139 -51t138.5 51t52.5 135t-52.5 135 t-138.5 51t-139 -51t-53 -135zM365 -4l655 1139l96 -43l-655 -1139zM793 268q0 63 23.5 115.5t64.5 89.5t95 57.5t116 20.5q63 0 117.5 -20.5t95.5 -57.5t64.5 -89t23.5 -116q0 -66 -23.5 -118t-64.5 -88.5t-95.5 -56t-117.5 -19.5q-61 0 -115.5 19.5t-95.5 56t-64.5 89 t-23.5 117.5zM899 268q0 -84 53.5 -135t139.5 -51t138 51t52 135t-52 135.5t-138 51.5t-139.5 -51.5t-53.5 -135.5z" />
<glyph unicode="&#x26;" horiz-adv-x="1423" d="M78 336q0 92 52 169t151 116q-59 37 -87 94t-28 127t24.5 116t63.5 78q41 37 94 60.5t112.5 37t122 19.5t122.5 6q139 0 253.5 -24.5t235.5 -83.5l-53 -93q-51 27 -100.5 45.5t-101.5 29.5t-110.5 16.5t-128.5 5.5q-217 0 -317 -54.5t-100 -164.5q0 -86 39.5 -132.5 t136.5 -46.5h862v-69l-143 -35l131 -553h-62l-82 117q-129 -82 -255 -114t-263 -32q-115 0 -219 18.5t-190 61.5q-66 41 -113 110.5t-47 174.5zM197 342q0 -70 30.5 -120t88 -83t138.5 -48t181 -15q139 0 257 32.5t251 108.5l-84 338h-606q-117 0 -186.5 -60.5t-69.5 -152.5 z" />
<glyph unicode="'" horiz-adv-x="253" d="M72 752v381h110v-158l-26 -223h-84z" />
<glyph unicode="(" horiz-adv-x="411" d="M104 567q0 150 30 323t99 347l97 -25q-51 -147 -83 -312t-32 -333t32 -332.5t83 -312.5l-97 -24q-70 174 -99.5 347t-29.5 322z" />
<glyph unicode=")" horiz-adv-x="411" d="M82 -78q51 147 83 312t32 333t-32 333t-83 312l96 25q70 -174 99.5 -347t29.5 -323t-29.5 -322.5t-99.5 -346.5z" />
<glyph unicode="*" horiz-adv-x="696" d="M72 793l178 116l-178 117l37 66l188 -97l12 213h76l10 -215l193 101l37 -68l-179 -117l179 -114l-39 -66l-191 98l-10 -213h-76l-12 211l-186 -96z" />
<glyph unicode="+" horiz-adv-x="829" d="M82 528v105h278v270h105v-270h283v-105h-283v-270h-105v270h-278z" />
<glyph unicode="," horiz-adv-x="395" d="M82 94q0 49 32.5 82t82.5 33q49 0 82.5 -33t33.5 -82q0 -12 -2 -22.5t-6 -20.5l-104 -264l-62 16l33 179q-41 8 -65.5 38.5t-24.5 73.5z" />
<glyph unicode="-" horiz-adv-x="808" d="M82 528v105h645v-105h-645z" />
<glyph unicode="." horiz-adv-x="397" d="M82 94q0 49 34 83t83 34t82.5 -34t33.5 -83t-33.5 -81.5t-82.5 -32.5t-83 32.5t-34 81.5z" />
<glyph unicode="/" horiz-adv-x="606" d="M41 -41l418 1255l106 -32l-418 -1256z" />
<glyph unicode="0" horiz-adv-x="1339" d="M82 565q0 135 45 245t124 187.5t186.5 119.5t232.5 42t232.5 -42t186 -119.5t123.5 -187.5t45 -245t-45 -244.5t-123.5 -187.5t-186 -120t-232.5 -42t-232.5 42t-186.5 120t-124 187.5t-45 244.5zM197 565q0 -117 37.5 -208t102 -152.5t150.5 -94t183 -32.5 q96 0 182 32.5t150.5 94t102.5 153t38 207.5q0 117 -38 208t-102.5 152.5t-150.5 94.5t-182 33t-182.5 -33t-151 -94.5t-102 -152.5t-37.5 -208z" />
<glyph unicode="1" horiz-adv-x="528" d="M59 1026v107h347v-1133h-115v1026h-232z" />
<glyph unicode="2" horiz-adv-x="1144" d="M92 973q106 98 233.5 142t262.5 44q109 0 200 -21.5t156.5 -66.5t102 -114.5t36.5 -165.5q0 -94 -48 -178.5t-156 -147.5l-615 -356h789v-109h-944v137l706 412q78 47 117 102.5t39 139.5q0 121 -92.5 191.5t-290.5 70.5q-137 0 -241.5 -43t-188.5 -115z" />
<glyph unicode="3" horiz-adv-x="1277" d="M61 113l54 96q61 -35 118.5 -59.5t117 -41t125 -24.5t145.5 -8q229 0 353 72.5t124 207.5q0 49 -11.5 88t-40 67t-77.5 42t-123 14h-406v103h385q96 0 146.5 41t50.5 129q0 109 -94 164t-310 55q-137 0 -237 -31t-207 -94l-51 92q127 74 243.5 103.5t254.5 29.5 q86 0 176 -12t172 -53q72 -37 119 -93.5t47 -150.5q0 -82 -34 -131t-104 -84q106 -23 160.5 -100.5t54.5 -178.5q0 -80 -36.5 -146.5t-102.5 -119.5q-78 -61 -192.5 -90t-274.5 -29q-164 0 -291 34t-254 108z" />
<glyph unicode="4" horiz-adv-x="1271" d="M61 201v114l723 818h289v-828h135v-104h-135v-201h-112v201h-900zM193 305h768v727h-130z" />
<glyph unicode="5" horiz-adv-x="1212" d="M51 106l55 95q59 -35 113.5 -58.5t111 -39t121 -21.5t146.5 -6q113 0 191.5 24.5t130 64.5t75 92t23.5 110q0 129 -98.5 197.5t-307.5 68.5q-111 0 -192.5 -19.5t-161.5 -58.5l-100 8l35 570h845v-105h-747l-25 -369q45 20 88 35t88 23t96.5 12t114.5 4q221 0 349 -97 t128 -269q0 -94 -39.5 -168t-112.5 -124t-175.5 -77t-227.5 -27q-158 0 -280.5 31t-243.5 104z" />
<glyph unicode="6" horiz-adv-x="1290" d="M102 567q0 129 45.5 238.5t125 187.5t190 122t244.5 44q125 0 224 -23.5t204 -72.5l-52 -94q-51 25 -94 41t-86 26.5t-90 14.5t-106 4q-211 0 -345.5 -117t-150.5 -350q57 33 110.5 57.5t110.5 38.5t121.5 21.5t148.5 7.5q94 0 182.5 -19.5t156 -62.5t107.5 -112.5 t40 -168.5q0 -86 -37 -156.5t-104.5 -119.5t-166 -77t-221.5 -28q-141 0 -245.5 43t-174 121t-103.5 188.5t-34 245.5zM217 485q16 -219 134 -314t335 -95q195 0 291 77.5t96 198.5q0 135 -95 195.5t-308 60.5q-78 0 -138.5 -8t-113.5 -23.5t-101.5 -38t-99.5 -53.5z" />
<glyph unicode="7" horiz-adv-x="1136" d="M72 1028v105h1003v-97l-620 -1036h-129l616 1028h-870z" />
<glyph unicode="8" horiz-adv-x="1316" d="M82 338q0 96 61.5 180t173.5 123q-70 29 -105.5 86t-35.5 133q0 82 42 139.5t109.5 92t154.5 51t177 16.5q133 0 225.5 -25.5t150 -68.5t83 -98.5t25.5 -112.5q0 -76 -34 -136.5t-114 -99.5q113 -29 176.5 -100.5t63.5 -189.5q0 -166 -150.5 -261.5t-425.5 -95.5 q-274 0 -425.5 94.5t-151.5 272.5zM199 340q0 -57 25.5 -105.5t80.5 -84t142.5 -55t211.5 -19.5q238 0 349.5 73.5t111.5 188.5q0 96 -56 141t-157 56l-487 53q-111 -25 -166 -95.5t-55 -152.5zM289 858q0 -86 52 -121t155 -51l399 -41q74 43 104.5 93t30.5 104 q0 104 -85 159.5t-286 55.5t-285.5 -54.5t-84.5 -144.5z" />
<glyph unicode="9" horiz-adv-x="1290" d="M102 772q0 86 37 157.5t104.5 122t166 79t221.5 28.5q141 0 245.5 -43t174 -120.5t103.5 -188.5t34 -246q0 -129 -42 -238.5t-121 -187.5t-190.5 -122t-250.5 -44q-125 0 -224.5 21.5t-203.5 75.5l47 98q51 -27 94 -44.5t87 -27.5t92 -14t108 -4q225 0 352 116.5 t143 350.5q-59 -35 -111.5 -59.5t-109.5 -41t-122.5 -24.5t-147.5 -8q-102 0 -190.5 19t-154 63.5t-103.5 114t-38 167.5zM217 770q0 -135 99.5 -195.5t304.5 -60.5q76 0 137 8t114.5 25.5t101.5 41t99 54.5q-16 219 -131 316.5t-332 97.5q-96 0 -169.5 -22.5t-123 -61.5 t-75 -91.5t-25.5 -111.5z" />
<glyph unicode=":" horiz-adv-x="397" d="M82 94q0 49 34 83t83 34t82.5 -34t33.5 -83t-33.5 -81.5t-82.5 -32.5t-83 32.5t-34 81.5zM82 719q0 49 34 83t83 34t82.5 -34t33.5 -83t-33.5 -82t-82.5 -33t-83 33t-34 82z" />
<glyph unicode=";" horiz-adv-x="395" d="M82 94q0 49 32.5 82t82.5 33q49 0 82.5 -33t33.5 -82q0 -12 -2 -22.5t-6 -20.5l-104 -264l-62 16l33 179q-41 8 -65.5 38.5t-24.5 73.5zM82 719q0 49 34 83t83 34t82.5 -34t33.5 -83t-33.5 -82t-82.5 -33t-83 33t-34 82z" />
<glyph unicode="&#x3c;" horiz-adv-x="505" d="M41 563l332 342l71 -67l-243 -275l243 -274l-71 -68z" />
<glyph unicode="=" horiz-adv-x="768" d="M82 399v105h604v-105h-604zM82 645v105h604v-105h-604z" />
<glyph unicode="&#x3e;" horiz-adv-x="505" d="M61 289l244 274l-244 275l72 67l332 -342l-332 -342z" />
<glyph unicode="?" horiz-adv-x="1177" d="M119 1169q113 98 246 136t278 38q111 0 203 -23.5t157.5 -70.5t101.5 -121.5t36 -175.5q0 -117 -64.5 -212t-204.5 -136l-98 -26q-66 -18 -87 -54.5t-21 -77.5v-120h-113v133q0 59 40 118.5t122 84.5l90 26q127 37 174 104.5t47 165.5q0 135 -91 207t-290 72 q-154 0 -265.5 -38t-203.5 -116zM494 94q0 49 33.5 83t82.5 34t83 -34t34 -83t-34 -81.5t-83 -32.5t-82.5 32.5t-33.5 81.5z" />
<glyph unicode="@" horiz-adv-x="1443" d="M88 604q0 143 52.5 258t140.5 195t204.5 123t247.5 43q150 0 269.5 -46.5t203.5 -129t129 -195.5t45 -248q0 -66 -18.5 -120t-50 -94t-77.5 -62.5t-101 -22.5q-113 0 -164 117q-45 -63 -107.5 -94t-140.5 -31q-66 0 -123 21.5t-99 60.5t-65.5 94t-23.5 123t24.5 123 t66.5 95t100 62.5t126 22.5q94 0 169 -27.5t142 -85.5v-231q0 -68 24.5 -107.5t80.5 -39.5q63 0 96 54t33 142q0 113 -33 208t-99.5 163.5t-168 106.5t-238.5 38q-115 0 -212 -35.5t-168.5 -103.5t-111.5 -163t-40 -214t40 -216t113.5 -166.5t178 -108.5t235.5 -39 q182 0 332 76l45 -89q-86 -47 -176 -68.5t-203 -21.5q-160 0 -286 46t-213 130t-133 200t-46 257zM522 596q0 -96 58.5 -144.5t144.5 -48.5q39 0 76 11.5t66.5 34t47 58.5t17.5 83v149q-41 31 -91 44.5t-110 13.5q-98 0 -153.5 -53.5t-55.5 -147.5z" />
<glyph unicode="A" horiz-adv-x="1488" d="M82 0l496 1133h348l481 -1133h-119l-82 190h-917l-84 -190h-123zM334 299h821l-303 729h-209z" />
<glyph unicode="B" horiz-adv-x="1327" d="M123 0v1133h711q76 0 137 -19.5t106 -55.5t69.5 -86t24.5 -112q0 -86 -28.5 -141t-83.5 -94q92 -33 144 -110t52 -175q0 -70 -25.5 -131.5t-74.5 -107.5t-119.5 -73.5t-161.5 -27.5h-751zM238 106h628q141 0 208 69t67 161q0 104 -62.5 158.5t-165.5 54.5h-675v-443z M238 653h630q98 0 144.5 55.5t46.5 127.5q0 82 -51.5 136t-188.5 54h-581v-373z" />
<glyph unicode="C" horiz-adv-x="1316" d="M82 567q0 137 47 248t131 186.5t197.5 116.5t247.5 41q174 0 311 -65.5t225 -182.5l-94 -57q-72 94 -184.5 145.5t-264.5 51.5q-115 0 -207 -35t-157.5 -98.5t-100 -152.5t-34.5 -198q0 -106 35.5 -195t102 -154.5t159 -102.5t202.5 -37q156 0 263.5 52t187.5 151l96 -60 q-92 -117 -223 -183.5t-317 -66.5q-135 0 -250 41t-198 119t-129 187.5t-46 248.5z" />
<glyph unicode="D" horiz-adv-x="1357" d="M123 0v1133h547q125 0 235.5 -38t193.5 -110t130 -177.5t47 -240.5t-49 -240.5t-132 -178t-192.5 -110.5t-232.5 -38h-547zM238 104h417q117 0 210 33t160 92.5t101.5 145.5t34.5 192t-34.5 191.5t-101.5 146t-160 92t-210 31.5h-417v-924z" />
<glyph unicode="E" horiz-adv-x="1243" d="M123 0v1133h985v-105h-870v-393h782v-105h-782v-426h903v-104h-1018z" />
<glyph unicode="F" horiz-adv-x="1208" d="M123 0v1133h985v-105h-870v-426h782v-104h-782v-498h-115z" />
<glyph unicode="G" horiz-adv-x="1396" d="M82 567q0 137 48 248t132 186.5t197.5 116.5t247.5 41q186 0 315 -62.5t221 -181.5l-92 -55q-74 92 -186.5 142.5t-264.5 50.5q-115 0 -207 -35t-157.5 -98.5t-101 -153.5t-35.5 -199q0 -106 37.5 -195t104.5 -154.5t159 -102.5t200 -37q166 0 276.5 48t192.5 146v238 l-321 12v94h430v-616h-80l-24 139q-86 -80 -194 -124t-273 -44q-137 0 -252 41t-198 119t-129 187.5t-46 248.5z" />
<glyph unicode="H" horiz-adv-x="1372" d="M123 0v1133h115v-490h897v490h114v-1133h-114v537h-897v-537h-115z" />
<glyph unicode="I" horiz-adv-x="360" d="M123 0v1133h115v-1133h-115z" />
<glyph unicode="J" horiz-adv-x="1222" d="M82 227l96 60q66 -109 173.5 -160t219.5 -51q121 0 201 28.5t127 83t65.5 132t18.5 176.5v637h115v-660q0 -111 -29 -203t-91.5 -158.5t-161.5 -103.5t-241 -37q-164 0 -290.5 63.5t-202.5 192.5z" />
<glyph unicode="K" horiz-adv-x="1294" d="M123 0v1133h115v-476h520l327 476h134l-357 -523l389 -610h-135l-354 553h-524v-553h-115z" />
<glyph unicode="L" horiz-adv-x="1179" d="M123 0v1133h115v-1027h880v-106h-995z" />
<glyph unicode="M" horiz-adv-x="1746" d="M123 0v1133h229l527 -1022h12l506 1022h227v-1133h-115v1034h-41l-520 -1034h-131l-541 1034h-40v-1034h-113z" />
<glyph unicode="N" horiz-adv-x="1396" d="M123 0v1133h143l895 -1000v1000h113v-1133h-146l-892 1004v-1004h-113z" />
<glyph unicode="O" d="M82 565q0 135 47 245t131 187.5t199.5 119.5t251.5 42q135 0 250.5 -42t199.5 -119.5t131 -187.5t47 -245t-47 -244.5t-131 -187.5t-199.5 -120t-250.5 -42t-251 42t-200 120t-131 187.5t-47 244.5zM197 565q0 -117 39.5 -208t109.5 -152.5t163 -94t202 -32.5t203 32.5 t162.5 94t108.5 153t40 207.5q0 117 -40 208t-108.5 152.5t-163 94.5t-202.5 33q-109 0 -202 -33t-163 -94.5t-109.5 -152.5t-39.5 -208z" />
<glyph unicode="P" horiz-adv-x="1302" d="M123 0v1133h657q94 0 176 -31t143.5 -86t96.5 -133t35 -174q0 -98 -36 -176t-97.5 -133.5t-143.5 -85t-174 -29.5h-542v-285h-115zM238 391h542q76 0 137.5 21.5t106.5 63.5t69.5 100.5t24.5 132.5q0 147 -93 232t-245 85h-542v-635z" />
<glyph unicode="Q" d="M82 565q0 135 47 245t131 187.5t199.5 119.5t251.5 42q135 0 250.5 -42t199.5 -119.5t131 -187.5t47 -245q0 -121 -37.5 -221t-105.5 -176l125 -123l-74 -76l-129 127q-82 -59 -185.5 -92t-221.5 -33q-135 0 -251 42t-200 120t-131 187.5t-47 244.5zM197 565 q0 -117 39.5 -208t108.5 -152.5t163 -94t203 -32.5q94 0 178 24.5t149 71.5l-131 133l76 76l135 -135q51 59 79 139t28 178q0 117 -40 208t-108.5 152.5t-163 94.5t-202.5 33q-109 0 -203 -33t-163 -94.5t-108.5 -152.5t-39.5 -208z" />
<glyph unicode="R" horiz-adv-x="1312" d="M123 0v1133h657q94 0 176 -31t143.5 -86t96.5 -133t35 -174q0 -145 -74 -244.5t-190 -145.5l182 -319h-127l-162 285h-622v-285h-115zM238 391h542q76 0 137.5 21.5t106.5 63.5t69.5 100.5t24.5 132.5q0 147 -93 232t-245 85h-542v-635z" />
<glyph unicode="S" horiz-adv-x="1269" d="M82 121l59 94q61 -41 119.5 -67.5t121 -43t131.5 -23.5t153 -7q193 0 301 59.5t108 177.5q0 98 -69.5 147.5t-198.5 63.5l-356 39q-154 16 -248 80t-94 203q0 82 39.5 141t109.5 98t162 57.5t194 18.5q74 0 140.5 -5t130 -19.5t125 -40t125.5 -66.5l-56 -86 q-106 59 -212.5 87t-252.5 28q-115 0 -190.5 -17.5t-120.5 -47t-63.5 -67.5t-18.5 -79q0 -90 65.5 -126t176.5 -48l371 -45q166 -20 260 -98t94 -214q0 -90 -39 -154.5t-111.5 -106.5t-175 -62.5t-229.5 -20.5q-166 0 -296 34t-255 116z" />
<glyph unicode="T" horiz-adv-x="1282" d="M61 1026v107h1160v-107h-523v-1026h-114v1026h-523z" />
<glyph unicode="U" horiz-adv-x="1359" d="M113 553v580h114v-582q0 -104 27 -191.5t82 -150t141 -97t203 -34.5t202 34.5t141 97t83 149.5t27 192v582h114v-580q0 -141 -40 -249.5t-113.5 -182.5t-179 -112t-234.5 -38q-131 0 -235.5 38t-178 112t-113.5 182.5t-40 249.5z" />
<glyph unicode="V" horiz-adv-x="1411" d="M61 1133h123l449 -1022h135l453 1022h129l-508 -1133h-283z" />
<glyph unicode="W" horiz-adv-x="2058" d="M61 1133h125l349 -1022h75l310 1022h208l324 -1022h80l346 1022h119l-393 -1133h-234l-319 1022h-52l-309 -1022h-233z" />
<glyph unicode="X" horiz-adv-x="1325" d="M61 0l437 592l-387 541h137l342 -494h143l350 494h131l-387 -535l437 -598h-140l-381 528h-159l-387 -528h-136z" />
<glyph unicode="Y" horiz-adv-x="1343" d="M61 1133h134l460 -717h39l455 717h133l-553 -850v-283h-115v283z" />
<glyph unicode="Z" horiz-adv-x="1232" d="M82 0v111l897 919l-449 -6h-419v109h1005v-111l-891 -922l498 9h428v-109h-1069z" />
<glyph unicode="[" horiz-adv-x="329" d="M82 -172v1475h248v-103h-137v-1272h137v-100h-248z" />
<glyph unicode="\" horiz-adv-x="606" d="M41 1182l106 32l418 -1255l-106 -33z" />
<glyph unicode="]" horiz-adv-x="329" d="M0 -70h137v1272h-137v101h248v-1475h-248v102z" />
<glyph unicode="^" horiz-adv-x="716" d="M51 889l307 307l308 -307l-60 -66l-248 226l-247 -226z" />
<glyph unicode="_" horiz-adv-x="972" d="M20 -139h932v-105h-932v105z" />
<glyph unicode="`" horiz-adv-x="419" d="M104 1651l107 24l98 -385l-94 -20z" />
<glyph unicode="a" horiz-adv-x="1488" d="M82 0l496 1133h348l481 -1133h-119l-82 190h-917l-84 -190h-123zM334 299h821l-303 729h-209z" />
<glyph unicode="b" horiz-adv-x="1327" d="M123 0v1133h711q76 0 137 -19.5t106 -55.5t69.5 -86t24.5 -112q0 -86 -28.5 -141t-83.5 -94q92 -33 144 -110t52 -175q0 -70 -25.5 -131.5t-74.5 -107.5t-119.5 -73.5t-161.5 -27.5h-751zM238 106h628q141 0 208 69t67 161q0 104 -62.5 158.5t-165.5 54.5h-675v-443z M238 653h630q98 0 144.5 55.5t46.5 127.5q0 82 -51.5 136t-188.5 54h-581v-373z" />
<glyph unicode="c" horiz-adv-x="1316" d="M82 567q0 137 47 248t131 186.5t197.5 116.5t247.5 41q174 0 311 -65.5t225 -182.5l-94 -57q-72 94 -184.5 145.5t-264.5 51.5q-115 0 -207 -35t-157.5 -98.5t-100 -152.5t-34.5 -198q0 -106 35.5 -195t102 -154.5t159 -102.5t202.5 -37q156 0 263.5 52t187.5 151l96 -60 q-92 -117 -223 -183.5t-317 -66.5q-135 0 -250 41t-198 119t-129 187.5t-46 248.5z" />
<glyph unicode="d" horiz-adv-x="1357" d="M123 0v1133h547q125 0 235.5 -38t193.5 -110t130 -177.5t47 -240.5t-49 -240.5t-132 -178t-192.5 -110.5t-232.5 -38h-547zM238 104h417q117 0 210 33t160 92.5t101.5 145.5t34.5 192t-34.5 191.5t-101.5 146t-160 92t-210 31.5h-417v-924z" />
<glyph unicode="e" horiz-adv-x="1243" d="M123 0v1133h985v-105h-870v-393h782v-105h-782v-426h903v-104h-1018z" />
<glyph unicode="f" horiz-adv-x="1208" d="M123 0v1133h985v-105h-870v-426h782v-104h-782v-498h-115z" />
<glyph unicode="g" horiz-adv-x="1396" d="M82 567q0 137 48 248t132 186.5t197.5 116.5t247.5 41q186 0 315 -62.5t221 -181.5l-92 -55q-74 92 -186.5 142.5t-264.5 50.5q-115 0 -207 -35t-157.5 -98.5t-101 -153.5t-35.5 -199q0 -106 37.5 -195t104.5 -154.5t159 -102.5t200 -37q166 0 276.5 48t192.5 146v238 l-321 12v94h430v-616h-80l-24 139q-86 -80 -194 -124t-273 -44q-137 0 -252 41t-198 119t-129 187.5t-46 248.5z" />
<glyph unicode="h" horiz-adv-x="1372" d="M123 0v1133h115v-490h897v490h114v-1133h-114v537h-897v-537h-115z" />
<glyph unicode="i" horiz-adv-x="360" d="M123 0v1133h115v-1133h-115z" />
<glyph unicode="j" horiz-adv-x="1222" d="M82 227l96 60q66 -109 173.5 -160t219.5 -51q121 0 201 28.5t127 83t65.5 132t18.5 176.5v637h115v-660q0 -111 -29 -203t-91.5 -158.5t-161.5 -103.5t-241 -37q-164 0 -290.5 63.5t-202.5 192.5z" />
<glyph unicode="k" horiz-adv-x="1294" d="M123 0v1133h115v-476h520l327 476h134l-357 -523l389 -610h-135l-354 553h-524v-553h-115z" />
<glyph unicode="l" horiz-adv-x="1179" d="M123 0v1133h115v-1027h880v-106h-995z" />
<glyph unicode="m" horiz-adv-x="1746" d="M123 0v1133h229l527 -1022h12l506 1022h227v-1133h-115v1034h-41l-520 -1034h-131l-541 1034h-40v-1034h-113z" />
<glyph unicode="n" horiz-adv-x="1396" d="M123 0v1133h143l895 -1000v1000h113v-1133h-146l-892 1004v-1004h-113z" />
<glyph unicode="o" d="M82 565q0 135 47 245t131 187.5t199.5 119.5t251.5 42q135 0 250.5 -42t199.5 -119.5t131 -187.5t47 -245t-47 -244.5t-131 -187.5t-199.5 -120t-250.5 -42t-251 42t-200 120t-131 187.5t-47 244.5zM197 565q0 -117 39.5 -208t109.5 -152.5t163 -94t202 -32.5t203 32.5 t162.5 94t108.5 153t40 207.5q0 117 -40 208t-108.5 152.5t-163 94.5t-202.5 33q-109 0 -202 -33t-163 -94.5t-109.5 -152.5t-39.5 -208z" />
<glyph unicode="p" horiz-adv-x="1302" d="M123 0v1133h657q94 0 176 -31t143.5 -86t96.5 -133t35 -174q0 -98 -36 -176t-97.5 -133.5t-143.5 -85t-174 -29.5h-542v-285h-115zM238 391h542q76 0 137.5 21.5t106.5 63.5t69.5 100.5t24.5 132.5q0 147 -93 232t-245 85h-542v-635z" />
<glyph unicode="q" d="M82 565q0 135 47 245t131 187.5t199.5 119.5t251.5 42q135 0 250.5 -42t199.5 -119.5t131 -187.5t47 -245q0 -121 -37.5 -221t-105.5 -176l125 -123l-74 -76l-129 127q-82 -59 -185.5 -92t-221.5 -33q-135 0 -251 42t-200 120t-131 187.5t-47 244.5zM197 565 q0 -117 39.5 -208t108.5 -152.5t163 -94t203 -32.5q94 0 178 24.5t149 71.5l-131 133l76 76l135 -135q51 59 79 139t28 178q0 117 -40 208t-108.5 152.5t-163 94.5t-202.5 33q-109 0 -203 -33t-163 -94.5t-108.5 -152.5t-39.5 -208z" />
<glyph unicode="r" horiz-adv-x="1312" d="M123 0v1133h657q94 0 176 -31t143.5 -86t96.5 -133t35 -174q0 -145 -74 -244.5t-190 -145.5l182 -319h-127l-162 285h-622v-285h-115zM238 391h542q76 0 137.5 21.5t106.5 63.5t69.5 100.5t24.5 132.5q0 147 -93 232t-245 85h-542v-635z" />
<glyph unicode="s" horiz-adv-x="1269" d="M82 121l59 94q61 -41 119.5 -67.5t121 -43t131.5 -23.5t153 -7q193 0 301 59.5t108 177.5q0 98 -69.5 147.5t-198.5 63.5l-356 39q-154 16 -248 80t-94 203q0 82 39.5 141t109.5 98t162 57.5t194 18.5q74 0 140.5 -5t130 -19.5t125 -40t125.5 -66.5l-56 -86 q-106 59 -212.5 87t-252.5 28q-115 0 -190.5 -17.5t-120.5 -47t-63.5 -67.5t-18.5 -79q0 -90 65.5 -126t176.5 -48l371 -45q166 -20 260 -98t94 -214q0 -90 -39 -154.5t-111.5 -106.5t-175 -62.5t-229.5 -20.5q-166 0 -296 34t-255 116z" />
<glyph unicode="t" horiz-adv-x="1282" d="M61 1026v107h1160v-107h-523v-1026h-114v1026h-523z" />
<glyph unicode="u" horiz-adv-x="1359" d="M113 553v580h114v-582q0 -104 27 -191.5t82 -150t141 -97t203 -34.5t202 34.5t141 97t83 149.5t27 192v582h114v-580q0 -141 -40 -249.5t-113.5 -182.5t-179 -112t-234.5 -38q-131 0 -235.5 38t-178 112t-113.5 182.5t-40 249.5z" />
<glyph unicode="v" horiz-adv-x="1411" d="M61 1133h123l449 -1022h135l453 1022h129l-508 -1133h-283z" />
<glyph unicode="w" horiz-adv-x="2058" d="M61 1133h125l349 -1022h75l310 1022h208l324 -1022h80l346 1022h119l-393 -1133h-234l-319 1022h-52l-309 -1022h-233z" />
<glyph unicode="x" horiz-adv-x="1325" d="M61 0l437 592l-387 541h137l342 -494h143l350 494h131l-387 -535l437 -598h-140l-381 528h-159l-387 -528h-136z" />
<glyph unicode="y" horiz-adv-x="1343" d="M61 1133h134l460 -717h39l455 717h133l-553 -850v-283h-115v283z" />
<glyph unicode="z" horiz-adv-x="1232" d="M82 0v111l897 919l-449 -6h-419v109h1005v-111l-891 -922l498 9h428v-109h-1069z" />
<glyph unicode="{" horiz-adv-x="473" d="M41 514v102h51q47 0 76 37t29 88v355q0 47 16 85t44 65.5t63.5 42t72.5 14.5h80v-103h-59q-51 0 -77 -24.5t-26 -79.5v-353q0 -47 -19.5 -98t-72.5 -80q53 -29 72.5 -80t19.5 -98v-352q0 -55 25.5 -80t77.5 -25h59v-102h-80q-37 0 -72.5 14.5t-63.5 42t-44 65.5t-16 85 v354q0 51 -29 88t-76 37h-51z" />
<glyph unicode="|" horiz-adv-x="362" d="M123 -70v1270h117v-1270h-117z" />
<glyph unicode="}" horiz-adv-x="473" d="M0 -70h59q51 0 77 25t26 80v352q0 47 19.5 98.5t72.5 79.5q-53 29 -72.5 80t-19.5 98v353q0 55 -25.5 79.5t-77.5 24.5h-59v103h80q37 0 72.5 -14.5t63.5 -42t44 -65.5t16 -85v-355q0 -51 29 -88t76 -37h51v-102h-51q-47 0 -76 -37t-29 -88v-354q0 -47 -16 -85t-44 -65.5 t-63.5 -42t-72.5 -14.5h-80v102z" />
<glyph unicode="~" horiz-adv-x="890" d="M49 544q45 57 102 89t145 32q53 0 92.5 -11t71 -25.5t60 -25.5t65.5 -11q61 0 98 14t74 53l54 -65q-41 -53 -95.5 -78t-132.5 -25q-41 0 -74.5 12.5t-67.5 26.5t-69 26.5t-73 12.5q-72 0 -116 -25.5t-73 -62.5z" />
<glyph unicode="&#xa1;" horiz-adv-x="397" d="M82 1039q0 49 33.5 81.5t82.5 32.5t83 -32.5t34 -81.5t-34 -83t-83 -34t-82.5 34t-33.5 83zM143 -159v966h111v-966h-111z" />
<glyph unicode="&#xa2;" horiz-adv-x="1273" d="M82 545q0 127 41 228t114.5 175t174 116t219.5 50l10 139h92l8 -139q147 -10 263 -72.5t194 -164.5l-90 -56q-72 92 -178.5 140.5t-251.5 48.5q-111 0 -200 -33t-152.5 -94.5t-97 -147.5t-33.5 -190q0 -102 34.5 -188.5t99 -149t152.5 -97t197 -34.5q150 0 252 50 t180 142l92 -57q-80 -102 -192.5 -163.5t-266.5 -72.5l-6 -165h-94l-10 163q-121 8 -222.5 51.5t-174 117t-113.5 176t-41 227.5z" />
<glyph unicode="&#xa6;" horiz-adv-x="362" d="M123 -70v588h117v-588h-117zM123 612v588h117v-588h-117z" />
<glyph unicode="&#xa7;" horiz-adv-x="1173" d="M82 602q0 98 58.5 180t160.5 127q-70 41 -98.5 97.5t-28.5 121.5q0 72 39 124.5t101.5 86t139 50t152.5 16.5q104 0 197.5 -21.5t179.5 -68.5l-49 -92q-72 37 -145.5 58.5t-176.5 21.5q-328 0 -327 -181q0 -72 48 -110.5t148 -55.5l226 -34q84 -12 154.5 -40t121.5 -71 t80 -102.5t29 -135.5q0 -88 -52.5 -165.5t-165.5 -131.5q78 -37 113 -92t35 -149q0 -74 -36 -128t-98.5 -90t-147.5 -52.5t-183 -16.5q-139 0 -237.5 21.5t-192.5 74.5l47 99q45 -25 89 -42.5t90 -29.5t97.5 -17.5t110.5 -5.5q182 0 267 55.5t85 139.5q0 80 -46 116t-148 52 l-248 41q-86 14 -156.5 40.5t-123 68.5t-81 101.5t-28.5 139.5zM201 614q0 -111 65.5 -170t173.5 -75l312 -52q117 41 170 103.5t53 144.5q0 98 -58.5 159.5t-185.5 80.5l-338 51q-98 -39 -145 -103.5t-47 -138.5z" />
<glyph unicode="&#xa8;" horiz-adv-x="909" d="M102 1399q0 43 31 74.5t78 31.5t79 -31.5t32 -74.5t-32 -75t-79 -32t-78 32t-31 75zM588 1399q0 43 30.5 74.5t77.5 31.5t79 -31.5t32 -74.5t-32 -75t-79 -32t-77.5 32t-30.5 75z" />
<glyph unicode="&#xa9;" horiz-adv-x="1482" d="M51 596q0 147 54.5 270t147.5 210t219 135.5t269 48.5t268.5 -48.5t219.5 -135.5t148.5 -210t54.5 -270t-54.5 -270t-148.5 -210t-219 -135.5t-269 -48.5q-143 0 -269 48.5t-219 135.5t-147.5 210t-54.5 270zM166 596q0 -123 43 -225.5t120 -176t182 -113.5t230 -40 t231.5 40t183.5 113.5t120 176t43 225.5t-43 225.5t-120 176t-183.5 113.5t-231.5 40t-230 -40t-182 -113.5t-120 -176t-43 -225.5zM381 598q0 80 29.5 144.5t80 109.5t118 68.5t143.5 23.5q190 0 303 -131l-70 -72q-47 53 -101.5 76t-131.5 23q-121 0 -188.5 -62.5 t-67.5 -179.5q0 -111 67.5 -175.5t188.5 -64.5q76 0 132 22.5t103 76.5l68 -74q-63 -66 -136 -97.5t-167 -31.5q-76 0 -143.5 23.5t-118 67.5t-80 108.5t-29.5 144.5z" />
<glyph unicode="&#xab;" horiz-adv-x="733" d="M43 582l332 336l63 -62l-235 -274l235 -275l-63 -61zM309 582l312 315l63 -61l-215 -254l215 -254l-63 -62z" />
<glyph unicode="&#xad;" horiz-adv-x="808" d="M82 528v105h645v-105h-645z" />
<glyph unicode="&#xae;" horiz-adv-x="952" d="M61 850q0 86 32 159.5t88.5 128t132 84t161.5 29.5t161 -29.5t132 -84t90 -128t33 -159.5t-32 -159t-88 -127t-132 -83.5t-164 -29.5q-86 0 -161.5 29.5t-132 83.5t-88.5 127t-32 159zM158 850q0 -66 24.5 -122t67.5 -97t100.5 -64.5t124.5 -23.5q68 0 126 23.5t101 64.5 t68 97t25 122t-26 122t-69 97t-101 64.5t-124 23.5q-68 0 -125 -23.5t-100 -64.5t-67.5 -97t-24.5 -122zM303 674v368h219q72 0 116 -40.5t44 -96.5q0 -35 -19.5 -67.5t-60.5 -53.5l72 -110h-99l-55 94h-129v-94h-88zM391 846h141q33 0 47.5 18.5t14.5 42.5q0 25 -15.5 41.5 t-46.5 16.5h-141v-119z" />
<glyph unicode="&#xaf;" horiz-adv-x="849" d="M82 1323v102h686v-102h-686z" />
<glyph unicode="&#xb0;" horiz-adv-x="696" d="M61 883q0 61 22.5 111t62.5 85t91.5 54.5t110.5 19.5t111.5 -19.5t91.5 -54.5t61.5 -85t22.5 -111t-22.5 -111.5t-61.5 -85.5t-91.5 -54.5t-111.5 -19.5t-110.5 19.5t-91.5 54.5t-62.5 85t-22.5 112zM166 883q0 -80 50 -128t132 -48t130 48t48 128t-48 128t-130 48 q-84 0 -133 -48t-49 -128z" />
<glyph unicode="&#xb1;" horiz-adv-x="829" d="M82 676v104h278v271h105v-271h283v-104h-283v-270h-105v270h-278zM92 199v104h645v-104h-645z" />
<glyph unicode="&#xb4;" horiz-adv-x="419" d="M104 1290l99 385l106 -24l-110 -381z" />
<glyph unicode="&#xb6;" horiz-adv-x="1026" d="M92 1032q0 66 25.5 121t70.5 95t102.5 62.5t123.5 22.5h553l4 -78l-197 -49v-1206h-115v1217h-131v-1217h-114v729q-66 0 -123.5 22.5t-102.5 62.5t-70.5 95.5t-25.5 122.5z" />
<glyph unicode="&#xb7;" horiz-adv-x="397" d="M82 612q0 49 34 83t83 34t82.5 -33.5t33.5 -83.5q0 -49 -33.5 -81.5t-82.5 -32.5t-83 32.5t-34 81.5z" />
<glyph unicode="&#xb8;" horiz-adv-x="487" d="M29 -426l30 88q35 -16 70 -23.5t80 -7.5q72 0 109.5 26t37.5 73q0 78 -125 77h-92l-12 13l20 198l107 -10v-106q213 -10 213 -172q0 -51 -21.5 -88t-57.5 -61.5t-84 -36t-101 -11.5q-98 0 -174 41z" />
<glyph unicode="&#xbb;" horiz-adv-x="733" d="M49 328l215 254l-215 254l64 61l311 -315l-311 -316zM295 307l235 275l-235 274l63 62l332 -336l-332 -336z" />
<glyph unicode="&#xbf;" horiz-adv-x="1177" d="M139 181q0 117 64.5 212t204.5 136l98 26q66 18 87 54.5t21 77.5v120h113v-133q0 -59 -40 -118.5t-122 -84.5l-90 -26q-127 -37 -174 -104.5t-47 -165.5q0 -135 91 -207t290 -72q154 0 265.5 38t203.5 116l57 -86q-113 -98 -246 -136t-278 -38q-111 0 -203 23.5 t-157.5 70.5t-101.5 121.5t-36 175.5zM553 1039q0 49 34 81.5t83 32.5t82.5 -32.5t33.5 -81.5t-33.5 -83t-82.5 -34t-83 34t-34 83z" />
<glyph unicode="&#xc0;" horiz-adv-x="1488" d="M82 0l496 1133h348l481 -1133h-119l-82 190h-917l-84 -190h-123zM334 299h821l-303 729h-209zM600 1651l107 24l98 -385l-94 -20z" />
<glyph unicode="&#xc1;" horiz-adv-x="1488" d="M82 0l496 1133h348l481 -1133h-119l-82 190h-917l-84 -190h-123zM334 299h821l-303 729h-209zM712 1292l99 385l106 -24l-110 -381z" />
<glyph unicode="&#xc2;" horiz-adv-x="1488" d="M82 0l496 1133h348l481 -1133h-119l-82 190h-917l-84 -190h-123zM334 299h821l-303 729h-209zM436 1307l307 225l308 -225l-50 -62l-258 160l-258 -160z" />
<glyph unicode="&#xc3;" horiz-adv-x="1488" d="M82 0l496 1133h348l481 -1133h-119l-82 190h-917l-84 -190h-123zM334 299h821l-303 729h-209zM363 1321q45 57 102 89t145 32q53 0 92.5 -11t71 -25.5t60 -25.5t65.5 -11q61 0 98 14t74 53l54 -65q-41 -53 -95.5 -78t-132.5 -25q-41 0 -74.5 12.5t-67.5 26.5t-69 26.5 t-73 12.5q-72 0 -116 -25.5t-73 -62.5z" />
<glyph unicode="&#xc4;" horiz-adv-x="1488" d="M82 0l496 1133h348l481 -1133h-119l-82 190h-917l-84 -190h-123zM334 299h821l-303 729h-209zM391 1399q0 43 31 74.5t78 31.5t79 -31.5t32 -74.5t-32 -75t-79 -32t-78 32t-31 75zM877 1399q0 43 30.5 74.5t77.5 31.5t79 -31.5t32 -74.5t-32 -75t-79 -32t-77.5 32 t-30.5 75z" />
<glyph unicode="&#xc5;" horiz-adv-x="1488" d="M82 0l496 1133h348l481 -1133h-119l-82 190h-917l-84 -190h-123zM334 299h821l-303 729h-209zM475 1487q0 57 21.5 103t58 79t86 49.5t102.5 16.5t102.5 -16.5t86 -49.5t58 -79t21.5 -103q0 -59 -21.5 -104.5t-58 -78t-86 -49t-102.5 -16.5t-102.5 16.5t-86 49t-58 77.5 t-21.5 105zM579 1487q0 -72 46 -114t118 -42t118 42t46 114t-46 113.5t-118 41.5t-118 -41.5t-46 -113.5z" />
<glyph unicode="&#xc6;" horiz-adv-x="2267" d="M18 0l764 1133h1340v-105h-875v-393h787v-105h-787v-426h918v-104h-1032v223h-824l-155 -223h-136zM391 336h742v692h-295z" />
<glyph unicode="&#xc7;" horiz-adv-x="1316" d="M82 567q0 137 47 248t131 186.5t197.5 116.5t247.5 41q174 0 311 -65.5t225 -182.5l-94 -57q-72 94 -184.5 145.5t-264.5 51.5q-115 0 -207 -35t-157.5 -98.5t-100 -152.5t-34.5 -198q0 -106 35.5 -195t102 -154.5t159 -102.5t202.5 -37q156 0 263.5 52t187.5 151l96 -60 q-86 -111 -209 -175t-291 -73v-71q213 -10 213 -172q0 -51 -21.5 -88t-57 -61.5t-83.5 -36t-102 -11.5q-98 0 -174 41l31 88q35 -16 69.5 -23.5t79.5 -7.5q72 0 110 26t38 73q0 78 -125 77h-92l-13 13l17 155q-123 10 -224.5 55.5t-174 122t-113.5 181t-41 233.5z" />
<glyph unicode="&#xc8;" horiz-adv-x="1243" d="M123 0v1133h985v-105h-870v-393h782v-105h-782v-426h903v-104h-1018zM510 1651l107 24l98 -385l-94 -20z" />
<glyph unicode="&#xc9;" horiz-adv-x="1243" d="M123 0v1133h985v-105h-870v-393h782v-105h-782v-426h903v-104h-1018zM589 1290l99 385l106 -24l-110 -381z" />
<glyph unicode="&#xca;" horiz-adv-x="1243" d="M123 0v1133h985v-105h-870v-393h782v-105h-782v-426h903v-104h-1018zM332 1307l307 225l308 -225l-50 -62l-258 160l-258 -160z" />
<glyph unicode="&#xcb;" horiz-adv-x="1243" d="M123 0v1133h985v-105h-870v-393h782v-105h-782v-426h903v-104h-1018zM262 1399q0 43 31 74.5t78 31.5t79 -31.5t32 -74.5t-32 -75t-79 -32t-78 32t-31 75zM748 1399q0 43 30.5 74.5t77.5 31.5t79 -31.5t32 -74.5t-32 -75t-79 -32t-77.5 32t-30.5 75z" />
<glyph unicode="&#xcc;" horiz-adv-x="360" d="M28 1651l107 24l98 -385l-94 -20zM123 0v1133h115v-1133h-115z" />
<glyph unicode="&#xcd;" horiz-adv-x="360" d="M123 0v1133h115v-1133h-115zM131 1290l99 385l106 -24l-110 -381z" />
<glyph unicode="&#xce;" horiz-adv-x="360" d="M-125 1307l307 225l308 -225l-50 -62l-258 160l-258 -160zM123 0v1133h115v-1133h-115z" />
<glyph unicode="&#xcf;" horiz-adv-x="360" d="M-170 1399q0 43 31 74.5t78 31.5t79 -31.5t32 -74.5t-32 -75t-79 -32t-78 32t-31 75zM123 0v1133h115v-1133h-115zM316 1399q0 43 30.5 74.5t77.5 31.5t79 -31.5t32 -74.5t-32 -75t-79 -32t-77.5 32t-30.5 75z" />
<glyph unicode="&#xd0;" horiz-adv-x="1380" d="M20 543v104h125v486h547q125 0 235.5 -38t193.5 -110t130 -177.5t47 -240.5t-49 -240.5t-132 -178t-192.5 -110.5t-232.5 -38h-547v543h-125zM260 104h418q117 0 210 33t159.5 92.5t101.5 145.5t35 192t-35 191.5t-101.5 146t-159.5 92t-210 31.5h-418v-381h356v-104 h-356v-439z" />
<glyph unicode="&#xd1;" horiz-adv-x="1396" d="M123 0v1133h143l895 -1000v1000h113v-1133h-146l-892 1004v-1004h-113zM308 1341q45 57 102 89t145 32q53 0 92.5 -11t71 -25.5t60 -25.5t65.5 -11q61 0 98 14t74 53l54 -65q-41 -53 -95.5 -78t-132.5 -25q-41 0 -74.5 12.5t-67.5 26.5t-69 26.5t-73 12.5 q-72 0 -116 -25.5t-73 -62.5z" />
<glyph unicode="&#xd2;" d="M82 565q0 135 47 245t131 187.5t199.5 119.5t251.5 42q135 0 250.5 -42t199.5 -119.5t131 -187.5t47 -245t-47 -244.5t-131 -187.5t-199.5 -120t-250.5 -42t-251 42t-200 120t-131 187.5t-47 244.5zM197 565q0 -117 39.5 -208t109.5 -152.5t163 -94t202 -32.5t203 32.5 t162.5 94t108.5 153t40 207.5q0 117 -40 208t-108.5 152.5t-163 94.5t-202.5 33q-109 0 -202 -33t-163 -94.5t-109.5 -152.5t-39.5 -208zM532 1651l107 24l98 -385l-94 -20z" />
<glyph unicode="&#xd3;" d="M82 565q0 135 47 245t131 187.5t199.5 119.5t251.5 42q135 0 250.5 -42t199.5 -119.5t131 -187.5t47 -245t-47 -244.5t-131 -187.5t-199.5 -120t-250.5 -42t-251 42t-200 120t-131 187.5t-47 244.5zM197 565q0 -117 39.5 -208t109.5 -152.5t163 -94t202 -32.5t203 32.5 t162.5 94t108.5 153t40 207.5q0 117 -40 208t-108.5 152.5t-163 94.5t-202.5 33q-109 0 -202 -33t-163 -94.5t-109.5 -152.5t-39.5 -208zM675 1290l99 385l106 -24l-110 -381z" />
<glyph unicode="&#xd4;" d="M82 565q0 135 47 245t131 187.5t199.5 119.5t251.5 42q135 0 250.5 -42t199.5 -119.5t131 -187.5t47 -245t-47 -244.5t-131 -187.5t-199.5 -120t-250.5 -42t-251 42t-200 120t-131 187.5t-47 244.5zM197 565q0 -117 39.5 -208t109.5 -152.5t163 -94t202 -32.5t203 32.5 t162.5 94t108.5 153t40 207.5q0 117 -40 208t-108.5 152.5t-163 94.5t-202.5 33q-109 0 -202 -33t-163 -94.5t-109.5 -152.5t-39.5 -208zM403 1307l307 225l308 -225l-50 -62l-258 160l-258 -160z" />
<glyph unicode="&#xd5;" d="M82 565q0 135 47 245t131 187.5t199.5 119.5t251.5 42q135 0 250.5 -42t199.5 -119.5t131 -187.5t47 -245t-47 -244.5t-131 -187.5t-199.5 -120t-250.5 -42t-251 42t-200 120t-131 187.5t-47 244.5zM197 565q0 -117 39.5 -208t109.5 -152.5t163 -94t202 -32.5t203 32.5 t162.5 94t108.5 153t40 207.5q0 117 -40 208t-108.5 152.5t-163 94.5t-202.5 33q-109 0 -202 -33t-163 -94.5t-109.5 -152.5t-39.5 -208zM330 1341q45 57 102 89t145 32q53 0 92.5 -11t71 -25.5t60 -25.5t65.5 -11q61 0 98 14t74 53l54 -65q-41 -53 -95.5 -78t-132.5 -25 q-41 0 -74.5 12.5t-67.5 26.5t-69 26.5t-73 12.5q-72 0 -116 -25.5t-73 -62.5z" />
<glyph unicode="&#xd6;" d="M82 565q0 135 47 245t131 187.5t199.5 119.5t251.5 42q135 0 250.5 -42t199.5 -119.5t131 -187.5t47 -245t-47 -244.5t-131 -187.5t-199.5 -120t-250.5 -42t-251 42t-200 120t-131 187.5t-47 244.5zM197 565q0 -117 39.5 -208t109.5 -152.5t163 -94t202 -32.5t203 32.5 t162.5 94t108.5 153t40 207.5q0 117 -40 208t-108.5 152.5t-163 94.5t-202.5 33q-109 0 -202 -33t-163 -94.5t-109.5 -152.5t-39.5 -208zM358 1399q0 43 31 74.5t78 31.5t79 -31.5t32 -74.5t-32 -75t-79 -32t-78 32t-31 75zM844 1399q0 43 30.5 74.5t77.5 31.5t79 -31.5 t32 -74.5t-32 -75t-79 -32t-77.5 32t-30.5 75z" />
<glyph unicode="&#xd7;" horiz-adv-x="829" d="M141 778l74 74l199 -199l200 201l74 -74l-201 -200l199 -199l-74 -74l-198 199l-197 -197l-74 74l197 197z" />
<glyph unicode="&#xd8;" d="M82 565q0 135 47 245t131 187.5t199.5 119.5t251.5 42q70 0 134 -11t124 -34l51 90l98 -55l-49 -84q125 -76 197.5 -204t72.5 -296q0 -135 -47 -244.5t-131 -187.5t-199.5 -120t-250.5 -42q-66 0 -127.5 10.5t-116.5 28.5l-51 -92l-99 55l48 82q-131 74 -207 205t-76 305 zM197 565q0 -147 60 -251.5t163 -163.5l493 868q-94 35 -202 35q-109 0 -202 -33t-163 -94.5t-109.5 -152.5t-39.5 -208zM522 106q90 -29 189 -28q109 0 203 32.5t162.5 94t108.5 153t40 207.5q0 141 -56.5 242.5t-152.5 163.5z" />
<glyph unicode="&#xd9;" horiz-adv-x="1359" d="M113 553v580h114v-582q0 -104 27 -191.5t82 -150t141 -97t203 -34.5t202 34.5t141 97t83 149.5t27 192v582h114v-580q0 -141 -40 -249.5t-113.5 -182.5t-179 -112t-234.5 -38q-131 0 -235.5 38t-178 112t-113.5 182.5t-40 249.5zM520 1651l107 24l98 -385l-94 -20z" />
<glyph unicode="&#xda;" horiz-adv-x="1359" d="M113 553v580h114v-582q0 -104 27 -191.5t82 -150t141 -97t203 -34.5t202 34.5t141 97t83 149.5t27 192v582h114v-580q0 -141 -40 -249.5t-113.5 -182.5t-179 -112t-234.5 -38q-131 0 -235.5 38t-178 112t-113.5 182.5t-40 249.5zM616 1286l99 385l106 -24l-110 -381z" />
<glyph unicode="&#xdb;" horiz-adv-x="1359" d="M113 553v580h114v-582q0 -104 27 -191.5t82 -150t141 -97t203 -34.5t202 34.5t141 97t83 149.5t27 192v582h114v-580q0 -141 -40 -249.5t-113.5 -182.5t-179 -112t-234.5 -38q-131 0 -235.5 38t-178 112t-113.5 182.5t-40 249.5zM373 1307l307 225l308 -225l-50 -62 l-258 160l-258 -160z" />
<glyph unicode="&#xdc;" horiz-adv-x="1359" d="M113 553v580h114v-582q0 -104 27 -191.5t82 -150t141 -97t203 -34.5t202 34.5t141 97t83 149.5t27 192v582h114v-580q0 -141 -40 -249.5t-113.5 -182.5t-179 -112t-234.5 -38q-131 0 -235.5 38t-178 112t-113.5 182.5t-40 249.5zM327 1399q0 43 31 74.5t78 31.5t79 -31.5 t32 -74.5t-32 -75t-79 -32t-78 32t-31 75zM813 1399q0 43 30.5 74.5t77.5 31.5t79 -31.5t32 -74.5t-32 -75t-79 -32t-77.5 32t-30.5 75z" />
<glyph unicode="&#xdd;" horiz-adv-x="1343" d="M61 1133h134l460 -717h39l455 717h133l-553 -850v-283h-115v283zM641 1290l99 385l106 -24l-110 -381z" />
<glyph unicode="&#xde;" horiz-adv-x="1228" d="M123 0v1133h115v-154h495q86 0 162 -32t131 -87t88 -131t33 -164t-33 -162.5t-88 -130t-131 -86t-162 -30.5h-495v-156h-115zM238 262h485q78 0 136.5 24.5t96 65.5t57 96.5t19.5 116.5t-19.5 117.5t-57 98.5t-96 66.5t-136.5 24.5h-485v-610z" />
<glyph unicode="&#xe0;" horiz-adv-x="1488" d="M82 0l496 1133h348l481 -1133h-119l-82 190h-917l-84 -190h-123zM334 299h821l-303 729h-209zM600 1651l107 24l98 -385l-94 -20z" />
<glyph unicode="&#xe1;" horiz-adv-x="1488" d="M82 0l496 1133h348l481 -1133h-119l-82 190h-917l-84 -190h-123zM334 299h821l-303 729h-209zM712 1292l99 385l106 -24l-110 -381z" />
<glyph unicode="&#xe2;" horiz-adv-x="1488" d="M82 0l496 1133h348l481 -1133h-119l-82 190h-917l-84 -190h-123zM334 299h821l-303 729h-209zM436 1307l307 225l308 -225l-50 -62l-258 160l-258 -160z" />
<glyph unicode="&#xe3;" horiz-adv-x="1488" d="M82 0l496 1133h348l481 -1133h-119l-82 190h-917l-84 -190h-123zM334 299h821l-303 729h-209zM363 1341q45 57 102 89t145 32q53 0 92.5 -11t71 -25.5t60 -25.5t65.5 -11q61 0 98 14t74 53l54 -65q-41 -53 -95.5 -78t-132.5 -25q-41 0 -74.5 12.5t-67.5 26.5t-69 26.5 t-73 12.5q-72 0 -116 -25.5t-73 -62.5z" />
<glyph unicode="&#xe4;" horiz-adv-x="1488" d="M82 0l496 1133h348l481 -1133h-119l-82 190h-917l-84 -190h-123zM334 299h821l-303 729h-209zM391 1399q0 43 31 74.5t78 31.5t79 -31.5t32 -74.5t-32 -75t-79 -32t-78 32t-31 75zM877 1399q0 43 30.5 74.5t77.5 31.5t79 -31.5t32 -74.5t-32 -75t-79 -32t-77.5 32 t-30.5 75z" />
<glyph unicode="&#xe5;" horiz-adv-x="1488" d="M82 0l496 1133h348l481 -1133h-119l-82 190h-917l-84 -190h-123zM334 299h821l-303 729h-209zM475 1487q0 57 21.5 103t58 79t86 49.5t102.5 16.5t102.5 -16.5t86 -49.5t58 -79t21.5 -103q0 -59 -21.5 -104.5t-58 -78t-86 -49t-102.5 -16.5t-102.5 16.5t-86 49t-58 77.5 t-21.5 105zM579 1487q0 -72 46 -114t118 -42t118 42t46 114t-46 113.5t-118 41.5t-118 -41.5t-46 -113.5z" />
<glyph unicode="&#xe6;" horiz-adv-x="2267" d="M18 0l764 1133h1340v-105h-875v-393h787v-105h-787v-426h918v-104h-1032v223h-824l-155 -223h-136zM391 336h742v692h-295z" />
<glyph unicode="&#xe7;" horiz-adv-x="1316" d="M82 567q0 137 47 248t131 186.5t197.5 116.5t247.5 41q174 0 311 -65.5t225 -182.5l-94 -57q-72 94 -184.5 145.5t-264.5 51.5q-115 0 -207 -35t-157.5 -98.5t-100 -152.5t-34.5 -198q0 -106 35.5 -195t102 -154.5t159 -102.5t202.5 -37q156 0 263.5 52t187.5 151l96 -60 q-86 -111 -209 -175t-291 -73v-71q213 -10 213 -172q0 -51 -21.5 -88t-57 -61.5t-83.5 -36t-102 -11.5q-98 0 -174 41l31 88q35 -16 69.5 -23.5t79.5 -7.5q72 0 110 26t38 73q0 78 -125 77h-92l-13 13l17 155q-123 10 -224.5 55.5t-174 122t-113.5 181t-41 233.5z" />
<glyph unicode="&#xe8;" horiz-adv-x="1243" d="M123 0v1133h985v-105h-870v-393h782v-105h-782v-426h903v-104h-1018zM510 1651l107 24l98 -385l-94 -20z" />
<glyph unicode="&#xe9;" horiz-adv-x="1243" d="M123 0v1133h985v-105h-870v-393h782v-105h-782v-426h903v-104h-1018zM589 1290l99 385l106 -24l-110 -381z" />
<glyph unicode="&#xea;" horiz-adv-x="1243" d="M123 0v1133h985v-105h-870v-393h782v-105h-782v-426h903v-104h-1018zM332 1307l307 225l308 -225l-50 -62l-258 160l-258 -160z" />
<glyph unicode="&#xeb;" horiz-adv-x="1243" d="M123 0v1133h985v-105h-870v-393h782v-105h-782v-426h903v-104h-1018zM262 1399q0 43 31 74.5t78 31.5t79 -31.5t32 -74.5t-32 -75t-79 -32t-78 32t-31 75zM748 1399q0 43 30.5 74.5t77.5 31.5t79 -31.5t32 -74.5t-32 -75t-79 -32t-77.5 32t-30.5 75z" />
<glyph unicode="&#xec;" horiz-adv-x="360" d="M28 1651l107 24l98 -385l-94 -20zM123 0v1133h115v-1133h-115z" />
<glyph unicode="&#xed;" horiz-adv-x="360" d="M123 0v1133h115v-1133h-115zM131 1290l99 385l106 -24l-110 -381z" />
<glyph unicode="&#xee;" horiz-adv-x="360" d="M-125 1307l307 225l308 -225l-50 -62l-258 160l-258 -160zM123 0v1133h115v-1133h-115z" />
<glyph unicode="&#xef;" horiz-adv-x="360" d="M-170 1399q0 43 31 74.5t78 31.5t79 -31.5t32 -74.5t-32 -75t-79 -32t-78 32t-31 75zM123 0v1133h115v-1133h-115zM316 1399q0 43 30.5 74.5t77.5 31.5t79 -31.5t32 -74.5t-32 -75t-79 -32t-77.5 32t-30.5 75z" />
<glyph unicode="&#xf0;" horiz-adv-x="1380" d="M20 543v104h125v486h547q125 0 235.5 -38t193.5 -110t130 -177.5t47 -240.5t-49 -240.5t-132 -178t-192.5 -110.5t-232.5 -38h-547v543h-125zM260 104h418q117 0 210 33t159.5 92.5t101.5 145.5t35 192t-35 191.5t-101.5 146t-159.5 92t-210 31.5h-418v-381h356v-104 h-356v-439z" />
<glyph unicode="&#xf1;" horiz-adv-x="1396" d="M123 0v1133h143l895 -1000v1000h113v-1133h-146l-892 1004v-1004h-113zM318 1341q45 57 102 89t145 32q53 0 92.5 -11t71 -25.5t60 -25.5t65.5 -11q61 0 98 14t74 53l54 -65q-41 -53 -95.5 -78t-132.5 -25q-41 0 -74.5 12.5t-67.5 26.5t-69 26.5t-73 12.5 q-72 0 -116 -25.5t-73 -62.5z" />
<glyph unicode="&#xf2;" d="M82 565q0 135 47 245t131 187.5t199.5 119.5t251.5 42q135 0 250.5 -42t199.5 -119.5t131 -187.5t47 -245t-47 -244.5t-131 -187.5t-199.5 -120t-250.5 -42t-251 42t-200 120t-131 187.5t-47 244.5zM197 565q0 -117 39.5 -208t109.5 -152.5t163 -94t202 -32.5t203 32.5 t162.5 94t108.5 153t40 207.5q0 117 -40 208t-108.5 152.5t-163 94.5t-202.5 33q-109 0 -202 -33t-163 -94.5t-109.5 -152.5t-39.5 -208zM534 1651l107 24l98 -385l-94 -20z" />
<glyph unicode="&#xf3;" d="M82 565q0 135 47 245t131 187.5t199.5 119.5t251.5 42q135 0 250.5 -42t199.5 -119.5t131 -187.5t47 -245t-47 -244.5t-131 -187.5t-199.5 -120t-250.5 -42t-251 42t-200 120t-131 187.5t-47 244.5zM197 565q0 -117 39.5 -208t109.5 -152.5t163 -94t202 -32.5t203 32.5 t162.5 94t108.5 153t40 207.5q0 117 -40 208t-108.5 152.5t-163 94.5t-202.5 33q-109 0 -202 -33t-163 -94.5t-109.5 -152.5t-39.5 -208zM682 1290l99 385l106 -24l-110 -381z" />
<glyph unicode="&#xf4;" d="M82 565q0 135 47 245t131 187.5t199.5 119.5t251.5 42q135 0 250.5 -42t199.5 -119.5t131 -187.5t47 -245t-47 -244.5t-131 -187.5t-199.5 -120t-250.5 -42t-251 42t-200 120t-131 187.5t-47 244.5zM197 565q0 -117 39.5 -208t109.5 -152.5t163 -94t202 -32.5t203 32.5 t162.5 94t108.5 153t40 207.5q0 117 -40 208t-108.5 152.5t-163 94.5t-202.5 33q-109 0 -202 -33t-163 -94.5t-109.5 -152.5t-39.5 -208zM403 1307l307 225l308 -225l-50 -62l-258 160l-258 -160z" />
<glyph unicode="&#xf5;" d="M82 565q0 135 47 245t131 187.5t199.5 119.5t251.5 42q135 0 250.5 -42t199.5 -119.5t131 -187.5t47 -245t-47 -244.5t-131 -187.5t-199.5 -120t-250.5 -42t-251 42t-200 120t-131 187.5t-47 244.5zM197 565q0 -117 39.5 -208t109.5 -152.5t163 -94t202 -32.5t203 32.5 t162.5 94t108.5 153t40 207.5q0 117 -40 208t-108.5 152.5t-163 94.5t-202.5 33q-109 0 -202 -33t-163 -94.5t-109.5 -152.5t-39.5 -208zM330 1355q45 57 102 89t145 32q53 0 92.5 -11t71 -25.5t60 -25.5t65.5 -11q61 0 98 14t74 53l54 -65q-41 -53 -95.5 -78t-132.5 -25 q-41 0 -74.5 12.5t-67.5 26.5t-69 26.5t-73 12.5q-72 0 -116 -25.5t-73 -62.5z" />
<glyph unicode="&#xf6;" d="M82 565q0 135 47 245t131 187.5t199.5 119.5t251.5 42q135 0 250.5 -42t199.5 -119.5t131 -187.5t47 -245t-47 -244.5t-131 -187.5t-199.5 -120t-250.5 -42t-251 42t-200 120t-131 187.5t-47 244.5zM197 565q0 -117 39.5 -208t109.5 -152.5t163 -94t202 -32.5t203 32.5 t162.5 94t108.5 153t40 207.5q0 117 -40 208t-108.5 152.5t-163 94.5t-202.5 33q-109 0 -202 -33t-163 -94.5t-109.5 -152.5t-39.5 -208zM358 1399q0 43 31 74.5t78 31.5t79 -31.5t32 -74.5t-32 -75t-79 -32t-78 32t-31 75zM844 1399q0 43 30.5 74.5t77.5 31.5t79 -31.5 t32 -74.5t-32 -75t-79 -32t-77.5 32t-30.5 75z" />
<glyph unicode="&#xf7;" horiz-adv-x="811" d="M82 528v105h647v-105h-647zM289 274q0 49 34 83t83 34t82.5 -33.5t33.5 -83.5q0 -49 -33.5 -81.5t-82.5 -32.5t-83 32.5t-34 81.5zM289 885q0 49 34 82.5t83 33.5t82.5 -33.5t33.5 -82.5t-33.5 -82t-82.5 -33t-83 33t-34 82z" />
<glyph unicode="&#xf8;" d="M82 565q0 135 47 245t131 187.5t199.5 119.5t251.5 42q70 0 134 -11t124 -34l51 90l98 -55l-49 -84q125 -76 197.5 -204t72.5 -296q0 -135 -47 -244.5t-131 -187.5t-199.5 -120t-250.5 -42q-66 0 -127.5 10.5t-116.5 28.5l-51 -92l-99 55l48 82q-131 74 -207 205t-76 305 zM197 565q0 -147 60 -251.5t163 -163.5l493 868q-94 35 -202 35q-109 0 -202 -33t-163 -94.5t-109.5 -152.5t-39.5 -208zM522 106q90 -29 189 -28q109 0 203 32.5t162.5 94t108.5 153t40 207.5q0 141 -56.5 242.5t-152.5 163.5z" />
<glyph unicode="&#xf9;" horiz-adv-x="1359" d="M113 553v580h114v-582q0 -104 27 -191.5t82 -150t141 -97t203 -34.5t202 34.5t141 97t83 149.5t27 192v582h114v-580q0 -141 -40 -249.5t-113.5 -182.5t-179 -112t-234.5 -38q-131 0 -235.5 38t-178 112t-113.5 182.5t-40 249.5zM528 1651l107 24l98 -385l-94 -20z" />
<glyph unicode="&#xfa;" horiz-adv-x="1359" d="M113 553v580h114v-582q0 -104 27 -191.5t82 -150t141 -97t203 -34.5t202 34.5t141 97t83 149.5t27 192v582h114v-580q0 -141 -40 -249.5t-113.5 -182.5t-179 -112t-234.5 -38q-131 0 -235.5 38t-178 112t-113.5 182.5t-40 249.5zM614 1290l99 385l106 -24l-110 -381z" />
<glyph unicode="&#xfb;" horiz-adv-x="1359" d="M113 553v580h114v-582q0 -104 27 -191.5t82 -150t141 -97t203 -34.5t202 34.5t141 97t83 149.5t27 192v582h114v-580q0 -141 -40 -249.5t-113.5 -182.5t-179 -112t-234.5 -38q-131 0 -235.5 38t-178 112t-113.5 182.5t-40 249.5zM373 1307l307 225l308 -225l-50 -62 l-258 160l-258 -160z" />
<glyph unicode="&#xfc;" horiz-adv-x="1359" d="M113 553v580h114v-582q0 -104 27 -191.5t82 -150t141 -97t203 -34.5t202 34.5t141 97t83 149.5t27 192v582h114v-580q0 -141 -40 -249.5t-113.5 -182.5t-179 -112t-234.5 -38q-131 0 -235.5 38t-178 112t-113.5 182.5t-40 249.5zM327 1399q0 43 31 74.5t78 31.5t79 -31.5 t32 -74.5t-32 -75t-79 -32t-78 32t-31 75zM813 1399q0 43 30.5 74.5t77.5 31.5t79 -31.5t32 -74.5t-32 -75t-79 -32t-77.5 32t-30.5 75z" />
<glyph unicode="&#xfd;" horiz-adv-x="1343" d="M61 1133h134l460 -717h39l455 717h133l-553 -850v-283h-115v283zM632 1290l99 385l106 -24l-110 -381z" />
<glyph unicode="&#xfe;" horiz-adv-x="1228" d="M123 0v1133h115v-154h495q86 0 162 -32t131 -87t88 -131t33 -164t-33 -162.5t-88 -130t-131 -86t-162 -30.5h-495v-156h-115zM238 262h485q78 0 136.5 24.5t96 65.5t57 96.5t19.5 116.5t-19.5 117.5t-57 98.5t-96 66.5t-136.5 24.5h-485v-610z" />
<glyph unicode="&#xff;" horiz-adv-x="1343" d="M61 1133h134l460 -717h39l455 717h133l-553 -850v-283h-115v283zM319 1399q0 43 31 74.5t78 31.5t79 -31.5t32 -74.5t-32 -75t-79 -32t-78 32t-31 75zM805 1399q0 43 30.5 74.5t77.5 31.5t79 -31.5t32 -74.5t-32 -75t-79 -32t-77.5 32t-30.5 75z" />
<glyph unicode="&#x152;" horiz-adv-x="2193" d="M82 565q0 145 43 250t137 191q88 80 192.5 116.5t233.5 36.5q139 0 259 -47t208 -158v179h903v-105h-788v-393h700v-105h-700v-426h821v-104h-936v174q-172 -203 -467 -203q-129 0 -233.5 37t-192.5 117q-94 86 -137 190.5t-43 249.5zM197 565q0 -205 114 -332 q70 -76 161 -115.5t216 -39.5t216 40t161 115q55 61 80.5 144.5t25.5 187.5t-25.5 187.5t-80.5 144.5q-70 76 -161 116t-216 40t-216 -40t-161 -116q-55 -61 -84.5 -144.5t-29.5 -187.5z" />
<glyph unicode="&#x153;" horiz-adv-x="2193" d="M82 565q0 145 43 250t137 191q88 80 192.5 116.5t233.5 36.5q139 0 259 -47t208 -158v179h903v-105h-788v-393h700v-105h-700v-426h821v-104h-936v174q-172 -203 -467 -203q-129 0 -233.5 37t-192.5 117q-94 86 -137 190.5t-43 249.5zM197 565q0 -205 114 -332 q70 -76 161 -115.5t216 -39.5t216 40t161 115q55 61 80.5 144.5t25.5 187.5t-25.5 187.5t-80.5 144.5q-70 76 -161 116t-216 40t-216 -40t-161 -116q-55 -61 -84.5 -144.5t-29.5 -187.5z" />
<glyph unicode="&#x178;" horiz-adv-x="1343" d="M61 1133h134l460 -717h39l455 717h133l-553 -850v-283h-115v283zM319 1399q0 43 31 74.5t78 31.5t79 -31.5t32 -74.5t-32 -75t-79 -32t-78 32t-31 75zM805 1399q0 43 30.5 74.5t77.5 31.5t79 -31.5t32 -74.5t-32 -75t-79 -32t-77.5 32t-30.5 75z" />
<glyph unicode="&#x2c6;" horiz-adv-x="716" d="M51 1307l307 225l308 -225l-50 -62l-258 160l-258 -160z" />
<glyph unicode="&#x2dc;" horiz-adv-x="821" d="M29 1341q45 57 102 89t145 32q53 0 92.5 -11t71 -25.5t60 -25.5t65.5 -11q61 0 98 14t74 53l54 -65q-41 -53 -95.5 -78t-132.5 -25q-41 0 -74.5 12.5t-67.5 26.5t-69 26.5t-73 12.5q-72 0 -116 -25.5t-73 -62.5z" />
<glyph unicode="&#x2000;" horiz-adv-x="867" />
<glyph unicode="&#x2001;" horiz-adv-x="1735" />
<glyph unicode="&#x2002;" horiz-adv-x="867" />
<glyph unicode="&#x2003;" horiz-adv-x="1735" />
<glyph unicode="&#x2004;" horiz-adv-x="578" />
<glyph unicode="&#x2005;" horiz-adv-x="433" />
<glyph unicode="&#x2006;" horiz-adv-x="289" />
<glyph unicode="&#x2007;" horiz-adv-x="289" />
<glyph unicode="&#x2008;" horiz-adv-x="216" />
<glyph unicode="&#x2009;" horiz-adv-x="347" />
<glyph unicode="&#x200a;" horiz-adv-x="96" />
<glyph unicode="&#x2010;" horiz-adv-x="808" d="M82 528v105h645v-105h-645z" />
<glyph unicode="&#x2011;" horiz-adv-x="808" d="M82 528v105h645v-105h-645z" />
<glyph unicode="&#x2012;" horiz-adv-x="808" d="M82 528v105h645v-105h-645z" />
<glyph unicode="&#x2013;" horiz-adv-x="1013" d="M82 528v105h850v-105h-850z" />
<glyph unicode="&#x2014;" horiz-adv-x="1177" d="M82 528v105h1014v-105h-1014z" />
<glyph unicode="&#x2018;" horiz-adv-x="397" d="M82 934q0 12 2 22.5t6 20.5l105 264l61 -16l-33 -178q41 -8 65.5 -39t24.5 -74q0 -49 -32.5 -82t-81.5 -33t-83 33t-34 82z" />
<glyph unicode="&#x2019;" horiz-adv-x="397" d="M82 1100q0 49 32.5 81.5t82.5 32.5q49 0 82.5 -32.5t33.5 -81.5q0 -12 -2 -22.5t-6 -20.5l-104 -264l-62 16l33 178q-41 8 -65.5 39t-24.5 74z" />
<glyph unicode="&#x201a;" horiz-adv-x="395" d="M82 94q0 49 32.5 82t82.5 33q49 0 82.5 -33t33.5 -82q0 -12 -2 -22.5t-6 -20.5l-104 -264l-62 16l33 179q-41 8 -65.5 38.5t-24.5 73.5z" />
<glyph unicode="&#x201c;" horiz-adv-x="657" d="M72 926q0 12 2 22t6 21l104 264l62 -16l-33 -179q41 -8 65.5 -38.5t24.5 -73.5q0 -49 -32.5 -82t-82.5 -33q-49 0 -82.5 33t-33.5 82zM356 926q0 12 2 22t7 21l96 239l61 -16l-24 -154q41 -8 65.5 -38.5t24.5 -73.5q0 -49 -33 -82t-82 -33t-83 33t-34 82z" />
<glyph unicode="&#x201d;" horiz-adv-x="659" d="M72 1077q0 49 32.5 82t81.5 33t83 -33t34 -82q0 -12 -2 -22.5t-6 -20.5l-96 -239l-62 16l25 154q-41 8 -65.5 38.5t-24.5 73.5zM356 1077q0 49 33 82t82 33t83 -33t34 -82q0 -12 -2 -22.5t-6 -20.5l-105 -264l-61 16l32 179q-41 8 -65.5 38.5t-24.5 73.5z" />
<glyph unicode="&#x201e;" horiz-adv-x="659" d="M72 94q0 49 32.5 82t81.5 33t83 -33t34 -82q0 -12 -2 -22.5t-6 -20.5l-96 -239l-62 16l25 154q-41 8 -65.5 38.5t-24.5 73.5zM356 94q0 49 33 82t82 33t83 -33t34 -82q0 -12 -2 -22.5t-6 -20.5l-105 -264l-61 16l32 179q-41 8 -65.5 38.5t-24.5 73.5z" />
<glyph unicode="&#x2022;" horiz-adv-x="468" d="M82 614q0 66 44 110t110 44t108.5 -44t42.5 -110t-43 -107.5t-108 -41.5q-66 0 -110 42t-44 107z" />
<glyph unicode="&#x2026;" horiz-adv-x="1150" d="M82 94q0 49 34 83t83 34t82.5 -34t33.5 -83t-33.5 -81.5t-82.5 -32.5t-83 32.5t-34 81.5zM459 94q0 49 33.5 83t82.5 34t83 -34t34 -83t-33.5 -81.5t-83.5 -32.5q-49 0 -82.5 32.5t-33.5 81.5zM836 94q0 49 33.5 83t82.5 34t83 -34t34 -83t-34 -81.5t-83 -32.5 t-82.5 32.5t-33.5 81.5z" />
<glyph unicode="&#x202f;" horiz-adv-x="347" />
<glyph unicode="&#x2039;" horiz-adv-x="491" d="M43 551l332 336l63 -62l-235 -274l235 -275l-63 -61z" />
<glyph unicode="&#x203a;" horiz-adv-x="491" d="M53 276l236 275l-236 274l64 62l332 -336l-332 -336z" />
<glyph unicode="&#x205f;" horiz-adv-x="433" />
<glyph unicode="&#x20ac;" horiz-adv-x="1316" d="M0 406v104h840v-104h-617q47 -150 171 -239t304 -89q156 0 263.5 52t187.5 151l96 -60q-92 -117 -223 -183.5t-317 -66.5q-115 0 -214.5 30t-178.5 85t-133 136t-79 184h-100zM0 631v104h100q27 100 82.5 179t134 133.5t178 83t210.5 28.5q174 0 311 -65.5t225 -182.5 l-94 -57q-72 94 -184.5 145.5t-264.5 51.5q-182 0 -306 -84t-171 -232h619v-104h-840z" />
<glyph unicode="&#x2122;" horiz-adv-x="1333" d="M41 1047v86h647l201 -400l198 400h144v-545h-101v420l-204 -420h-78l-205 420v-420h-100v459h-189v-459h-102v459h-211z" />
<glyph unicode="&#x25fc;" horiz-adv-x="1136" d="M0 0v1137h1137v-1137h-1137z" />
</font>
</defs>
</svg>
