<svg width="269" height="22" viewBox="0 0 269 22" fill="none" xmlns="http://www.w3.org/2000/svg">
<path d="M11.2196 0.493104C12.6333 0.493104 14.0212 0.745977 15.3835 1.25172C16.7715 1.75747 18.0053 2.47816 19.0848 3.41379C20.1644 4.32414 21.0383 5.42414 21.7066 6.71379C22.3749 8.00345 22.709 9.41954 22.709 10.9621C22.709 12.5046 22.3749 13.9207 21.7066 15.2103C21.064 16.5 20.2029 17.6126 19.1234 18.5483C18.0438 19.4586 16.8101 20.1793 15.4221 20.7103C14.0598 21.2161 12.659 21.469 11.2196 21.469H0V0.493104H11.2196ZM5.66762 16.3483H11.2967C12.0935 16.3483 12.8389 16.2092 13.5329 15.931C14.2269 15.6529 14.8309 15.2736 15.345 14.7931C15.8847 14.3126 16.296 13.7437 16.5787 13.0862C16.8872 12.4287 17.0414 11.7207 17.0414 10.9621C17.0414 10.2034 16.8872 9.4954 16.5787 8.83793C16.296 8.18046 15.8847 7.61149 15.345 7.13103C14.8309 6.62529 14.2269 6.23333 13.5329 5.95517C12.8389 5.67701 12.0935 5.53793 11.2967 5.53793H5.66762V16.3483Z" fill="#0F0F0F"/>
<path d="M41.3122 13.5414H48.8305L45.5918 5.46207H44.7051L41.3122 13.5414ZM49.3317 0.493104L58.3922 21.469H52.3775L51.0281 18.3966H39.2302L37.9193 21.469H31.8276L41.0809 0.493104H49.3317Z" fill="#0F0F0F"/>
<path d="M81.5702 0.493104C82.8553 0.493104 84.0377 0.695403 85.1172 1.1C86.2225 1.5046 87.1607 2.07356 87.9318 2.8069C88.7286 3.54023 89.3455 4.42529 89.7824 5.46207C90.2451 6.47356 90.4764 7.59885 90.4764 8.83793C90.4764 10.4057 90.1294 11.7713 89.4354 12.9345C88.7671 14.0977 87.829 15.0333 86.6209 15.7414L89.8595 21.469H83.6907L81.2617 16.9931H74.6302V21.469H68.9626V0.493104H81.5702ZM74.6302 11.9103H81.3388C82.3413 11.9103 83.1638 11.6575 83.8064 11.1517C84.449 10.646 84.7702 9.87471 84.7702 8.83793C84.7702 7.82644 84.449 7.02988 83.8064 6.44828C83.1638 5.86667 82.3413 5.57586 81.3388 5.57586H74.6302V11.9103Z" fill="#0F0F0F"/>
<path d="M106.739 0.493104V7.88966H111.751L116.879 0.493104H123.433L116.57 10.2034L123.896 21.469H117.148L111.905 13.0103H106.739V21.469H101.11V0.493104H106.739Z" fill="#0F0F0F"/>
<path d="M137.704 0.493104V18.7379H153.665V21.469H134.696V0.493104H137.704Z" fill="#0F0F0F"/>
<path d="M167.704 0.493104V21.469H164.697V0.493104H167.704Z" fill="#0F0F0F"/>
<path d="M201.84 9.78621V21.469H199.836L199.334 19.1931C198.255 20.0782 197.072 20.7736 195.787 21.2793C194.502 21.7598 192.896 22 190.968 22C189.271 22 187.691 21.7471 186.226 21.2414C184.786 20.7356 183.54 20.0023 182.486 19.0414C181.458 18.0805 180.648 16.9299 180.057 15.5897C179.466 14.2241 179.17 12.6816 179.17 10.9621C179.17 9.26782 179.466 7.75058 180.057 6.41035C180.674 5.04483 181.509 3.89425 182.563 2.95862C183.617 1.9977 184.863 1.26437 186.303 0.758622C187.742 0.252874 189.297 0 190.968 0C193.384 0 195.415 0.404598 197.06 1.21379C198.705 1.9977 200.118 3.18621 201.301 4.77931L198.872 6.18276C197.972 5.04483 196.88 4.18506 195.594 3.60345C194.309 3.02184 192.741 2.73104 190.891 2.73104C189.58 2.73104 188.385 2.93333 187.305 3.33793C186.226 3.71724 185.313 4.27356 184.568 5.0069C183.822 5.71494 183.244 6.57471 182.833 7.58621C182.421 8.5977 182.216 9.72299 182.216 10.9621C182.216 12.1759 182.421 13.3011 182.833 14.3379C183.27 15.3494 183.874 16.2218 184.645 16.9552C185.416 17.6885 186.328 18.2575 187.382 18.6621C188.462 19.0667 189.631 19.269 190.891 19.269C192.767 19.269 194.335 19.0161 195.594 18.5103C196.854 18.0046 197.972 17.2333 198.949 16.1966V12.4793L193.088 12.2517V9.78621H201.84Z" fill="#0F0F0F"/>
<path d="M216.938 0.493104V9.21724H232.244V0.493104H235.29V21.469H232.244V11.9483H216.938V21.469H213.93V0.493104H216.938Z" fill="#0F0F0F"/>
<path d="M268.254 0.493104V3.22414H258.808V21.469H255.762V3.22414H246.316V0.493104H268.254Z" fill="#0F0F0F"/>
</svg>
