<svg width="80" height="81" viewBox="0 0 80 81" fill="none" xmlns="http://www.w3.org/2000/svg">
<g clip-path="url(#clip0_1_15)">
<path d="M78.8591 50.0447L78.8739 50.0409C74.565 67.7096 58.6675 80.8214 39.7151 80.8214C28.8541 80.8214 18.9963 76.5154 11.7479 69.5135L78.8591 50.0447Z" fill="white"/>
<path d="M79.6269 46.1169L3.51623 58.212C1.87207 54.8583 0.677999 51.2429 0.0130005 47.4448L80 41.8655C79.9493 43.303 79.8237 44.7214 79.6269 46.1169Z" fill="white"/>
<path d="M3.51622 22.6094C1.8613 25.985 0.662377 29.6258 0 33.4512L79.998 38.9002C79.946 37.4817 79.8211 36.082 79.6269 34.7045L3.51622 22.6094Z" fill="white"/>
<path d="M11.7001 69.4673L11.7019 69.4691L11.7004 69.4671L11.7001 69.4673Z" fill="white"/>
<path d="M39.7151 0C28.8541 0 18.9963 4.30597 11.7479 11.3078L78.8591 30.7767L78.8741 30.781C74.5654 13.1121 58.6677 0 39.7151 0Z" fill="white"/>
</g>
<defs>
<clipPath id="clip0_1_15">
<rect width="80" height="80.8214" fill="white"/>
</clipPath>
</defs>
</svg>
