<svg width="201" height="201" viewBox="0 0 201 201" fill="none" xmlns="http://www.w3.org/2000/svg">
<path fill-rule="evenodd" clip-rule="evenodd" d="M154.722 17.0827C139.001 6.89227 120.204 0.966797 100.01 0.966797C79.815 0.966797 61.0185 6.89227 45.2975 17.0827C44.9069 17.3359 44.5182 17.5917 44.1314 17.8501C37.5436 22.2518 31.514 27.4099 26.1698 33.1986C25.4712 33.9553 24.7842 34.7228 24.1093 35.5008C20.3792 39.8006 17.0156 44.421 14.0663 49.3144C13.3062 50.5756 12.5736 51.8549 11.8694 53.1515C9.72919 57.092 7.85077 61.1926 6.25719 65.4303C5.59258 67.1976 4.97756 68.9888 4.41369 70.8023C3.32465 74.3047 2.42667 77.89 1.73173 81.5462C1.29916 83.8219 0.945279 86.1251 0.672972 88.453C0.318522 91.4831 0.102285 94.5549 0.0306477 97.6621C0.0129986 98.4274 0.00415039 99.1948 0.00415039 99.9643C0.00415039 102.026 0.0678386 104.073 0.193322 106.104C0.353158 108.69 0.613305 111.249 0.969931 113.778C1.44707 117.161 2.09701 120.49 2.91053 123.754C3.42709 125.827 4.0096 127.875 4.65576 129.894C5.91982 133.844 7.42747 137.687 9.1612 141.405C9.88723 142.962 10.6529 144.498 11.457 146.01C12.7005 148.348 14.0358 150.632 15.4582 152.855C14.2796 150.624 13.1885 148.341 12.1893 146.01H187.83C186.831 148.341 185.74 150.624 184.561 152.855C185.983 150.632 187.319 148.348 188.562 146.01C189.366 144.498 190.132 142.962 190.858 141.405C192.592 137.687 194.099 133.844 195.364 129.894C196.01 127.875 196.592 125.827 197.109 123.754C197.922 120.49 198.572 117.161 199.049 113.778C199.406 111.249 199.666 108.69 199.826 106.104C199.951 104.073 200.015 102.026 200.015 99.9643C200.015 99.1948 200.006 98.4274 199.989 97.6621C199.917 94.5549 199.701 91.4831 199.346 88.453C199.074 86.1251 198.72 83.8219 198.288 81.5462C197.593 77.89 196.695 74.3047 195.606 70.8023C195.042 68.9888 194.427 67.1976 193.762 65.4303C192.169 61.1926 190.29 57.092 188.15 53.1515C187.446 51.8549 186.713 50.5756 185.953 49.3144C183.004 44.421 179.64 39.8006 175.91 35.5008C175.235 34.7228 174.548 33.9553 173.849 33.1986C168.505 27.4099 162.476 22.2518 155.888 17.8501C155.501 17.5917 155.112 17.3359 154.722 17.0827ZM78.9842 17.0827C77.9152 17.3208 76.853 17.5767 75.7979 17.8501H124.221C123.166 17.5767 122.104 17.3208 121.035 17.0827H78.9842ZM159.628 35.5008C158.637 34.714 157.63 33.9464 156.607 33.1986H43.4123C42.3895 33.9464 41.3824 34.714 40.3915 35.5008H159.628ZM176.762 53.1515C175.788 51.8464 174.781 50.5669 173.742 49.3144H26.277C25.2382 50.5669 24.2312 51.8464 23.2575 53.1515H176.762ZM187.156 70.8023C186.336 68.9804 185.46 67.189 184.529 65.4303H15.4905C14.5597 67.189 13.6833 68.9804 12.8635 70.8023H187.156ZM193.059 88.453C192.531 86.1168 191.915 83.8134 191.215 81.5462H8.80472C8.10477 83.8134 7.4887 86.1168 6.96013 88.453H193.059ZM195.314 106.104C195.222 103.256 195.003 100.441 194.662 97.6621H5.35751C5.01626 100.441 4.7969 103.256 4.70501 106.104H195.314ZM194.233 123.754C194.746 120.481 195.088 117.153 195.252 113.778H4.76705C4.93081 117.153 5.27362 120.481 5.78629 123.754H194.233ZM189.66 141.405C191.03 137.672 192.169 133.829 193.059 129.894H6.96017C7.85063 133.829 8.98935 137.672 10.3592 141.405H189.66Z" fill="#0F0F0F"/>
<path d="M180.253 159.056H19.7659C20.5481 160.095 21.3504 161.118 22.1722 162.126H177.847C178.669 161.118 179.471 160.095 180.253 159.056Z" fill="#0F0F0F"/>
<path d="M163.19 176.707H36.8289C37.472 177.226 38.1217 177.738 38.7779 178.241H161.241C161.898 177.738 162.547 177.226 163.19 176.707Z" fill="#0F0F0F"/>
</svg>
