<svg width="315" height="278" viewBox="0 0 315 278" fill="none" xmlns="http://www.w3.org/2000/svg">
<path d="M157.3 0C168.4 0 171.9 7.99999 174.8 15.9C176 19.3 204.9 98.4 205.8 100.8C206 101.5 205.9 102.6 204.9 102.9C203.9 103.3 188.9 109.1 188 109.4C187.2 109.7 186.2 109.2 185.9 108.4C185.6 107.6 179.4 90.3 178.7 88.4H135.9C135.2 90.3 128.9 107.6 128.6 108.4C128.3 109.2 127.4 109.7 126.5 109.4C125.6 109.1 110.5 103.2 109.6 102.9C108.7 102.6 108.4 101.6 108.7 100.8C109.8 97.8 138.2 20 139.7 15.9C142.5 8.09999 146.1 0 157.3 0ZM106.4 141.6C105.5 141.6 104.8 142.3 104.8 143.3V161.8C104.8 162.7 105.5 163.5 106.4 163.5H208.1C209 163.5 209.7 162.8 209.7 161.8V143.3C209.7 142.4 209 141.6 208.1 141.6H106.4ZM157.2 25.8L142.7 69.3H171.9L157.4 25.8H157.2Z" fill="black"/>
<path d="M218 256C218 259.9 215.8 262.5 211.9 262.5C210.3 262.5 209 262.5 207 261.9V250.1C207.9 249.9 209.8 249.7 211.9 249.7C215.9 249.9 218 251.8 218 256ZM226.2 255.4C226.2 248.2 221.9 243.2 213 243.2C210.8 243.2 209.3 243.4 206.9 244V233.6C208.4 233.4 210.9 233.2 213.7 233.2C216.3 233.2 219.7 233.3 222.6 233.7L222.8 227.7C219.5 227 214.7 226.5 211 226.5C207.3 226.5 201.6 227.4 198.9 228.1V266.7C203.2 268.2 207.3 269 211.6 269C221.2 268.8 226.2 263.7 226.2 255.4Z" fill="black"/>
<path d="M132.7 253.3C132.7 258.7 130.6 262.2 127 262.2C125.5 262.2 124.7 262.1 123.1 261.6V245.5C124.9 244.6 125.9 244.6 127.4 244.6C131 244.5 132.7 247.4 132.7 253.3ZM105.9 253.5C105.9 247.6 107.7 244.5 111.2 244.5C112.7 244.5 113.7 244.5 115.5 245.4V261.5C113.8 262 113 262.1 111.6 262.1C107.5 262.1 105.9 258.9 105.9 253.5ZM123.1 277.7V267.2C124.1 267.8 126 268.6 129.3 268.6C135.8 268.6 140.6 263.2 140.6 253.3C140.6 242.6 135.8 238.1 128 238.1C126 238.1 124.7 238.3 123.1 239.1V226.5H115.5V239.1C113.9 238.3 112.6 238.1 110.6 238.1C102.8 238.1 98 242.8 98 253.5C98 263.4 102.3 268.6 109.3 268.6C112.6 268.6 114.5 267.7 115.5 267.2V277.7H123.1Z" fill="black"/>
<path d="M57.7 268.1V245.1C55.7 244.8 55.3 244.7 53.7 244.7C52.1 244.7 51.7 244.8 49.6 245.1V255.7C49.6 264.2 47.3 266.9 41.1 268.7L39 264.2C40.6 263.2 41.1 261.8 41.5 260.7C41.9 259.4 42 258.3 42 254.3V239.9C46.2 238.6 49.4 238.1 53.6 238.1C57.8 238.1 61.1 238.6 65.3 239.9V268.1H57.7V268.1Z" fill="black"/>
<path d="M159.8 261.9C158.1 262.5 157 262.6 155.7 262.6C152.9 262.6 151.4 261.5 151.4 258.7C151.4 255.8 153.4 254.8 157.2 254.8C158.1 254.8 159 254.9 159.5 255.1V257.2C159.4 259.5 159.5 260.9 159.8 261.9ZM169.4 265.3C167.4 262.2 166.9 260.4 166.9 256.5V248.6C166.9 244.3 166.4 242.8 165.3 241.2C163.7 239 161.1 238.1 156.3 238.1C152.9 238.1 149.6 238.5 146.4 239.3L147.5 244.9C149.7 244.6 151.9 244.3 153.5 244.3C158.6 244.3 159.2 245 159.2 248.9V250.3C158.1 250 156.8 249.8 155.3 249.8C147.6 249.8 143.6 253.6 143.6 259.7C143.6 265.5 147.9 268.7 153.2 268.7C155.2 268.7 157.2 268.3 158.9 267.7C159.9 267.3 160.3 267 161.6 266.2C162.3 267.3 163.9 268.5 164.5 268.7L169.4 265.3Z" fill="black"/>
<path d="M245.2 261.9C243.5 262.5 242.4 262.6 241.1 262.6C238.3 262.6 236.8 261.5 236.8 258.7C236.8 255.8 238.8 254.8 242.6 254.8C243.5 254.8 244.4 254.9 244.9 255.1V257.2C244.8 259.5 244.9 260.9 245.2 261.9ZM254.9 265.3C252.9 262.2 252.3 260.4 252.3 256.5V248.6C252.3 244.3 251.8 242.8 250.7 241.2C249.1 239 246.5 238.1 241.7 238.1C238.3 238.1 235 238.5 231.8 239.3L232.9 244.9C235 244.6 237.3 244.3 238.9 244.3C244 244.3 244.6 245 244.6 248.9V250.3C243.5 250 242.2 249.8 240.7 249.8C233 249.8 229 253.6 229 259.7C229 265.5 233.3 268.7 238.6 268.7C240.6 268.7 242.6 268.3 244.2 267.7C245.2 267.3 245.6 267 246.9 266.2C247.7 267.3 249.2 268.5 249.8 268.7L254.9 265.3Z" fill="black"/>
<path d="M87.0998 258C87.0998 260.9 86.0998 262.9 82.3998 262.9C81.1998 262.9 80.6998 262.9 78.9998 262.4V254C80.9998 253.6 81.1998 253.5 82.3998 253.5C85.8998 253.5 87.0998 255.2 87.0998 258ZM71.2998 238.6V266.6C74.8998 268.1 78.9998 268.8 82.4998 268.8C90.6998 268.8 94.9998 264.6 94.9998 257.6C94.9998 251.3 91.0998 247.4 83.8998 247.4C82.0998 247.4 80.9998 247.6 78.9998 248.1V238.5H71.2998V238.6Z" fill="black"/>
<path d="M275.4 268.1V256.2H266.6V268.1H259V238.8H266.6V249.9H275.4V238.8H283V268.1H275.4Z" fill="black"/>
<path d="M306.2 268.1C306.2 268.1 303.6 261.8 302.2 259C301 256.7 300.7 256.1 298.5 256.1H297.5V268H289.8V238.7H297.5V249.8H298.8C300.8 249.8 301.1 249.1 301.9 247.6C302.6 246.1 303.2 244.9 303.9 243.4C304.6 242 305.1 240.8 305.9 240C306.9 239 308 238.4 310.1 238.2C311.4 238.1 312.6 238.1 313.7 238.3L313.3 243.6C313.3 243.6 312.3 243.3 311.5 244C310.7 244.7 310.3 245.3 309 248.2C307.6 251.1 306.4 252.1 304.8 252.4V252.5C307.2 253.1 308.2 254.6 309.4 256.9C310.4 258.9 314.6 267.9 314.6 267.9H306.2V268.1Z" fill="black"/>
<path d="M28 268.1H36.9L23.5 227.2C22.1 226.7 20.3 226.4 18.5 226.4C16.5 226.4 15.8 226.7 14.2 227.2L0 268.1H8.5C8.5 268.1 9.6 264.5 11 260.1H25.7C26.9 264.5 28 268.1 28 268.1ZM13.1 253.2C13.1 253.2 15.6 245 15.9 243.7C16.9 240.4 18.4 235.1 18.4 235.1H18.6C18.6 235.1 20 240.5 20.9 243.6C21.2 244.8 23.6 253.1 23.6 253.1H13.1V253.2Z" fill="black"/>
<path d="M187.7 253.5C187.7 256.2 185.5 258.4 182.8 258.4C180.1 258.4 177.9 256.2 177.9 253.5C177.9 250.8 180.1 248.6 182.8 248.6C185.5 248.5 187.7 250.8 187.7 253.5Z" fill="black"/>
</svg>
