<svg width="226" height="145" viewBox="0 0 226 145" fill="none" xmlns="http://www.w3.org/2000/svg">
<g clip-path="url(#clip0_14_229)">
<path d="M205.765 3.20576e-05H17.9276C17.2722 3.20576e-05 16.5622 3.20576e-05 15.9751 3.20576e-05C14.5522 0.0131711 13.1325 0.136694 11.7287 0.369482C10.3007 0.609633 8.91869 1.07127 7.63249 1.73779C6.35834 2.38109 5.19642 3.22668 4.19171 4.24181C3.1756 5.24594 2.33143 6.4109 1.69306 7.68994C1.02796 8.97888 0.567306 10.3638 0.327667 11.7949C0.0953758 13.2017 -0.0279046 14.6244 -0.0410156 16.0503C-0.0410156 16.6934 -0.0410156 17.3502 -0.0410156 18.007C-0.0410156 18.6638 -0.0410156 19.5532 -0.0410156 20.3331V124.749C-0.0410156 125.529 -0.0410156 126.309 -0.0410156 127.075C-0.0410156 127.841 -0.0410156 128.443 -0.0410156 129.032C-0.0279046 130.458 0.0953758 131.88 0.327667 133.287C0.567306 134.718 1.02796 136.103 1.69306 137.392C2.33841 138.667 3.1818 139.831 4.19171 140.84C5.19642 141.855 6.35834 142.701 7.63249 143.344C8.91869 144.011 10.3007 144.473 11.7287 144.713C13.1333 144.939 14.5526 145.062 15.9751 145.082H17.9276H208.086H210.039C211.461 145.062 212.88 144.938 214.285 144.713C215.712 144.468 217.093 144.007 218.381 143.344C220.939 142.04 223.019 139.956 224.32 137.392C224.986 136.103 225.447 134.718 225.686 133.287C225.923 131.881 226.051 130.458 226.068 129.032C226.068 128.389 226.068 127.732 226.068 127.075V17.966C226.068 17.3092 226.068 16.5976 226.068 16.0093C226.051 14.583 225.923 13.1603 225.686 11.7538C225.447 10.3226 224.986 8.93766 224.32 7.64889C223.682 6.36985 222.838 5.2049 221.822 4.20076C220.815 3.18869 219.653 2.34348 218.381 1.69675C217.093 1.03426 215.712 0.572836 214.285 0.328434C212.881 0.0962413 211.461 -0.0272777 210.039 -0.0410156H208.086L205.765 3.20576e-05Z" fill="white"/>
<path d="M205.764 4.83008H208.045C208.673 4.83008 209.287 4.83008 209.901 4.83008C211.086 4.83918 212.269 4.93983 213.438 5.13111C214.387 5.28375 215.308 5.57898 216.169 6.00683C216.982 6.43138 217.728 6.97562 218.381 7.62145C219.034 8.27327 219.578 9.02638 219.992 9.85178C220.423 10.714 220.723 11.6366 220.879 12.5884C221.063 13.7565 221.164 14.9362 221.18 16.1187C221.18 16.7344 221.18 17.3501 221.18 17.9796V127.02C221.18 127.636 221.18 128.252 221.18 128.868C221.164 130.05 221.063 131.23 220.879 132.398C220.723 133.35 220.423 134.272 219.992 135.134C219.581 135.958 219.037 136.707 218.381 137.351C217.729 138.009 216.978 138.558 216.155 138.979C215.295 139.409 214.374 139.704 213.424 139.855C212.264 140.042 211.091 140.142 209.915 140.156H208.031H17.9408H16.0975C14.9174 140.144 13.74 140.043 12.5748 139.855C11.6242 139.701 10.7031 139.401 9.84403 138.966C9.0268 138.547 8.28033 138.002 7.63205 137.351C6.98454 136.7 6.44112 135.952 6.0209 135.134C5.59279 134.272 5.29816 133.349 5.14707 132.398C4.95624 131.235 4.85581 130.059 4.84668 128.881C4.84668 128.252 4.84668 127.636 4.84668 127.02V17.9933C4.84668 17.3775 4.84668 16.7618 4.84668 16.1323C4.85636 14.9496 4.95678 13.7694 5.14707 12.6021C5.29687 11.6487 5.5964 10.725 6.03457 9.86548C6.44848 9.04353 6.9874 8.29109 7.63205 7.63512C8.28978 6.98913 9.03988 6.44496 9.85765 6.02052C10.7188 5.59267 11.6394 5.29743 12.5884 5.14478C13.7532 4.9535 14.9309 4.85287 16.1112 4.84377C16.7393 4.84377 17.3537 4.84377 17.9681 4.84377H205.764" fill="black"/>
<path d="M61.7016 48.7667C63.8003 46.2582 64.8389 43.0277 64.5962 39.7632C61.3848 40.073 58.4162 41.612 56.3083 44.0597C55.2653 45.2345 54.4652 46.6049 53.9543 48.0916C53.4434 49.5783 53.2317 51.1519 53.3317 52.7211C54.9359 52.7485 56.5249 52.4062 57.9761 51.7205C59.4274 51.0349 60.702 50.0243 61.7016 48.7667Z" fill="white"/>
<path d="M64.5692 53.3371C59.9542 53.0634 56.0218 55.9642 53.8099 55.9642C51.5979 55.9642 48.2391 53.4876 44.5798 53.5423C42.2035 53.6073 39.8854 54.2928 37.8546 55.5312C35.8239 56.7695 34.1509 58.5177 33.0013 60.6028C28.0449 69.1684 31.6359 81.8801 36.524 88.8584C38.8588 92.3203 41.6852 96.1105 45.4127 95.9737C48.9218 95.8368 50.3008 93.7023 54.5745 93.7023C58.8482 93.7023 60.0361 95.9737 63.8046 95.9052C67.5731 95.8368 70.0854 92.4571 72.4202 89.0637C74.0881 86.6167 75.3899 83.9384 76.2842 81.1138C74.0677 80.1438 72.1789 78.5512 70.8463 76.5285C69.5136 74.5058 68.794 72.1395 68.7746 69.7158C68.8064 67.5635 69.3784 65.4539 70.4379 63.5815C71.4974 61.7091 73.0102 60.1342 74.8369 59.0019C73.666 57.3448 72.1316 55.9787 70.3517 55.0086C68.5718 54.0384 66.5936 53.49 64.5692 53.4055" fill="white"/>
<path d="M104.78 43.7178C114.816 43.7178 121.807 50.6414 121.807 60.7396C121.807 70.8377 114.666 77.8435 104.521 77.8435H93.4065V95.5494H85.3779V43.7178H104.78ZM93.4065 71.084H102.623C109.614 71.084 113.546 67.3075 113.546 60.7806C113.546 54.2538 109.573 50.5046 102.623 50.5046H93.3655L93.4065 71.084Z" fill="white"/>
<path d="M123.896 84.8084C123.896 78.1995 128.947 74.1356 137.918 73.6293L148.24 73.0273V70.1128C148.24 65.912 145.4 63.3943 140.676 63.3943C136.198 63.3943 133.399 65.5563 132.716 68.936H125.37C125.793 62.0945 131.596 57.0728 140.922 57.0728C150.248 57.0728 155.941 61.9303 155.941 69.5107V95.5086H148.582V89.2965H148.404C147.212 91.4001 145.478 93.1447 143.384 94.348C141.29 95.5514 138.912 96.1696 136.498 96.138C129.057 96.1928 123.896 91.5952 123.896 84.8084ZM148.24 81.4013V78.4184L138.956 78.9931C134.327 79.3078 131.719 81.3603 131.719 84.5895C131.719 87.8187 134.45 90.0628 138.546 90.0628C144.008 90.0764 148.24 86.3136 148.24 81.4013Z" fill="white"/>
<path d="M162.946 109.452V103.171C163.778 103.287 164.619 103.332 165.459 103.308C169.05 103.308 170.92 101.803 172.163 97.9168C172.163 97.9168 172.845 95.618 172.845 95.5906L159.191 57.7568H167.589L177.146 88.5028H177.256L186.813 57.7568H195.006L180.874 97.52C177.652 106.688 173.924 109.63 166.1 109.63C165.047 109.627 163.994 109.567 162.946 109.452V109.452Z" fill="white"/>
</g>
<defs>
<clipPath id="clip0_14_229">
<rect width="226" height="145" fill="white"/>
</clipPath>
</defs>
</svg>
