<svg width="166" height="106" viewBox="0 0 166 106" fill="none" xmlns="http://www.w3.org/2000/svg">
<path d="M150.7 0H14.8C14.2 0 13.7 0 13.1 0C12.6 0 12.1 0 11.7 0C10.7 0 9.60001 0.100003 8.60001 0.300003C7.60001 0.500003 6.60001 0.800003 5.60001 1.3C4.70001 1.8 3.80001 2.40001 3.10001 3.10001C2.40001 3.80001 1.70002 4.70001 1.30002 5.60001C0.800018 6.50001 0.500018 7.50001 0.300018 8.60001C0.100018 9.60001 0.1 10.7 0 11.7C0 12.2 0 12.7 0 13.1C0 13.7 0 14.2 0 14.8V91.1C0 91.7 0 92.2 0 92.8C0 93.3 0 93.8 0 94.2C0 95.2 0.100018 96.3 0.300018 97.3C0.500018 98.3 0.800018 99.3 1.30002 100.3C1.80002 101.2 2.40001 102.1 3.10001 102.8C3.80001 103.5 4.70001 104.2 5.60001 104.6C6.50001 105.1 7.50001 105.4 8.60001 105.6C9.60001 105.8 10.7 105.8 11.7 105.9C12.2 105.9 12.7 105.9 13.1 105.9C13.7 105.9 14.2 105.9 14.8 105.9H150.7C151.3 105.9 151.8 105.9 152.4 105.9C152.9 105.9 153.4 105.9 153.8 105.9C154.8 105.9 155.9 105.8 156.9 105.6C157.9 105.4 158.9 105.1 159.9 104.6C160.8 104.1 161.7 103.5 162.4 102.8C163.1 102.1 163.8 101.2 164.2 100.3C164.7 99.4 165 98.4 165.2 97.3C165.4 96.3 165.4 95.2 165.5 94.2C165.5 93.7 165.5 93.2 165.5 92.8C165.5 92.2 165.5 91.7 165.5 91.1V14.8C165.5 14.2 165.5 13.7 165.5 13.1C165.5 12.6 165.5 12.1 165.5 11.7C165.5 10.7 165.4 9.60001 165.2 8.60001C165 7.60001 164.7 6.60001 164.2 5.60001C163.7 4.70001 163.1 3.80001 162.4 3.10001C161.7 2.40001 160.8 1.7 159.9 1.3C159 0.800003 158 0.500003 156.9 0.300003C155.9 0.100003 154.8 0.1 153.8 0C153.3 0 152.8 0 152.4 0C151.8 0 151.2 0 150.7 0Z" fill="black"/>
<path d="M150.7 3.49991H152.4C152.9 3.49991 153.3 3.49991 153.8 3.49991C154.6 3.49991 155.5 3.59992 156.4 3.69992C157.2 3.79992 157.8 3.9999 158.4 4.2999C159 4.5999 159.5 4.99991 160 5.49991C160.5 5.99991 160.9 6.49991 161.2 7.09991C161.5 7.69991 161.7 8.29991 161.8 9.09991C162 9.99991 162 10.8999 162 11.6999C162 12.0999 162 12.5999 162 13.0999C162 13.6999 162 14.1999 162 14.7999V91.0999C162 91.6999 162 92.1999 162 92.7999C162 93.1999 162 93.6999 162 94.1999C162 94.9999 161.9 95.8999 161.8 96.7999C161.7 97.4999 161.5 98.1999 161.2 98.7999C160.9 99.3999 160.5 99.8999 160 100.4C159.5 100.9 159 101.3 158.4 101.6C157.8 101.9 157.2 102.1 156.4 102.2C155.5 102.4 154.6 102.4 153.8 102.4C153.3 102.4 152.9 102.4 152.4 102.4C151.8 102.4 151.3 102.4 150.7 102.4H14.8C14.3 102.4 13.7 102.4 13.1 102.4C12.6 102.4 12.2 102.4 11.7 102.4C11 102.4 10 102.3 9.10001 102.2C8.40001 102.1 7.70001 101.9 7.10001 101.5C6.50001 101.2 6 100.8 5.5 100.3C5 99.7999 4.60002 99.2999 4.30002 98.6999C4.00002 98.0999 3.80001 97.4999 3.70001 96.6999C3.50001 95.7999 3.5 94.8999 3.5 94.0999C3.5 93.5999 3.5 93.1999 3.5 92.6999V91.3999V90.9999V14.6999V14.2999V12.9999C3.5 12.4999 3.5 12.0999 3.5 11.5999C3.5 10.7999 3.60001 9.89991 3.70001 8.99991C3.80001 8.29991 4.00002 7.59991 4.30002 6.99991C4.60002 6.39991 5 5.8999 5.5 5.3999C6 4.8999 6.50001 4.49992 7.10001 4.19992C7.70001 3.89992 8.30001 3.69991 9.10001 3.59991C10 3.39991 10.9 3.3999 11.7 3.3999C12.2 3.3999 12.6 3.3999 13.1 3.3999H14.8H150.7" fill="white"/>
<path d="M45.2006 35.6C46.6006 33.8 47.6006 31.4 47.3006 29C45.2006 29.1 42.7006 30.4 41.2006 32.1C39.9006 33.6 38.7006 36.1 39.0006 38.4C41.4006 38.7 43.7006 37.3 45.2006 35.6Z" fill="black"/>
<path d="M47.3003 39C43.9003 38.8 41.0003 40.9 39.4003 40.9C37.8003 40.9 35.3003 39.1 32.6003 39.1C29.1003 39.2 25.9003 41.1 24.1003 44.3C20.5003 50.6 23.1003 59.9 26.7003 65C28.4003 67.5 30.5003 70.3 33.2003 70.2C35.8003 70.1 36.8003 68.5 39.9003 68.5C43.0003 68.5 43.9003 70.2 46.7003 70.1C49.5003 70 51.3003 67.6 53.0003 65C55.0003 62.1 55.8003 59.3 55.8003 59.2C55.7003 59.1 50.3003 57.1 50.3003 50.9C50.2003 45.7 54.5003 43.2 54.7003 43.1C52.4003 39.5 48.6003 39.1 47.3003 39Z" fill="black"/>
<path d="M76.7 31.9001C84.1 31.9001 89.2 37 89.2 44.3C89.2 51.7 84 56.8 76.5 56.8H68.4V69.7001H62.5V31.8H76.7V31.9001ZM68.4 51.9001H75.1C80.2 51.9001 83.1 49.1001 83.1 44.4001C83.1 39.6001 80.2 36.9001 75.1 36.9001H68.3V51.9001H68.4Z" fill="black"/>
<path d="M90.7002 61.9001C90.7002 57.1001 94.4002 54.1001 101 53.7001L108.6 53.3001V51.2001C108.6 48.1001 106.5 46.3001 103.1 46.3001C99.8002 46.3001 97.8002 47.9001 97.3002 50.3001H91.9002C92.2002 45.3001 96.5002 41.6001 103.3 41.6001C110 41.6001 114.3 45.1001 114.3 50.7001V69.7001H108.9V65.2001H108.8C107.2 68.3001 103.7 70.2001 100.1 70.2001C94.5002 70.3001 90.7002 66.9001 90.7002 61.9001ZM108.5 59.5001V57.3001L101.7 57.7001C98.3002 57.9001 96.4002 59.4001 96.4002 61.8001C96.4002 64.2001 98.4002 65.8001 101.4 65.8001C105.5 65.8001 108.5 63.0001 108.5 59.5001Z" fill="black"/>
<path d="M119.3 80.0001V75.4001C119.7 75.5001 120.7 75.5001 121.1 75.5001C123.7 75.5001 125.1 74.4001 126 71.6001C126 71.5001 126.5 69.9001 126.5 69.9001L116.5 42.3H122.6L129.6 64.8H129.7L136.7 42.3H142.7L132.4 71.4001C130 78.1001 127.3 80.2001 121.6 80.2001C121.2 80.1001 119.7 80.0001 119.3 80.0001Z" fill="black"/>
</svg>
