<svg width="222" height="248" viewBox="0 0 222 248" fill="none" xmlns="http://www.w3.org/2000/svg">
<path fill-rule="evenodd" clip-rule="evenodd" d="M20.8584 235.285C20.9549 238.214 18.6374 240.307 15.7083 240.307H8.01544V230.457H15.7405C18.5087 230.489 20.7618 232.388 20.8584 235.285ZM211.378 217.164V246.551C211.378 247.066 210.927 247.388 210.412 247.388H204.265C203.782 247.388 203.299 247.034 203.299 246.551V217.164H193.643C193.16 217.164 192.806 216.681 192.806 216.198V211.144C192.806 210.629 193.16 210.179 193.643 210.179H221.163C221.678 210.179 222 210.629 222 211.144V216.198C222 216.681 221.646 217.164 221.163 217.164H211.378ZM57.3593 246.165V241.272C57.3593 240.918 57.1018 240.371 56.4581 240.371H42.0701C41.2011 240.371 39.4629 239.759 39.4629 237.538V230.457H54.7843C55.4281 230.457 55.6856 229.91 55.6856 229.588V224.631C55.6856 224.116 55.3315 223.73 54.6878 223.73H39.4629V219.771C39.4629 218.097 40.8792 217.164 42.0701 217.164H56.4259C57.1019 217.164 57.3593 216.649 57.3593 216.262V211.112C57.3593 210.597 56.9731 210.211 56.3615 210.211L41.3942 210.147C35.7935 210.114 31.3838 214.814 31.3838 220.028V237.635C31.3838 243.043 35.9545 247.388 41.2011 247.388H56.4581C57.0053 247.388 57.3593 247.002 57.3593 246.487C57.3593 246.39 57.3593 246.261 57.3593 246.165ZM118.355 227.625V227.367C119.482 226.691 120.447 225.79 121.188 224.663C121.96 223.569 122.507 222.249 122.862 220.736L125.308 211.273C125.404 210.855 125.115 210.211 124.407 210.211H118.613C118.42 210.211 118.226 210.243 118.001 210.34C117.776 210.404 117.647 210.629 117.551 210.984L115.169 219.9C114.879 220.994 114.493 221.863 114.042 222.475C113.559 223.118 113.044 223.601 112.465 223.891C111.885 224.213 111.306 224.406 110.727 224.502C110.147 224.599 109.568 224.631 109.053 224.631H104.869V211.08C104.869 210.501 104.386 210.211 103.967 210.211H97.755C97.24 210.211 96.7894 210.597 96.7894 211.048V246.519C96.7894 247.002 97.24 247.356 97.755 247.356H103.903C104.418 247.356 104.869 247.002 104.869 246.519V230.779H109.15C110.373 230.747 111.435 230.876 112.272 231.133C113.109 231.358 113.817 231.809 114.396 232.453C114.943 233.097 115.426 234.03 115.78 235.221L119.031 246.712C119.224 247.195 119.546 247.356 119.868 247.356H126.016C126.788 247.388 127.014 246.648 126.949 246.294L123.666 233.998C123.473 233.193 123.216 232.485 122.99 231.841C122.733 231.197 122.443 230.586 122.057 230.071C121.671 229.556 121.188 229.073 120.576 228.655C120.029 228.301 119.289 227.947 118.355 227.625ZM140.661 233.064L142.689 226.337L144.717 218.773H145.039L147.002 226.337L149.03 233.064H140.661ZM150.897 239.663L152.957 246.551C153.15 247.195 153.472 247.388 153.858 247.388H160.553C161.165 247.388 161.583 246.873 161.423 246.229L150.414 213.14C149.899 211.531 149.127 210.243 147.26 210.243H142.496C141.563 210.179 140.726 210.501 140.082 211.37C139.76 211.788 139.47 212.368 139.245 213.14L128.269 246.197C128.012 246.937 128.655 247.388 129.138 247.388H135.576C135.769 247.388 136.219 247.42 136.477 246.841C136.541 246.712 136.606 246.519 136.638 246.39L138.698 239.663H150.897V239.663ZM183.922 222.024C183.922 224.631 181.862 226.884 179.061 226.884H171.851V217.164H178.74C181.862 217.067 183.922 219.449 183.922 222.024ZM171.819 246.261V233.837H180.639C186.722 233.837 192.452 228.848 192.355 221.831C192.355 220.157 191.937 218.548 191.293 217.164C189.844 213.88 187.173 211.692 184.018 210.758C182.731 210.372 181.315 210.243 179.931 210.243H166.476C165.06 210.243 163.837 211.241 163.772 212.786C163.772 213.011 163.74 213.237 163.74 213.462V246.487C163.74 247.002 164.126 247.388 164.641 247.388H170.886C171.208 247.388 171.529 247.195 171.658 246.905C171.819 246.744 171.819 246.519 171.819 246.261ZM2.57571 247.388H16.513C23.4012 247.613 29.0019 242.849 29.2272 235.736C29.2272 235.124 29.2594 234.416 29.0985 233.612C27.8753 227.786 23.2725 223.762 17.4143 223.762H8.04762V217.131H24.045C24.6565 217.131 25.0106 216.713 25.0106 216.134V211.402C25.0106 210.758 24.7853 210.211 24.045 210.243H2.80102C0.61225 210.243 0.000672745 211.853 0.000672745 212.85V244.781C-0.0315151 246.197 1.09507 247.388 2.57571 247.388ZM66.1466 213.784L65.6638 221.831C65.5029 224.567 65.3419 226.949 65.1488 228.977C64.8591 232.324 64.505 240.371 60.1597 240.371H59.9988C59.6125 240.371 59.0975 240.693 59.0975 241.24V246.165V246.422C59.0975 247.002 59.4838 247.388 59.9988 247.388C60.0631 247.388 60.3206 247.388 60.385 247.388C63.6682 247.388 66.5329 247.034 69.0113 243.3C69.7838 242.141 70.4598 240.822 70.9426 239.309C71.4254 237.828 71.8117 236.122 72.1014 234.288C72.3911 232.453 72.6164 230.393 72.8095 228.172C72.9704 225.951 73.1636 223.537 73.3245 220.93L73.5498 217.228H83.8821V246.487C83.8821 246.969 84.3006 247.42 84.8478 247.388H90.9956C91.6394 247.388 91.9613 246.937 91.9613 246.422V212.818C91.9613 211.434 90.8025 210.211 89.1609 210.211H68.8182C67.241 210.211 66.3397 211.595 66.2754 212.722C66.2432 213.044 66.1788 213.398 66.1466 213.784Z" fill="white"/>
<path fill-rule="evenodd" clip-rule="evenodd" d="M93.8299 20.6884C93.8299 19.5296 92.8965 18.5962 91.7377 18.5962H51.9858C50.827 18.5962 49.8936 19.5296 49.8936 20.6884V80.4933C49.8936 81.6521 50.827 82.5855 51.9858 82.5855H91.7377C92.8965 82.5855 93.8299 81.6521 93.8299 80.4933V61.3416L81.4698 45.7949L93.8299 58.155V30.5057L81.4698 42.8658L93.8299 20.6884Z" fill="white"/>
<path fill-rule="evenodd" clip-rule="evenodd" d="M147.84 38.6173H130.362L154.793 31.6647C155.597 30.8601 155.597 29.5404 154.793 28.7035L126.693 0.603521C125.888 -0.201174 124.568 -0.201174 123.731 0.603521L81.4688 42.8661C80.6641 43.6708 80.6641 45.0227 81.4688 45.8274L109.569 73.9273C110.373 74.732 111.725 74.732 112.53 73.9273L126.049 60.4085L128.302 40.6773C128.302 39.5186 129.235 38.5851 130.394 38.5851L147.84 38.6173Z" fill="white"/>
<path fill-rule="evenodd" clip-rule="evenodd" d="M85.2027 98.3265L71.6838 84.8077L51.9527 82.5545C50.7939 82.5545 49.8605 81.6211 49.8605 80.4623L42.9079 56.0317C42.1032 55.227 40.7513 55.227 39.9466 56.0317L11.8467 84.1317C11.042 84.9364 11.042 86.2561 11.8467 87.093L54.1415 129.388C55.0427 130.289 57.1027 129.967 57.1027 129.388L85.2027 101.288C86.0074 100.451 86.0074 99.1312 85.2027 98.3265Z" fill="white"/>
<path fill-rule="evenodd" clip-rule="evenodd" d="M91.737 117.026H72.6174L57.0707 129.386C56.266 130.191 54.9141 130.191 54.1094 129.386L31.8998 117.026C30.7411 117.026 29.8076 117.96 29.8076 119.119V158.871C29.8076 160.029 30.7411 160.963 31.8998 160.963H91.7048C92.8635 160.963 93.797 160.029 93.797 158.871V119.119C93.8292 117.96 92.8635 117.026 91.737 117.026Z" fill="white"/>
<path fill-rule="evenodd" clip-rule="evenodd" d="M140.664 153.753L112.564 125.653C111.759 124.849 110.439 124.849 109.602 125.653L96.0835 139.172L93.8304 158.903C93.8304 160.062 92.8969 160.996 91.7382 160.996L67.3076 167.948C66.5029 168.753 66.5029 170.072 67.3076 170.909L95.4076 199.009C96.2123 199.814 97.5642 199.814 98.3689 199.009L140.664 156.715C141.468 155.91 141.468 154.558 140.664 153.753Z" fill="white"/>
<path fill-rule="evenodd" clip-rule="evenodd" d="M170.145 117.026H130.393C129.234 117.026 128.301 117.96 128.301 119.119V138.238L140.661 153.785C141.466 154.59 141.466 155.909 140.661 156.746L128.301 178.956C128.301 180.114 129.234 181.048 130.393 181.048H170.145C171.304 181.048 172.237 180.114 172.237 178.956V119.119C172.237 117.96 171.272 117.026 170.145 117.026Z" fill="white"/>
<path fill-rule="evenodd" clip-rule="evenodd" d="M210.252 112.489L167.989 70.1939C167.184 69.3892 165.832 69.3892 165.028 70.1939L152.668 82.554L136.896 98.326C136.091 99.1307 136.091 100.483 136.896 101.287L150.414 114.806L170.146 117.059C171.304 117.059 172.238 117.993 172.238 119.152L179.19 143.582C179.995 144.387 181.347 144.387 182.152 143.582L210.252 115.482C211.056 114.613 211.056 113.293 210.252 112.489Z" fill="white"/>
<path fill-rule="evenodd" clip-rule="evenodd" d="M190.167 38.6177H130.362C129.203 38.6177 128.27 39.5511 128.27 40.7099V80.4618C128.27 81.6206 129.203 82.554 130.362 82.554H149.481L165.028 70.1939C165.833 69.3892 167.152 69.3892 167.989 70.1939L190.199 82.554C191.358 82.554 192.291 81.6206 192.291 80.4618V40.7099C192.259 39.5511 191.325 38.6177 190.167 38.6177Z" fill="white"/>
</svg>
