<svg width="135" height="151" viewBox="0 0 135 151" fill="none" xmlns="http://www.w3.org/2000/svg">
<path fill-rule="evenodd" clip-rule="evenodd" d="M12.6841 143.079C12.7429 144.86 11.3336 146.132 9.55236 146.132H4.87426V140.143H9.57194C11.2553 140.162 12.6254 141.317 12.6841 143.079ZM128.541 132.059V149.929C128.541 150.243 128.267 150.438 127.953 150.438H124.215C123.921 150.438 123.628 150.223 123.628 149.929V132.059H117.756C117.462 132.059 117.247 131.765 117.247 131.471V128.398C117.247 128.085 117.462 127.811 117.756 127.811H134.491C134.804 127.811 135 128.085 135 128.398V131.471C135 131.765 134.785 132.059 134.491 132.059H128.541ZM34.8807 149.695V146.719C34.8807 146.504 34.7241 146.171 34.3326 146.171H25.5832C25.0547 146.171 23.9977 145.799 23.9977 144.449V140.143H33.3148C33.7063 140.143 33.8629 139.81 33.8629 139.614V136.6C33.8629 136.287 33.6475 136.052 33.2561 136.052H23.9977V133.644C23.9977 132.626 24.859 132.059 25.5832 132.059H34.3131C34.7241 132.059 34.8807 131.745 34.8807 131.511V128.379C34.8807 128.066 34.6458 127.831 34.2739 127.831L25.1721 127.792C21.7663 127.772 19.0847 130.63 19.0847 133.801V144.508C19.0847 147.796 21.8642 150.438 25.0547 150.438H34.3326C34.6654 150.438 34.8807 150.203 34.8807 149.89C34.8807 149.832 34.8807 149.753 34.8807 149.695ZM71.9728 138.42V138.264C72.6579 137.852 73.2451 137.304 73.6953 136.619C74.165 135.954 74.4978 135.151 74.7131 134.231L76.2007 128.477C76.2594 128.222 76.0833 127.831 75.6526 127.831H72.1294C72.0119 127.831 71.8945 127.85 71.7575 127.909C71.6205 127.948 71.5422 128.085 71.4834 128.301L70.035 133.722C69.8588 134.388 69.624 134.916 69.3499 135.288C69.0563 135.68 68.7431 135.973 68.3908 136.15C68.0385 136.345 67.6861 136.463 67.3338 136.521C66.9815 136.58 66.6292 136.6 66.316 136.6H63.7714V128.359C63.7714 128.007 63.4778 127.831 63.2234 127.831H59.4456C59.1325 127.831 58.8584 128.066 58.8584 128.34V149.91C58.8584 150.203 59.1325 150.419 59.4456 150.419H63.1842C63.4974 150.419 63.7714 150.203 63.7714 149.91V140.338H66.3747C67.1185 140.319 67.7644 140.397 68.2734 140.554C68.7823 140.691 69.2129 140.965 69.5652 141.356C69.898 141.748 70.1916 142.315 70.4069 143.039L72.3838 150.027C72.5013 150.321 72.697 150.419 72.8928 150.419H76.6313C77.1011 150.438 77.2381 149.988 77.199 149.773L75.2024 142.296C75.085 141.806 74.9284 141.376 74.7914 140.984C74.6348 140.593 74.4586 140.221 74.2238 139.908C73.9889 139.595 73.6953 139.301 73.3234 139.046C72.9906 138.831 72.5404 138.616 71.9728 138.42ZM85.5373 141.728L86.7705 137.637L88.0036 133.037H88.1994L89.3934 137.637L90.6265 141.728H85.5373ZM91.7618 145.741L93.0145 149.929C93.1319 150.321 93.3277 150.438 93.5625 150.438H97.6339C98.0058 150.438 98.2602 150.125 98.1623 149.734L91.4682 129.612C91.155 128.633 90.6852 127.85 89.5499 127.85H86.653C86.0854 127.811 85.5765 128.007 85.185 128.535C84.9893 128.79 84.8131 129.142 84.6761 129.612L78.0015 149.714C77.8449 150.164 78.2364 150.438 78.53 150.438H82.4447C82.5621 150.438 82.8362 150.458 82.9928 150.106C83.0319 150.027 83.0711 149.91 83.0906 149.832L84.3433 145.741H91.7618V145.741ZM111.844 135.014C111.844 136.6 110.592 137.97 108.889 137.97H104.504V132.059H108.693C110.592 132 111.844 133.448 111.844 135.014ZM104.485 149.753V142.198H109.848C113.547 142.198 117.031 139.164 116.973 134.897C116.973 133.879 116.718 132.9 116.327 132.059C115.446 130.062 113.821 128.731 111.903 128.163C111.12 127.929 110.259 127.85 109.417 127.85H101.235C100.374 127.85 99.6304 128.457 99.5912 129.397C99.5912 129.534 99.5717 129.671 99.5717 129.808V149.89C99.5717 150.203 99.8065 150.438 100.12 150.438H103.917C104.113 150.438 104.308 150.321 104.387 150.145C104.485 150.047 104.485 149.91 104.485 149.753ZM1.56631 150.438H10.0417C14.2305 150.575 17.6363 147.678 17.7733 143.353C17.7733 142.981 17.7929 142.55 17.695 142.061C16.9512 138.518 14.1522 136.071 10.5898 136.071H4.89383V132.039H14.6219C14.9938 132.039 15.2091 131.785 15.2091 131.432V128.555C15.2091 128.164 15.0721 127.831 14.6219 127.85H1.70332C0.372314 127.85 0.000409102 128.829 0.000409102 129.436V148.853C-0.0191646 149.714 0.66592 150.438 1.56631 150.438ZM40.2243 130.003L39.9307 134.897C39.8328 136.561 39.735 138.009 39.6175 139.242C39.4414 141.278 39.226 146.171 36.5836 146.171H36.4857C36.2508 146.171 35.9377 146.367 35.9377 146.7V149.695V149.851C35.9377 150.203 36.1726 150.438 36.4857 150.438C36.5249 150.438 36.6815 150.438 36.7206 150.438C38.7171 150.438 40.4592 150.223 41.9664 147.952C42.4361 147.248 42.8472 146.445 43.1408 145.525C43.4344 144.625 43.6693 143.588 43.8454 142.472C44.0216 141.356 44.1586 140.103 44.2761 138.753C44.3739 137.402 44.4914 135.934 44.5892 134.349L44.7262 132.098H51.0094V149.89C51.0094 150.184 51.2639 150.458 51.5966 150.438H55.3352C55.7266 150.438 55.9224 150.164 55.9224 149.851V129.416C55.9224 128.575 55.2177 127.831 54.2195 127.831H41.8489C40.8898 127.831 40.3417 128.672 40.3026 129.357C40.283 129.553 40.2439 129.769 40.2243 130.003Z" fill="black"/>
<path fill-rule="evenodd" clip-rule="evenodd" d="M57.0589 12.5811C57.0589 11.8765 56.4912 11.3088 55.7866 11.3088H31.6131C30.9085 11.3088 30.3408 11.8765 30.3408 12.5811V48.949C30.3408 49.6537 30.9085 50.2213 31.6131 50.2213H55.7866C56.4912 50.2213 57.0589 49.6537 57.0589 48.949V37.3027L49.5426 27.8486L57.0589 35.3649V18.5511L49.5426 26.0674L57.0589 12.5811Z" fill="black"/>
<path fill-rule="evenodd" clip-rule="evenodd" d="M89.9027 23.4835H79.2742L94.1306 19.2556C94.62 18.7662 94.62 17.9637 94.1306 17.4548L77.0428 0.367006C76.5535 -0.122335 75.7509 -0.122335 75.242 0.367006L49.5418 26.0672C49.0525 26.5566 49.0525 27.3787 49.5418 27.868L66.6296 44.9558C67.119 45.4452 67.9411 45.4452 68.4304 44.9558L76.6513 36.7349L78.0215 24.7362C78.0215 24.0316 78.5891 23.4639 79.2938 23.4639L89.9027 23.4835Z" fill="black"/>
<path fill-rule="evenodd" clip-rule="evenodd" d="M51.8123 59.7926L43.5914 51.5717L31.5927 50.2015C30.8881 50.2015 30.3204 49.6339 30.3204 48.9292L26.0925 34.0728C25.6032 33.5835 24.7811 33.5835 24.2917 34.0728L7.20392 51.1606C6.71458 51.65 6.71458 52.4525 7.20392 52.9614L32.9237 78.6812C33.4718 79.2293 34.7245 79.0335 34.7245 78.6812L51.8123 61.5934C52.3017 61.0845 52.3017 60.282 51.8123 59.7926Z" fill="black"/>
<path fill-rule="evenodd" clip-rule="evenodd" d="M55.7857 71.1648H44.159L34.7049 78.6811C34.2155 79.1704 33.3934 79.1704 32.9041 78.6811L19.3983 71.1648C18.6936 71.1648 18.126 71.7324 18.126 72.4371V96.6106C18.126 97.3152 18.6936 97.8828 19.3983 97.8828H55.7661C56.4708 97.8828 57.0384 97.3152 57.0384 96.6106V72.4371C57.058 71.7324 56.4708 71.1648 55.7857 71.1648Z" fill="black"/>
<path fill-rule="evenodd" clip-rule="evenodd" d="M85.5389 93.4988L68.4511 76.411C67.9617 75.9216 67.1592 75.9216 66.6503 76.411L58.4293 84.6319L57.0592 96.6305C57.0592 97.3352 56.4916 97.9028 55.7869 97.9028L40.9305 102.131C40.4411 102.62 40.4411 103.423 40.9305 103.932L58.0183 121.019C58.5076 121.509 59.3297 121.509 59.8191 121.019L85.5389 95.2995C86.0282 94.8102 86.0282 93.9881 85.5389 93.4988Z" fill="black"/>
<path fill-rule="evenodd" clip-rule="evenodd" d="M103.466 71.1648H79.2928C78.5881 71.1648 78.0205 71.7324 78.0205 72.4371V84.0638L85.5368 93.5179C86.0261 94.0073 86.0261 94.8098 85.5368 95.3187L78.0205 108.825C78.0205 109.529 78.5881 110.097 79.2928 110.097H103.466C104.171 110.097 104.739 109.529 104.739 108.825V72.4371C104.739 71.7324 104.151 71.1648 103.466 71.1648Z" fill="black"/>
<path fill-rule="evenodd" clip-rule="evenodd" d="M127.855 68.4054L102.155 42.6856C101.666 42.1963 100.844 42.1963 100.354 42.6856L92.838 50.2019L83.2469 59.793C82.7575 60.2823 82.7575 61.1044 83.2469 61.5938L91.4678 69.8147L103.466 71.1849C104.171 71.1849 104.739 71.7525 104.739 72.4572L108.967 87.3136C109.456 87.8029 110.278 87.8029 110.767 87.3136L127.855 70.2258C128.345 69.6973 128.345 68.8947 127.855 68.4054Z" fill="black"/>
<path fill-rule="evenodd" clip-rule="evenodd" d="M115.642 23.4836H79.2742C78.5696 23.4836 78.002 24.0513 78.002 24.7559V48.9294C78.002 49.6341 78.5696 50.2017 79.2742 50.2017H90.901L100.355 42.6854C100.844 42.1961 101.647 42.1961 102.156 42.6854L115.662 50.2017C116.366 50.2017 116.934 49.6341 116.934 48.9294V24.7559C116.914 24.0513 116.347 23.4836 115.642 23.4836Z" fill="black"/>
</svg>
