<svg width="315" height="73" viewBox="0 0 315 73" fill="none" xmlns="http://www.w3.org/2000/svg">
<path fill-rule="evenodd" clip-rule="evenodd" d="M7.41125 0.293457H59.0652C63.1407 0.293457 66.4765 3.62925 66.4765 7.70471V59.3659C66.4765 63.4414 63.1407 66.7772 59.0652 66.7772H7.41125C3.33579 66.7772 0 63.4414 0 59.3659V7.70471C0 3.62925 3.33579 0.293457 7.41125 0.293457Z" fill="white"/>
<path fill-rule="evenodd" clip-rule="evenodd" d="M45.0185 49.7211H37.0924C36.8604 49.7211 36.6791 49.5326 36.6791 49.3078V47.3426L30.7109 53.3107C30.5514 53.4703 30.2831 53.4703 30.1235 53.3107L24.518 47.7051C24.3584 47.5456 24.3584 47.2773 24.518 47.1178L25.903 45.7327H17.4693C17.2372 45.7327 17.0559 45.5441 17.0559 45.3193V37.3932C17.0559 37.1611 17.2445 36.9799 17.4693 36.9799H19.4345L13.4663 31.0117C13.3068 30.8522 13.3068 30.5838 13.4663 30.4243L19.0719 24.8187C19.2314 24.6592 19.4998 24.6592 19.6593 24.8187L21.0444 26.2038V17.7701C21.0444 17.538 21.2329 17.3567 21.4577 17.3567H29.3839C29.6159 17.3567 29.7972 17.5453 29.7972 17.7701V19.7353L35.7654 13.7671C35.9249 13.6076 36.1932 13.6076 36.3528 13.7671L41.9583 19.3727C42.1179 19.5322 42.1179 19.8005 41.9583 19.9601L40.5732 21.3452H49.007C49.239 21.3452 49.4203 21.5337 49.4203 21.7585V29.6846C49.4203 29.9167 49.2318 30.098 49.007 30.098H47.049L53.0099 36.0589C53.1695 36.2184 53.1695 36.4867 53.0099 36.6463L47.4044 42.2519C47.2448 42.4114 46.9765 42.4114 46.817 42.2519L45.4319 40.8668V49.3005C45.4392 49.5326 45.2506 49.7211 45.0185 49.7211ZM43.9961 27.6324L40.8996 30.098H37.0924C36.8604 30.098 36.6791 29.9094 36.6791 29.6846V21.7585L36.2295 25.6889L33.5391 28.3793C33.3795 28.5389 33.1112 28.5389 32.9517 28.3793L29.8117 25.2393L27.3461 22.7737L29.8117 25.8702V29.6774C29.8117 29.9094 29.6232 30.0907 29.3984 30.0907H21.4722L25.4027 30.5403L28.093 33.2307C28.2526 33.3903 28.2526 33.6586 28.093 33.8181L22.4875 39.4237L25.5839 36.9581H29.3911C29.6232 36.9581 29.8045 37.1466 29.8045 37.3714V45.2976L30.2541 41.3671L32.9444 38.6768C33.104 38.5172 33.3723 38.5172 33.5318 38.6768L39.1374 44.2823L36.6718 41.1858V37.3787C36.6718 37.1466 36.8604 36.9654 37.0852 36.9654H45.0113L41.0809 36.5157L38.3905 33.8254C38.2309 33.6658 38.2309 33.3975 38.3905 33.238L41.5305 30.098L43.9961 27.6324Z" fill="black"/>
<path fill-rule="evenodd" clip-rule="evenodd" d="M101.981 26.9146C102.075 30.0111 99.6314 32.2446 96.535 32.2446H88.3986V21.8022H96.593C99.4864 21.8022 101.887 23.8182 101.981 26.9146ZM303.716 7.71934V38.8147C303.716 39.3513 303.245 39.7139 302.708 39.7139H296.196C295.682 39.7139 295.188 39.3368 295.188 38.8147V7.71934H284.971C284.449 7.71934 284.072 7.22623 284.072 6.71136V1.38134C284.072 0.844713 284.434 0.373352 284.971 0.373352C294.681 0.373352 304.391 0.373352 314.101 0.373352C314.638 0.373352 315 0.844713 315 1.38134V6.71136C315 7.22623 314.623 7.71934 314.101 7.71934H303.716V7.71934ZM140.64 38.4231V33.2526C140.64 32.8683 140.35 32.3027 139.69 32.3027H124.44C123.511 32.3027 121.669 31.6573 121.669 29.2932V21.8094H137.877C138.559 21.8094 138.841 21.2293 138.841 20.8885V15.631C138.841 15.0798 138.457 14.681 137.775 14.681H121.662V10.4822C121.662 8.69832 123.142 7.71934 124.432 7.71934H139.632C140.343 7.71934 140.633 7.16821 140.633 6.76936V1.31608C140.633 0.779451 140.227 0.366105 139.567 0.366105L123.736 0.293583C117.79 0.264576 113.127 5.2465 113.127 10.7506V29.3875C113.127 35.1018 117.957 39.7139 123.511 39.7139H139.661C140.234 39.7139 140.618 39.2933 140.625 38.7639C140.64 38.6624 140.64 38.5319 140.64 38.4231ZM205.224 18.7782V18.4954C206.427 17.763 207.443 16.813 208.233 15.6455C209.038 14.4779 209.625 13.0929 209.995 11.4975L212.577 1.47562C212.671 1.03326 212.374 0.358851 211.641 0.358851H205.507C205.303 0.3516 205.086 0.387857 204.861 0.482129C204.636 0.56915 204.477 0.793952 204.382 1.14929L201.859 10.5983C201.562 11.7513 201.155 12.665 200.662 13.3394C200.169 14.0211 199.618 14.5287 199.009 14.855C198.407 15.1814 197.791 15.3989 197.174 15.5004C196.551 15.5947 195.956 15.6382 195.405 15.631H190.974V1.29432C190.974 0.692431 190.466 0.358851 190.039 0.358851H183.454C182.896 0.358851 182.446 0.757694 182.446 1.25806V38.8074C182.446 39.3296 182.939 39.7067 183.454 39.7067H189.966C190.503 39.7067 190.974 39.3441 190.974 38.8074V22.1358H195.521C196.819 22.114 197.928 22.2373 198.82 22.4983C199.72 22.7522 200.467 23.2163 201.068 23.8979C201.656 24.5796 202.156 25.5658 202.533 26.8421L205.992 39.025C206.181 39.5254 206.529 39.6994 206.884 39.6994H213.396C214.216 39.7357 214.462 38.9452 214.375 38.5754L210.895 25.5513C210.677 24.7101 210.438 23.9414 210.184 23.2598C209.923 22.5709 209.596 21.9472 209.19 21.3961C208.799 20.8449 208.277 20.3518 207.639 19.9095C207 19.4961 206.195 19.1118 205.224 18.7782ZM228.85 24.5578L230.982 17.4439L233.114 9.438H233.447L235.521 17.4439L237.653 24.5578H228.85ZM239.684 31.5195L241.874 38.8147C242.062 39.4819 242.418 39.7139 242.838 39.7139H249.938C250.605 39.7139 251.033 39.1555 250.873 38.4884L239.234 3.44083C238.683 1.73668 237.864 0.358851 235.884 0.358851L230.844 0.373352C229.843 0.308087 228.966 0.64892 228.284 1.54813C227.936 2.00499 227.639 2.62139 227.392 3.44083L215.76 38.4449C215.499 39.2208 216.152 39.7139 216.674 39.7139H223.505C223.723 39.7139 224.187 39.7429 224.477 39.1338C224.542 38.996 224.608 38.8074 224.644 38.6479L226.834 31.5195H239.684ZM274.652 12.8681C274.644 15.6165 272.462 18.024 269.496 18.024L261.845 18.0168V7.71934H269.14C272.454 7.61057 274.652 10.1269 274.652 12.8681ZM261.845 38.5319V25.3773H271.171C277.625 25.3773 283.665 20.098 283.564 12.6578C283.564 10.8738 283.114 9.19144 282.454 7.71934C280.91 4.25302 278.082 1.93972 274.746 0.917231C273.383 0.503883 271.889 0.373355 270.424 0.358851H256.181C254.666 0.358851 253.397 1.4031 253.332 3.05649C253.324 3.28855 253.295 3.52785 253.303 3.78166V38.7567C253.303 39.3006 253.709 39.7067 254.267 39.7067H260.895C261.236 39.7067 261.57 39.5036 261.722 39.199C261.831 39.0177 261.845 38.8002 261.845 38.5319ZM82.6407 39.7139H97.3834C104.671 39.9677 110.618 34.9133 110.857 27.3642C110.864 26.7188 110.901 25.9502 110.727 25.1017C109.436 18.9232 104.555 14.681 98.3334 14.681H88.3986V7.66133H105.353C105.991 7.67583 106.376 7.21897 106.361 6.59533V1.59889C106.376 0.917233 106.122 0.34435 105.353 0.366105H82.8437C80.5377 0.366105 79.8633 2.05575 79.8633 3.13626V36.9438C79.8633 38.4666 81.0671 39.7139 82.6407 39.7139ZM149.951 4.12249L149.443 12.6578C149.277 15.5657 149.088 18.082 148.892 20.2358C148.581 23.7891 148.225 32.3027 143.62 32.3027C143.57 32.3027 143.504 32.3027 143.439 32.3027C143.026 32.3027 142.496 32.6507 142.496 33.2236V38.4231C142.496 38.5319 142.496 38.6044 142.496 38.6987C142.496 39.3006 142.902 39.7139 143.446 39.7139C143.526 39.7139 143.78 39.7139 143.86 39.7139C147.326 39.6994 150.364 39.3368 152.99 35.3774C153.809 34.1373 154.534 32.7378 155.049 31.1569C155.571 29.576 155.985 27.7993 156.282 25.8414C156.579 23.8834 156.826 21.7369 157.022 19.3801C157.21 17.0305 157.399 14.4779 157.58 11.7078L157.805 7.77736H168.748V38.7639C168.748 39.2861 169.197 39.7647 169.756 39.7139H176.26C176.935 39.7139 177.276 39.2498 177.276 38.7059V3.13626C177.283 1.66416 176.05 0.366105 174.31 0.366105H152.772C151.119 0.366105 150.14 1.81644 150.067 3.01298C150.053 3.35381 149.973 3.7164 149.951 4.12249Z" fill="white"/>
<path fill-rule="evenodd" clip-rule="evenodd" d="M92.2995 53.0858L89.7542 57.3788L84.9173 65.2179C84.7432 65.4862 84.5909 65.6965 84.4604 65.8633C84.3299 66.0228 84.1849 66.1534 84.0326 66.2476C83.8803 66.3419 83.7062 66.4072 83.5032 66.4362C83.3001 66.4652 83.0608 66.4797 82.7708 66.4797H81.625C80.8781 66.4797 80.385 66.3057 80.1384 65.9503C79.8918 65.595 79.7686 65.1164 79.7686 64.5072V46.9726C79.7686 46.61 79.9716 46.4287 80.3704 46.4287H83.4307C83.699 46.4287 83.8658 46.465 83.931 46.5447C83.9963 46.6245 84.0326 46.7623 84.0326 46.9726V59.8444H84.2066L86.6359 55.8414L91.5816 47.7195C91.7556 47.4512 91.9079 47.2336 92.0385 47.0596C92.169 46.8856 92.314 46.755 92.4663 46.6608C92.6186 46.5665 92.7926 46.5012 92.9812 46.4722C93.1697 46.4432 93.409 46.4287 93.6991 46.4287H94.8739C95.5773 46.4287 96.0632 46.5737 96.3315 46.8711C96.5998 47.1684 96.7303 47.6833 96.7303 48.4302V65.9358C96.7303 66.2984 96.5273 66.4797 96.1284 66.4797H93.0682C92.7999 66.4797 92.6331 66.4434 92.5533 66.3637C92.4808 66.2839 92.4373 66.1461 92.4373 65.9358V53.093H92.2995V53.0858ZM104.881 65.9068C104.881 66.1534 104.838 66.3129 104.751 66.3782C104.664 66.4434 104.49 66.4797 104.221 66.4797H101.364C100.944 66.4797 100.733 66.2912 100.733 65.9068V52.0053C100.733 51.6427 100.944 51.4614 101.364 51.4614H104.221C104.49 51.4614 104.664 51.4977 104.751 51.5629C104.838 51.6282 104.881 51.7805 104.881 52.0053V56.9002H110.233V52.0053C110.233 51.6427 110.443 51.4614 110.864 51.4614H113.743C114.011 51.4614 114.185 51.4977 114.265 51.5629C114.345 51.6282 114.381 51.7805 114.381 52.0053V65.9068C114.381 66.1534 114.345 66.3129 114.265 66.3782C114.185 66.4434 114.011 66.4797 113.743 66.4797H110.864C110.436 66.4797 110.233 66.2912 110.233 65.9068V60.1562H104.881V65.9068ZM125.28 54.8334V65.9068C125.28 66.1534 125.237 66.3129 125.15 66.3782C125.063 66.4434 124.889 66.4797 124.62 66.4797H121.785C121.343 66.4797 121.125 66.2912 121.125 65.9068V54.8334H117.071C116.687 54.8334 116.498 54.6231 116.498 54.2025V52.1141C116.498 51.8457 116.535 51.6717 116.6 51.5847C116.665 51.4977 116.825 51.4541 117.071 51.4541H129.428C129.66 51.4541 129.813 51.4977 129.885 51.5847C129.965 51.6717 130.001 51.8457 130.001 52.1141V54.2025C130.001 54.6231 129.813 54.8334 129.428 54.8334H125.28ZM137.811 51.0843C140.045 51.0843 141.713 51.6427 142.829 52.7595C143.946 53.8762 144.505 55.4716 144.505 57.5528C144.505 58.5463 144.316 59.2207 143.932 59.5833C143.547 59.9459 143.025 60.1272 142.358 60.1272H135.034C135.056 60.7363 135.15 61.244 135.331 61.6428C135.512 62.0417 135.752 62.368 136.064 62.6145C136.368 62.8611 136.724 63.0351 137.137 63.1294C137.55 63.2237 137.993 63.2744 138.464 63.2744C139.015 63.2744 139.581 63.2092 140.154 63.0714C140.726 62.9409 141.263 62.7668 141.756 62.5565C141.988 62.484 142.141 62.455 142.228 62.484C142.315 62.513 142.394 62.6 142.467 62.7523L143.381 64.8118C143.46 64.9858 143.468 65.1164 143.424 65.2106C143.373 65.3049 143.279 65.3992 143.127 65.4935C142.423 65.9503 141.604 66.2839 140.668 66.4797C139.733 66.6827 138.863 66.777 138.065 66.777C135.563 66.777 133.714 66.1606 132.518 64.9206C131.314 63.6805 130.712 61.7153 130.712 59.0249C130.712 57.7631 130.879 56.6464 131.212 55.6601C131.546 54.6812 132.024 53.84 132.641 53.1583C133.257 52.4694 134.004 51.9545 134.874 51.5992C135.745 51.2656 136.724 51.0843 137.811 51.0843ZM137.898 54.5216C137.115 54.5216 136.477 54.7972 135.984 55.3483C135.491 55.8994 135.201 56.6101 135.128 57.4658H140.48C140.48 57.0452 140.436 56.6536 140.349 56.291C140.262 55.9285 140.125 55.6166 139.936 55.3628C139.747 55.1018 139.486 54.8987 139.16 54.7464C138.834 54.5941 138.413 54.5216 137.898 54.5216ZM151.684 71.8242C151.684 72.0345 151.648 72.165 151.582 72.2231C151.517 72.2811 151.35 72.3101 151.089 72.3101H148.13C147.92 72.3101 147.775 72.2811 147.681 72.2231C147.587 72.165 147.536 72.0345 147.536 71.8242V53.1728C147.536 52.9625 147.572 52.7957 147.637 52.6724C147.703 52.5492 147.862 52.4186 148.109 52.2881C149.022 51.8675 150.052 51.5702 151.183 51.4034C152.315 51.2293 153.402 51.1423 154.432 51.1423C155.788 51.1423 156.927 51.3454 157.848 51.7587C158.776 52.1721 159.516 52.7232 160.081 53.4194C160.647 54.1155 161.046 54.9422 161.3 55.8922C161.546 56.8494 161.669 57.8647 161.669 58.9524C161.669 60.0184 161.539 61.0264 161.271 61.9691C161.002 62.9119 160.589 63.7386 160.038 64.442C159.487 65.1454 158.776 65.7038 157.928 66.1171C157.072 66.5305 156.078 66.7335 154.925 66.7335C154.352 66.7335 153.816 66.7118 153.33 66.661C152.844 66.6102 152.293 66.5232 151.684 66.3927V71.8242ZM157.326 58.8654C157.326 58.0822 157.246 57.4223 157.094 56.8929C156.941 56.3563 156.709 55.9285 156.419 55.6021C156.122 55.2758 155.759 55.051 155.324 54.9132C154.889 54.7827 154.41 54.7102 153.867 54.7102C153.598 54.7102 153.25 54.7392 152.815 54.7972C152.387 54.8552 152.003 54.9277 151.677 55.0292V62.8393C152.177 62.9699 152.619 63.0569 153.011 63.1004C153.41 63.1367 153.758 63.1584 154.062 63.1584C155.02 63.1584 155.796 62.8321 156.405 62.1867C157.021 61.534 157.326 60.4318 157.326 58.8654ZM168.965 65.9068C168.965 66.1534 168.921 66.3129 168.834 66.3782C168.747 66.4434 168.573 66.4797 168.305 66.4797H165.448C165.027 66.4797 164.817 66.2912 164.817 65.9068V52.0053C164.817 51.6427 165.027 51.4614 165.448 51.4614H168.305C168.573 51.4614 168.747 51.4977 168.834 51.5629C168.921 51.6282 168.965 51.7805 168.965 52.0053V56.9002H174.316V52.0053C174.316 51.6427 174.527 51.4614 174.947 51.4614H177.826C178.095 51.4614 178.269 51.4977 178.348 51.5629C178.421 51.6282 178.464 51.7805 178.464 52.0053V65.9068C178.464 66.1534 178.428 66.3129 178.348 66.3782C178.269 66.4434 178.095 66.4797 177.826 66.4797H174.947C174.519 66.4797 174.316 66.2912 174.316 65.9068V60.1562H168.965V65.9068ZM188.675 51.0843C190.908 51.0843 192.583 51.6427 193.693 52.7595C194.81 53.8762 195.368 55.4716 195.368 57.5528C195.368 58.5463 195.18 59.2207 194.795 59.5833C194.411 59.9459 193.889 60.1272 193.222 60.1272H185.897C185.919 60.7363 186.013 61.244 186.195 61.6428C186.376 62.0417 186.623 62.368 186.927 62.6145C187.232 62.8611 187.587 63.0351 188 63.1294C188.414 63.2237 188.856 63.2744 189.327 63.2744C189.879 63.2744 190.444 63.2092 191.017 63.0714C191.59 62.9409 192.127 62.7668 192.62 62.5565C192.852 62.484 193.004 62.455 193.091 62.484C193.178 62.513 193.258 62.6 193.338 62.7523L194.251 64.8118C194.331 64.9858 194.338 65.1164 194.295 65.2106C194.244 65.3049 194.15 65.3992 193.998 65.4935C193.294 65.9503 192.475 66.2839 191.539 66.4797C190.604 66.6827 189.734 66.777 188.936 66.777C186.434 66.777 184.585 66.1606 183.388 64.9206C182.185 63.6805 181.583 61.7153 181.583 59.0249C181.583 57.7631 181.749 56.6464 182.083 55.6601C182.417 54.6812 182.895 53.84 183.512 53.1583C184.135 52.4694 184.875 51.9545 185.745 51.5992C186.608 51.2656 187.587 51.0843 188.675 51.0843ZM188.762 54.5216C187.979 54.5216 187.34 54.7972 186.847 55.3483C186.354 55.8994 186.064 56.6101 185.992 57.4658H191.343C191.343 57.0452 191.3 56.6536 191.213 56.291C191.126 55.9285 190.988 55.6166 190.8 55.3628C190.611 55.1018 190.35 54.8987 190.024 54.7464C189.697 54.5941 189.277 54.5216 188.762 54.5216ZM205.615 54.8334V65.9068C205.615 66.1534 205.571 66.3129 205.484 66.3782C205.397 66.4434 205.223 66.4797 204.955 66.4797H202.119C201.677 66.4797 201.46 66.2912 201.46 65.9068V54.8334H197.399C197.014 54.8334 196.826 54.6231 196.826 54.2025V52.1141C196.826 51.8457 196.862 51.6717 196.927 51.5847C196.993 51.4977 197.152 51.4541 197.399 51.4541H209.756C209.988 51.4541 210.14 51.4977 210.212 51.5847C210.292 51.6717 210.328 51.8457 210.328 52.1141V54.2025C210.328 54.6231 210.14 54.8334 209.756 54.8334H205.615ZM229.212 65.9358C229.212 66.1461 229.176 66.2912 229.096 66.3637C229.016 66.4434 228.849 66.4797 228.581 66.4797H225.463C225.064 66.4797 224.861 66.2984 224.861 65.9358V50.2286H217.138V65.9358C217.138 66.1461 217.102 66.2912 217.022 66.3637C216.942 66.4434 216.775 66.4797 216.507 66.4797H213.36C212.961 66.4797 212.758 66.2984 212.758 65.9358V48.3722C212.758 47.705 212.896 47.2119 213.171 46.9001C213.447 46.5882 213.918 46.4287 214.585 46.4287H227.37C228.059 46.4287 228.53 46.5882 228.799 46.9001C229.067 47.2119 229.197 47.705 229.197 48.3722V65.9358H229.212ZM245.949 64.616C245.949 64.8626 245.913 65.0729 245.847 65.2469C245.782 65.421 245.615 65.5805 245.347 65.7328C244.912 65.9431 244.441 66.1171 243.933 66.2476C243.425 66.3782 242.91 66.487 242.396 66.5595C241.873 66.632 241.344 66.69 240.807 66.7335C240.278 66.7698 239.77 66.7915 239.299 66.7915C238.008 66.7915 236.935 66.6682 236.087 66.4217C235.245 66.1751 234.564 65.8343 234.049 65.4064C233.541 64.9786 233.179 64.471 232.968 63.8908C232.758 63.3107 232.656 62.6871 232.656 62.0199C232.656 61.273 232.78 60.5913 233.026 59.9749C233.273 59.3585 233.643 58.8146 234.143 58.3578C234.636 57.9009 235.267 57.5456 236.014 57.2845C236.768 57.0235 237.66 56.9002 238.69 56.9002H241.837V56.4433C241.837 56.175 241.808 55.9212 241.75 55.6674C241.692 55.4208 241.576 55.2033 241.395 55.022C241.213 54.8407 240.96 54.6957 240.633 54.5796C240.307 54.4636 239.879 54.4056 239.343 54.4056C239.06 54.4056 238.733 54.4201 238.371 54.4491C238.008 54.4781 237.646 54.5144 237.283 54.5651C236.92 54.6159 236.565 54.6667 236.224 54.7392C235.883 54.8044 235.579 54.877 235.311 54.9567C235.064 55.0147 234.89 55.0147 234.796 54.9567C234.701 54.8987 234.636 54.7754 234.593 54.5869L234.136 52.5854C234.078 52.3751 234.071 52.2301 234.121 52.1431C234.172 52.056 234.266 51.9835 234.419 51.9255C235.274 51.6209 236.181 51.4034 237.124 51.2656C238.066 51.1351 239.009 51.0626 239.944 51.0626C242.018 51.0626 243.541 51.5049 244.506 52.3896C245.47 53.2743 245.956 54.5869 245.956 56.32V64.616H245.949ZM241.801 59.6703H239.538C239.27 59.6703 238.987 59.6921 238.683 59.7284C238.378 59.7646 238.095 59.8589 237.841 59.9967C237.58 60.1417 237.37 60.3448 237.196 60.6131C237.022 60.8814 236.942 61.244 236.942 61.7008C236.942 62.368 237.167 62.8321 237.617 63.1004C238.066 63.3687 238.668 63.4992 239.43 63.4992C239.546 63.4992 239.698 63.492 239.886 63.4847C240.075 63.4775 240.285 63.4557 240.503 63.4267C240.72 63.3977 240.945 63.3615 241.177 63.3107C241.409 63.2599 241.612 63.2019 241.808 63.1222V59.6703H241.801ZM253.846 71.8242C253.846 72.0345 253.81 72.165 253.744 72.2231C253.679 72.2811 253.512 72.3101 253.251 72.3101H250.293C250.082 72.3101 249.937 72.2811 249.843 72.2231C249.749 72.165 249.698 72.0345 249.698 71.8242V53.1728C249.698 52.9625 249.734 52.7957 249.8 52.6724C249.865 52.5492 250.024 52.4186 250.271 52.2881C251.185 51.8675 252.214 51.5702 253.346 51.4034C254.484 51.2293 255.565 51.1423 256.594 51.1423C257.95 51.1423 259.089 51.3454 260.01 51.7587C260.938 52.1721 261.678 52.7232 262.243 53.4194C262.809 54.1155 263.208 54.9422 263.462 55.8922C263.708 56.8494 263.832 57.8647 263.832 58.9524C263.832 60.0184 263.701 61.0264 263.433 61.9691C263.164 62.9119 262.751 63.7386 262.2 64.442C261.649 65.1454 260.938 65.7038 260.09 66.1171C259.234 66.5305 258.241 66.7335 257.087 66.7335C256.515 66.7335 255.978 66.7118 255.492 66.661C255.006 66.6102 254.455 66.5232 253.846 66.3927V71.8242ZM259.481 58.8654C259.481 58.0822 259.401 57.4223 259.249 56.8929C259.096 56.3563 258.864 55.9285 258.574 55.6021C258.277 55.2758 257.914 55.051 257.479 54.9132C257.044 54.7827 256.565 54.7102 256.021 54.7102C255.753 54.7102 255.405 54.7392 254.97 54.7972C254.542 54.8552 254.158 54.9277 253.839 55.0292V62.8393C254.339 62.9699 254.781 63.0569 255.173 63.1004C255.572 63.1367 255.92 63.1584 256.225 63.1584C257.182 63.1584 257.958 62.8321 258.567 62.1867C259.176 61.534 259.481 60.4318 259.481 58.8654ZM280.851 58.8944C280.851 61.4107 280.249 63.3542 279.046 64.732C277.842 66.1026 276.014 66.7915 273.556 66.7915C271.076 66.7915 269.263 66.1026 268.117 64.732C266.972 63.3615 266.399 61.4325 266.399 58.9524C266.399 57.7341 266.565 56.6319 266.899 55.6456C267.233 54.6667 267.711 53.84 268.328 53.1728C268.944 52.5056 269.698 51.9908 270.59 51.6282C271.475 51.2656 272.483 51.0843 273.607 51.0843C276.007 51.0843 277.82 51.7732 279.031 53.1583C280.242 54.5434 280.851 56.4578 280.851 58.8944ZM276.529 58.9814C276.529 58.336 276.479 57.7414 276.384 57.2048C276.29 56.6681 276.13 56.2113 275.898 55.8342C275.666 55.4498 275.376 55.1525 275.014 54.935C274.651 54.7174 274.202 54.6086 273.672 54.6086C272.664 54.6086 271.91 54.993 271.424 55.7689C270.938 56.5448 270.692 57.5891 270.692 58.9017C270.692 60.3302 270.917 61.418 271.366 62.1649C271.816 62.9119 272.555 63.2817 273.585 63.2817C274.122 63.2817 274.571 63.1729 274.941 62.9554C275.311 62.7378 275.616 62.4332 275.855 62.0417C276.094 61.6501 276.268 61.2004 276.37 60.6856C276.479 60.1562 276.529 59.5906 276.529 58.9814ZM295.609 51.4541C296.276 51.4541 296.733 51.5919 296.965 51.8675C297.204 52.1431 297.32 52.5854 297.32 53.1946V65.9213C297.32 66.1534 297.277 66.2984 297.189 66.3637C297.102 66.4289 296.928 66.4652 296.66 66.4652H293.774C293.506 66.4652 293.332 66.4217 293.245 66.3347C293.158 66.2476 293.114 66.1026 293.114 65.8923V54.8334H289.597L289.51 56.32C289.416 57.9807 289.292 59.4093 289.14 60.6131C288.988 61.8168 288.727 62.8393 288.364 63.6878C288.002 64.5362 287.487 65.2251 286.82 65.7618C286.152 66.2984 285.268 66.7335 284.158 67.0743C283.89 67.1686 283.701 67.1831 283.585 67.1179C283.469 67.0526 283.375 66.9221 283.302 66.7335L282.527 64.79C282.432 64.5435 282.396 64.3622 282.425 64.2607C282.454 64.1592 282.592 64.0359 282.838 63.9053C283.353 63.6733 283.767 63.4195 284.086 63.1294C284.397 62.8466 284.659 62.4332 284.862 61.8966C285.065 61.36 285.217 60.6493 285.333 59.7646C285.449 58.8799 285.55 57.7124 285.645 56.262L285.848 53.1438C285.884 52.5129 286.036 52.0778 286.29 51.8312C286.544 51.5847 286.994 51.4614 287.617 51.4614H295.609V51.4541ZM302.846 66.4797C302.099 66.4797 301.613 66.3347 301.388 66.0373C301.156 65.74 301.047 65.3339 301.047 64.8191V52.0053C301.047 51.6427 301.258 51.4614 301.678 51.4614H304.535C304.804 51.4614 304.978 51.4977 305.065 51.5629C305.152 51.6282 305.195 51.7805 305.195 52.0053V56.1533H308.741C310.134 56.1533 311.236 56.349 312.048 56.7406C312.86 57.1322 313.477 57.6036 313.89 58.1547C314.311 58.7059 314.572 59.2715 314.673 59.8589C314.782 60.439 314.833 60.9249 314.833 61.302C314.833 62.0489 314.688 62.7306 314.405 63.3615C314.122 63.9924 313.723 64.5362 313.216 64.9931C312.708 65.45 312.114 65.8125 311.425 66.0809C310.736 66.3492 309.996 66.4797 309.191 66.4797H302.846V66.4797ZM310.569 61.244C310.569 60.7073 310.402 60.2577 310.069 59.8879C309.735 59.5181 309.235 59.3295 308.567 59.3295H305.195V63.2164H308.546C308.945 63.2164 309.278 63.1512 309.546 63.0134C309.815 62.8828 310.025 62.7161 310.177 62.513C310.33 62.31 310.438 62.0997 310.489 61.8676C310.547 61.6428 310.569 61.4325 310.569 61.244Z" fill="white"/>
</svg>
