<svg width="282" height="66" viewBox="0 0 282 66" fill="none" xmlns="http://www.w3.org/2000/svg">
<path fill-rule="evenodd" clip-rule="evenodd" d="M6.63484 0.837891H52.8774C56.5259 0.837891 59.5123 3.82422 59.5123 7.47273V53.7218C59.5123 57.3703 56.5259 60.3567 52.8774 60.3567H6.63484C2.98633 60.3567 0 57.3703 0 53.7218V7.47273C0 3.82422 2.98633 0.837891 6.63484 0.837891Z" fill="#010202"/>
<path fill-rule="evenodd" clip-rule="evenodd" d="M40.3021 45.0875H33.2063C32.9986 45.0875 32.8363 44.9187 32.8363 44.7174V42.9581L27.4934 48.301C27.3505 48.4438 27.1103 48.4438 26.9675 48.301L21.9492 43.2827C21.8064 43.1399 21.8064 42.8997 21.9492 42.7569L23.1892 41.5169H15.639C15.4312 41.5169 15.2689 41.3481 15.2689 41.1468V34.0511C15.2689 33.8433 15.4377 33.681 15.639 33.681H17.3983L12.0554 28.3381C11.9125 28.1953 11.9125 27.9551 12.0554 27.8122L17.0737 22.7939C17.2165 22.6511 17.4567 22.6511 17.5995 22.7939L18.8395 24.0339V16.4837C18.8395 16.2759 19.0083 16.1136 19.2096 16.1136H26.3053C26.5131 16.1136 26.6754 16.2824 26.6754 16.4837V18.243L32.0183 12.9001C32.1611 12.7573 32.4013 12.7573 32.5442 12.9001L37.5625 17.9184C37.7053 18.0612 37.7053 18.3014 37.5625 18.4443L36.3225 19.6842H43.8727C44.0805 19.6842 44.2428 19.853 44.2428 20.0543V27.1501C44.2428 27.3578 44.074 27.5201 43.8727 27.5201H42.1199L47.4563 32.8565C47.5991 32.9994 47.5991 33.2396 47.4563 33.3824L42.438 38.4007C42.2951 38.5435 42.0549 38.5435 41.9121 38.4007L40.6722 37.1607V44.7109C40.6786 44.9187 40.5098 45.0875 40.3021 45.0875ZM39.3867 25.3128L36.6146 27.5201H33.2063C32.9986 27.5201 32.8363 27.3513 32.8363 27.1501V20.0543L32.4338 23.573L30.0252 25.9815C29.8824 26.1243 29.6422 26.1243 29.4994 25.9815L26.6884 23.1705L24.4811 20.9632L26.6884 23.7353V27.1436C26.6884 27.3513 26.5196 27.5136 26.3183 27.5136H19.2225L22.7412 27.9161L25.1498 30.3246C25.2926 30.4675 25.2926 30.7077 25.1498 30.8505L20.1314 35.8688L22.9035 33.6615H26.3118C26.5196 33.6615 26.6819 33.8303 26.6819 34.0316V41.1274L27.0844 37.6087L29.4929 35.2002C29.6357 35.0573 29.8759 35.0573 30.0188 35.2002L35.0371 40.2185L32.8298 37.4464V34.0381C32.8298 33.8303 32.9986 33.668 33.1998 33.668H40.2956L36.7769 33.2655L34.3684 30.857C34.2256 30.7142 34.2256 30.474 34.3684 30.3311L37.1794 27.5201L39.3867 25.3128Z" fill="white"/>
<path fill-rule="evenodd" clip-rule="evenodd" d="M91.2967 24.6702C91.3811 27.4423 89.1933 29.4418 86.4212 29.4418H79.1372V20.0933H86.4732C89.0635 20.0933 91.2123 21.8981 91.2967 24.6702ZM271.898 7.48583V35.3236C271.898 35.804 271.476 36.1286 270.996 36.1286H265.166C264.705 36.1286 264.263 35.791 264.263 35.3236V7.48583H255.116C254.649 7.48583 254.311 7.04437 254.311 6.58344V1.81181C254.311 1.3314 254.636 0.909416 255.116 0.909416C263.809 0.909416 272.502 0.909416 281.195 0.909416C281.675 0.909416 282 1.3314 282 1.81181V6.58344C282 7.04437 281.662 7.48583 281.195 7.48583H271.898V7.48583ZM125.906 34.973V30.3442C125.906 30.0001 125.646 29.4937 125.055 29.4937H111.402C110.572 29.4937 108.923 28.916 108.923 26.7996V20.0998H123.432C124.042 20.0998 124.296 19.5804 124.296 19.2753V14.5686C124.296 14.0752 123.952 13.7182 123.341 13.7182H108.916V9.95928C108.916 8.36225 110.24 7.48583 111.396 7.48583H125.003C125.639 7.48583 125.899 6.99243 125.899 6.63537V1.75338C125.899 1.27297 125.536 0.902928 124.945 0.902928L110.773 0.838003C105.449 0.812035 101.275 5.27205 101.275 10.1995V26.884C101.275 31.9997 105.599 36.1286 110.572 36.1286H125.029C125.542 36.1286 125.886 35.752 125.893 35.2781C125.906 35.1872 125.906 35.0704 125.906 34.973ZM183.723 17.3861V17.133C184.801 16.4773 185.71 15.6268 186.418 14.5816C187.138 13.5364 187.664 12.2964 187.995 10.8682L190.306 1.8962C190.391 1.50019 190.125 0.896434 189.469 0.896434H183.977C183.795 0.889942 183.6 0.922401 183.399 1.0068C183.198 1.0847 183.055 1.28595 182.97 1.60406L180.711 10.0632C180.445 11.0954 180.081 11.9134 179.64 12.5171C179.199 13.1274 178.705 13.5818 178.16 13.874C177.621 14.1661 177.069 14.3609 176.517 14.4518C175.959 14.5361 175.427 14.5751 174.933 14.5686H170.967V1.7339C170.967 1.19507 170.512 0.896434 170.129 0.896434H164.234C163.735 0.896434 163.332 1.25349 163.332 1.70144V35.3171C163.332 35.7845 163.774 36.1221 164.234 36.1221H170.064C170.545 36.1221 170.967 35.7975 170.967 35.3171V20.3919H175.037C176.199 20.3725 177.193 20.4828 177.991 20.7165C178.796 20.9438 179.465 21.3593 180.004 21.9695C180.529 22.5798 180.977 23.4627 181.315 24.6053L184.412 35.5118C184.58 35.9598 184.892 36.1156 185.21 36.1156H191.04C191.774 36.1481 191.994 35.4404 191.916 35.1093L188.8 23.4497C188.605 22.6966 188.391 22.0085 188.164 21.3982C187.93 20.7815 187.638 20.2232 187.275 19.7298C186.924 19.2364 186.457 18.7949 185.885 18.3989C185.314 18.0289 184.593 17.6848 183.723 17.3861ZM204.874 22.5603L206.783 16.1916L208.692 9.02443H208.99L210.847 16.1916L212.756 22.5603H204.874ZM214.574 28.7926L216.534 35.3236C216.703 35.9208 217.021 36.1286 217.398 36.1286H223.753C224.351 36.1286 224.734 35.6287 224.591 35.0314L214.171 3.65554C213.678 2.12992 212.944 0.896434 211.172 0.896434L206.66 0.909416C205.764 0.850988 204.978 1.15611 204.368 1.96112C204.056 2.37012 203.79 2.92194 203.57 3.65554L193.156 34.9925C192.923 35.6871 193.507 36.1286 193.974 36.1286H200.09C200.285 36.1286 200.7 36.1545 200.96 35.6092C201.018 35.4859 201.077 35.3171 201.109 35.1743L203.07 28.7926H214.574ZM245.878 12.0951C245.872 14.5556 243.917 16.711 241.262 16.711L234.413 16.7045V7.48583H240.944C243.911 7.38845 245.878 9.64117 245.878 12.0951ZM234.413 35.0704V23.2939H242.762C248.54 23.2939 253.948 18.5677 253.857 11.9069C253.857 10.3099 253.454 8.80371 252.863 7.48583C251.481 4.38265 248.949 2.31169 245.962 1.39632C244.742 1.02627 243.405 0.909418 242.093 0.896434H229.343C227.986 0.896434 226.85 1.83128 226.791 3.31146C226.785 3.51921 226.759 3.73344 226.766 3.96066V35.2716C226.766 35.7585 227.129 36.1221 227.629 36.1221H233.563C233.868 36.1221 234.166 35.9403 234.303 35.6677C234.4 35.5054 234.413 35.3106 234.413 35.0704ZM73.9825 36.1286H87.1808C93.7053 36.3558 99.0287 31.8309 99.2429 25.0727C99.2494 24.4949 99.2819 23.8067 99.1261 23.0472C97.9705 17.516 93.6014 13.7182 88.0312 13.7182H79.1372V7.43389H94.3155C94.8868 7.44687 95.2309 7.03788 95.2179 6.47956V2.00657C95.2309 1.39632 95.0037 0.883452 94.3155 0.902928H74.1643C72.0999 0.902928 71.4961 2.41557 71.4961 3.38288V33.6486C71.4961 35.012 72.5738 36.1286 73.9825 36.1286ZM134.241 4.26579L133.787 11.9069C133.638 14.5102 133.469 16.7629 133.294 18.691C133.014 21.8721 132.696 29.4937 128.574 29.4937C128.528 29.4937 128.47 29.4937 128.412 29.4937C128.042 29.4937 127.568 29.8054 127.568 30.3182V34.973C127.568 35.0704 127.568 35.1353 127.568 35.2197C127.568 35.7585 127.931 36.1286 128.418 36.1286C128.489 36.1286 128.717 36.1286 128.788 36.1286C131.891 36.1156 134.611 35.791 136.962 32.2464C137.695 31.1362 138.344 29.8833 138.805 28.468C139.273 27.0527 139.643 25.4622 139.909 23.7094C140.175 21.9565 140.396 20.0349 140.571 17.925C140.74 15.8216 140.909 13.5364 141.071 11.0564L141.272 7.53776H151.069V35.2781C151.069 35.7456 151.471 36.174 151.971 36.1286H157.794C158.398 36.1286 158.703 35.7131 158.703 35.2262V3.38288C158.71 2.065 157.606 0.902928 156.048 0.902928H136.767C135.287 0.902928 134.41 2.20133 134.345 3.27251C134.332 3.57763 134.261 3.90224 134.241 4.26579Z" fill="#010202"/>
<path fill-rule="evenodd" clip-rule="evenodd" d="M82.6303 48.0998L80.3516 51.9431L76.0214 58.9609C75.8656 59.2011 75.7293 59.3894 75.6124 59.5387C75.4956 59.6815 75.3657 59.7984 75.2294 59.8828C75.0931 59.9672 74.9373 60.0256 74.7555 60.0516C74.5737 60.0776 74.3595 60.0905 74.0998 60.0905H73.0741C72.4054 60.0905 71.9639 59.9347 71.7432 59.6166C71.5225 59.2985 71.4121 58.87 71.4121 58.3247V42.627C71.4121 42.3024 71.5939 42.1401 71.9509 42.1401H74.6906C74.9308 42.1401 75.0801 42.1726 75.1385 42.244C75.197 42.3154 75.2294 42.4388 75.2294 42.627V54.1504H75.3852L77.56 50.5668L81.9876 43.2957C82.1434 43.0555 82.2797 42.8607 82.3966 42.7049C82.5134 42.5491 82.6433 42.4323 82.7796 42.3479C82.916 42.2635 83.0718 42.2051 83.2406 42.1791C83.4093 42.1531 83.6236 42.1401 83.8833 42.1401H84.935C85.5647 42.1401 85.9997 42.27 86.2399 42.5361C86.4801 42.8023 86.5969 43.2633 86.5969 43.9319V59.6036C86.5969 59.9282 86.4151 60.0905 86.0581 60.0905H83.3185C83.0783 60.0905 82.9289 60.0581 82.8575 59.9867C82.7926 59.9153 82.7537 59.7919 82.7537 59.6036V48.1063H82.6303V48.0998ZM93.8939 59.5777C93.8939 59.7984 93.855 59.9412 93.7771 59.9997C93.6992 60.0581 93.5434 60.0905 93.3032 60.0905H90.7453C90.3688 60.0905 90.1805 59.9218 90.1805 59.5777V47.1325C90.1805 46.8079 90.3688 46.6456 90.7453 46.6456H93.3032C93.5434 46.6456 93.6992 46.678 93.7771 46.7365C93.855 46.7949 93.8939 46.9312 93.8939 47.1325V51.5146H98.6851V47.1325C98.6851 46.8079 98.8733 46.6456 99.2499 46.6456H101.827C102.067 46.6456 102.223 46.678 102.295 46.7365C102.366 46.7949 102.398 46.9312 102.398 47.1325V59.5777C102.398 59.7984 102.366 59.9412 102.295 59.9997C102.223 60.0581 102.067 60.0905 101.827 60.0905H99.2499C98.8668 60.0905 98.6851 59.9218 98.6851 59.5777V54.4295H93.8939V59.5777ZM112.156 49.6644V59.5777C112.156 59.7984 112.117 59.9412 112.039 59.9997C111.961 60.0581 111.805 60.0905 111.565 60.0905H109.027C108.631 60.0905 108.436 59.9218 108.436 59.5777V49.6644H104.807C104.463 49.6644 104.294 49.4761 104.294 49.0996V47.2299C104.294 46.9897 104.327 46.8339 104.385 46.756C104.443 46.6781 104.586 46.6391 104.807 46.6391H115.869C116.077 46.6391 116.213 46.6781 116.278 46.756C116.35 46.8339 116.382 46.9897 116.382 47.2299V49.0996C116.382 49.4761 116.213 49.6644 115.869 49.6644H112.156ZM123.374 46.308C125.374 46.308 126.867 46.8079 127.867 47.8077C128.866 48.8074 129.366 50.2357 129.366 52.0989C129.366 52.9883 129.198 53.592 128.853 53.9166C128.509 54.2412 128.042 54.4035 127.445 54.4035H120.888C120.907 54.9489 120.992 55.4033 121.154 55.7604C121.316 56.1174 121.53 56.4096 121.81 56.6303C122.082 56.851 122.4 57.0068 122.77 57.0912C123.14 57.1756 123.536 57.2211 123.958 57.2211C124.452 57.2211 124.958 57.1626 125.471 57.0393C125.984 56.9224 126.464 56.7666 126.906 56.5784C127.114 56.5134 127.25 56.4875 127.328 56.5134C127.406 56.5394 127.477 56.6173 127.542 56.7537L128.36 58.5974C128.431 58.7532 128.438 58.87 128.399 58.9544C128.354 59.0388 128.269 59.1232 128.133 59.2076C127.503 59.6166 126.769 59.9153 125.932 60.0905C125.095 60.2723 124.316 60.3567 123.601 60.3567C121.362 60.3567 119.706 59.8049 118.635 58.6948C117.557 57.5846 117.018 55.8253 117.018 53.4168C117.018 52.2871 117.168 51.2874 117.466 50.4045C117.765 49.528 118.194 48.775 118.745 48.1647C119.297 47.548 119.966 47.087 120.745 46.7689C121.524 46.4703 122.4 46.308 123.374 46.308ZM123.452 49.3852C122.751 49.3852 122.18 49.6319 121.738 50.1253C121.297 50.6187 121.037 51.2549 120.972 52.021H125.763C125.763 51.6444 125.724 51.2939 125.646 50.9693C125.568 50.6447 125.445 50.3655 125.276 50.1383C125.108 49.9046 124.874 49.7228 124.582 49.5865C124.29 49.4501 123.913 49.3852 123.452 49.3852ZM135.793 64.8752C135.793 65.0634 135.761 65.1803 135.702 65.2322C135.644 65.2842 135.495 65.3101 135.261 65.3101H132.612C132.424 65.3101 132.294 65.2842 132.21 65.2322C132.125 65.1803 132.08 65.0634 132.08 64.8752V48.1777C132.08 47.9894 132.112 47.8401 132.171 47.7298C132.229 47.6194 132.372 47.5025 132.593 47.3857C133.411 47.0091 134.333 46.743 135.345 46.5937C136.358 46.4378 137.332 46.3599 138.254 46.3599C139.468 46.3599 140.487 46.5417 141.312 46.9118C142.143 47.2818 142.805 47.7752 143.311 48.3984C143.818 49.0217 144.175 49.7618 144.402 50.6122C144.623 51.4691 144.733 52.378 144.733 53.3518C144.733 54.3062 144.616 55.2086 144.376 56.0525C144.136 56.8965 143.766 57.6366 143.272 58.2663C142.779 58.896 142.143 59.3959 141.383 59.7659C140.617 60.136 139.728 60.3178 138.695 60.3178C138.182 60.3178 137.702 60.2983 137.267 60.2528C136.832 60.2074 136.339 60.1295 135.793 60.0126V64.8752ZM140.844 53.2739C140.844 52.5728 140.773 51.982 140.636 51.5081C140.5 51.0277 140.292 50.6447 140.033 50.3525C139.767 50.0604 139.442 49.8591 139.052 49.7358C138.663 49.6189 138.234 49.554 137.747 49.554C137.507 49.554 137.196 49.58 136.806 49.6319C136.423 49.6838 136.079 49.7488 135.787 49.8397V56.8316C136.235 56.9484 136.631 57.0263 136.981 57.0653C137.338 57.0977 137.65 57.1172 137.923 57.1172C138.78 57.1172 139.474 56.8251 140.02 56.2473C140.572 55.663 140.844 54.6762 140.844 53.2739ZM151.264 59.5777C151.264 59.7984 151.225 59.9412 151.147 59.9997C151.069 60.0581 150.913 60.0905 150.673 60.0905H148.115C147.739 60.0905 147.55 59.9218 147.55 59.5777V47.1325C147.55 46.8079 147.739 46.6456 148.115 46.6456H150.673C150.913 46.6456 151.069 46.678 151.147 46.7365C151.225 46.7949 151.264 46.9312 151.264 47.1325V51.5146H156.055V47.1325C156.055 46.8079 156.243 46.6456 156.62 46.6456H159.197C159.437 46.6456 159.593 46.678 159.665 46.7365C159.729 46.7949 159.768 46.9312 159.768 47.1325V59.5777C159.768 59.7984 159.736 59.9412 159.665 59.9997C159.593 60.0581 159.437 60.0905 159.197 60.0905H156.62C156.237 60.0905 156.055 59.9218 156.055 59.5777V54.4295H151.264V59.5777ZM168.909 46.308C170.909 46.308 172.408 46.8079 173.402 47.8077C174.401 48.8074 174.901 50.2357 174.901 52.0989C174.901 52.9883 174.732 53.592 174.388 53.9166C174.044 54.2412 173.577 54.4035 172.98 54.4035H166.423C166.442 54.9489 166.527 55.4033 166.689 55.7604C166.851 56.1174 167.072 56.4096 167.345 56.6303C167.617 56.851 167.935 57.0068 168.305 57.0912C168.675 57.1756 169.071 57.2211 169.493 57.2211C169.987 57.2211 170.493 57.1626 171.006 57.0393C171.519 56.9224 171.999 56.7666 172.441 56.5784C172.649 56.5134 172.785 56.4875 172.863 56.5134C172.941 56.5394 173.012 56.6173 173.084 56.7537L173.901 58.5974C173.973 58.7532 173.979 58.87 173.94 58.9544C173.895 59.0388 173.811 59.1232 173.674 59.2076C173.045 59.6166 172.311 59.9153 171.473 60.0905C170.636 60.2723 169.857 60.3567 169.143 60.3567C166.903 60.3567 165.248 59.8049 164.176 58.6948C163.099 57.5846 162.56 55.8253 162.56 53.4168C162.56 52.2871 162.709 51.2874 163.008 50.4045C163.307 49.528 163.735 48.775 164.287 48.1647C164.845 47.548 165.507 47.087 166.286 46.7689C167.059 46.4703 167.935 46.308 168.909 46.308ZM168.987 49.3852C168.286 49.3852 167.715 49.6319 167.273 50.1253C166.832 50.6187 166.572 51.2549 166.507 52.021H171.298C171.298 51.6444 171.259 51.2939 171.181 50.9693C171.103 50.6447 170.98 50.3655 170.811 50.1383C170.643 49.9046 170.409 49.7228 170.117 49.5865C169.825 49.4501 169.448 49.3852 168.987 49.3852ZM184.074 49.6644V59.5777C184.074 59.7984 184.036 59.9412 183.958 59.9997C183.88 60.0581 183.724 60.0905 183.484 60.0905H180.945C180.549 60.0905 180.355 59.9218 180.355 59.5777V49.6644H176.719C176.375 49.6644 176.206 49.4761 176.206 49.0996V47.2299C176.206 46.9897 176.239 46.8339 176.297 46.756C176.355 46.6781 176.498 46.6391 176.719 46.6391H187.781C187.989 46.6391 188.125 46.6781 188.19 46.756C188.262 46.8339 188.294 46.9897 188.294 47.2299V49.0996C188.294 49.4761 188.125 49.6644 187.781 49.6644H184.074ZM205.199 59.6036C205.199 59.7919 205.167 59.9218 205.096 59.9867C205.024 60.0581 204.875 60.0905 204.635 60.0905H201.843C201.486 60.0905 201.304 59.9282 201.304 59.6036V45.5419H194.39V59.6036C194.39 59.7919 194.358 59.9218 194.286 59.9867C194.215 60.0581 194.066 60.0905 193.825 60.0905H191.008C190.651 60.0905 190.469 59.9282 190.469 59.6036V43.88C190.469 43.2827 190.592 42.8413 190.839 42.5621C191.086 42.283 191.508 42.1401 192.105 42.1401H203.551C204.167 42.1401 204.589 42.283 204.829 42.5621C205.07 42.8413 205.186 43.2827 205.186 43.88V59.6036H205.199ZM220.183 58.4221C220.183 58.6428 220.151 58.8311 220.092 58.9869C220.034 59.1427 219.884 59.2855 219.644 59.4219C219.255 59.6101 218.833 59.7659 218.378 59.8828C217.924 59.9997 217.463 60.097 217.002 60.162C216.535 60.2269 216.061 60.2788 215.58 60.3178C215.106 60.3502 214.652 60.3697 214.23 60.3697C213.074 60.3697 212.113 60.2593 211.354 60.0386C210.601 59.8179 209.991 59.5128 209.53 59.1297C209.075 58.7467 208.751 58.2923 208.562 57.7729C208.374 57.2535 208.283 56.6952 208.283 56.098C208.283 55.4293 208.394 54.819 208.614 54.2672C208.835 53.7154 209.166 53.2285 209.614 52.8195C210.056 52.4105 210.62 52.0924 211.289 51.8587C211.964 51.625 212.763 51.5146 213.685 51.5146H216.502V51.1056C216.502 50.8654 216.476 50.6382 216.424 50.411C216.372 50.1902 216.268 49.9955 216.106 49.8332C215.944 49.6709 215.717 49.541 215.424 49.4372C215.132 49.3333 214.749 49.2813 214.269 49.2813C214.016 49.2813 213.723 49.2943 213.399 49.3203C213.074 49.3463 212.75 49.3787 212.425 49.4242C212.1 49.4696 211.782 49.5151 211.477 49.58C211.172 49.6384 210.899 49.7033 210.659 49.7747C210.439 49.8267 210.283 49.8267 210.198 49.7747C210.114 49.7228 210.056 49.6124 210.017 49.4436L209.608 47.6518C209.556 47.4636 209.549 47.3337 209.595 47.2558C209.64 47.1779 209.724 47.113 209.861 47.0611C210.627 46.7884 211.438 46.5937 212.282 46.4703C213.126 46.3535 213.97 46.2885 214.808 46.2885C216.664 46.2885 218.028 46.6845 218.891 47.4766C219.755 48.2686 220.19 49.4436 220.19 50.9952V58.4221H220.183ZM216.47 53.9945H214.444C214.204 53.9945 213.951 54.014 213.678 54.0465C213.405 54.0789 213.152 54.1633 212.925 54.2867C212.691 54.4165 212.503 54.5983 212.347 54.8385C212.191 55.0787 212.12 55.4033 212.12 55.8123C212.12 56.4096 212.321 56.8251 212.724 57.0653C213.126 57.3055 213.665 57.4223 214.347 57.4223C214.451 57.4223 214.587 57.4158 214.756 57.4093C214.925 57.4028 215.113 57.3834 215.308 57.3574C215.502 57.3314 215.704 57.299 215.911 57.2535C216.119 57.2081 216.301 57.1562 216.476 57.0847V53.9945H216.47ZM227.253 64.8752C227.253 65.0634 227.22 65.1803 227.162 65.2322C227.104 65.2842 226.954 65.3101 226.721 65.3101H224.072C223.883 65.3101 223.754 65.2842 223.669 65.2322C223.585 65.1803 223.539 65.0634 223.539 64.8752V48.1777C223.539 47.9894 223.572 47.8401 223.63 47.7298C223.689 47.6194 223.832 47.5025 224.052 47.3857C224.87 47.0091 225.792 46.743 226.805 46.5937C227.824 46.4378 228.791 46.3599 229.713 46.3599C230.927 46.3599 231.947 46.5417 232.771 46.9118C233.602 47.2818 234.264 47.7752 234.771 48.3984C235.277 49.0217 235.634 49.7618 235.861 50.6122C236.082 51.4691 236.192 52.378 236.192 53.3518C236.192 54.3062 236.075 55.2086 235.835 56.0525C235.595 56.8965 235.225 57.6366 234.732 58.2663C234.238 58.896 233.602 59.3959 232.842 59.7659C232.076 60.136 231.187 60.3178 230.155 60.3178C229.642 60.3178 229.162 60.2983 228.727 60.2528C228.292 60.2074 227.798 60.1295 227.253 60.0126V64.8752ZM232.297 53.2739C232.297 52.5728 232.226 51.982 232.089 51.5081C231.953 51.0277 231.745 50.6447 231.486 50.3525C231.219 50.0604 230.895 49.8591 230.505 49.7358C230.116 49.6189 229.687 49.554 229.2 49.554C228.96 49.554 228.649 49.58 228.259 49.6319C227.876 49.6838 227.532 49.7488 227.246 49.8397V56.8316C227.694 56.9484 228.09 57.0263 228.441 57.0653C228.798 57.0977 229.11 57.1172 229.382 57.1172C230.239 57.1172 230.934 56.8251 231.479 56.2473C232.024 55.663 232.297 54.6762 232.297 53.2739ZM251.429 53.2999C251.429 55.5526 250.89 57.2925 249.813 58.526C248.735 59.753 247.099 60.3697 244.898 60.3697C242.678 60.3697 241.055 59.753 240.029 58.526C239.003 57.299 238.491 55.5721 238.491 53.3518C238.491 52.2612 238.64 51.2744 238.938 50.3915C239.237 49.5151 239.666 48.775 240.217 48.1777C240.769 47.5804 241.444 47.1195 242.243 46.7949C243.035 46.4703 243.937 46.308 244.944 46.308C247.092 46.308 248.715 46.9247 249.8 48.1647C250.884 49.4047 251.429 51.1186 251.429 53.2999ZM247.56 53.3778C247.56 52.8 247.514 52.2677 247.43 51.7873C247.346 51.3069 247.203 50.8979 246.995 50.5603C246.787 50.2162 246.528 49.95 246.203 49.7553C245.878 49.5605 245.476 49.4631 245.002 49.4631C244.1 49.4631 243.424 49.8072 242.989 50.5018C242.555 51.1965 242.334 52.1313 242.334 53.3064C242.334 54.5853 242.535 55.5591 242.938 56.2278C243.34 56.8965 244.002 57.2276 244.924 57.2276C245.405 57.2276 245.807 57.1302 246.138 56.9354C246.469 56.7407 246.742 56.468 246.956 56.1174C247.17 55.7669 247.326 55.3644 247.417 54.9034C247.514 54.4295 247.56 53.9231 247.56 53.3778ZM264.64 46.6391C265.238 46.6391 265.647 46.7624 265.854 47.0091C266.069 47.2558 266.172 47.6518 266.172 48.1972V59.5907C266.172 59.7984 266.134 59.9282 266.056 59.9867C265.978 60.0451 265.822 60.0776 265.582 60.0776H262.998C262.758 60.0776 262.602 60.0386 262.524 59.9607C262.446 59.8828 262.407 59.753 262.407 59.5647V49.6644H259.258L259.181 50.9952C259.096 52.4819 258.986 53.7608 258.849 54.8385C258.713 55.9162 258.479 56.8316 258.155 57.5911C257.83 58.3507 257.369 58.9674 256.772 59.4478C256.175 59.9282 255.383 60.3178 254.389 60.6229C254.149 60.7073 253.98 60.7203 253.877 60.6618C253.773 60.6034 253.688 60.4866 253.623 60.3178L252.929 58.5779C252.844 58.3572 252.812 58.1949 252.838 58.104C252.864 58.0131 252.987 57.9027 253.208 57.7859C253.669 57.5781 254.039 57.3509 254.325 57.0912C254.604 56.8381 254.837 56.468 255.019 55.9876C255.201 55.5072 255.337 54.871 255.441 54.0789C255.545 53.2869 255.636 52.2417 255.72 50.9433L255.902 48.1517C255.935 47.5869 256.071 47.1974 256.298 46.9767C256.525 46.756 256.928 46.6456 257.486 46.6456H264.64V46.6391ZM271.119 60.0905C270.451 60.0905 270.016 59.9607 269.814 59.6945C269.607 59.4284 269.509 59.0648 269.509 58.6039V47.1325C269.509 46.8079 269.698 46.6456 270.074 46.6456H272.632C272.872 46.6456 273.028 46.678 273.106 46.7365C273.184 46.7949 273.223 46.9312 273.223 47.1325V50.8459H276.397C277.644 50.8459 278.631 51.0212 279.358 51.3718C280.085 51.7223 280.637 52.1443 281.007 52.6377C281.383 53.1311 281.617 53.6375 281.708 54.1633C281.805 54.6827 281.851 55.1177 281.851 55.4552C281.851 56.1239 281.721 56.7342 281.468 57.299C281.214 57.8638 280.857 58.3507 280.403 58.7597C279.949 59.1687 279.416 59.4933 278.799 59.7335C278.183 59.9737 277.52 60.0905 276.8 60.0905H271.119V60.0905ZM278.033 55.4033C278.033 54.9229 277.884 54.5204 277.585 54.1893C277.287 53.8582 276.839 53.6894 276.242 53.6894H273.223V57.1691H276.222C276.579 57.1691 276.878 57.1107 277.118 56.9874C277.358 56.8705 277.546 56.7212 277.683 56.5394C277.819 56.3576 277.917 56.1694 277.962 55.9616C278.014 55.7604 278.033 55.5721 278.033 55.4033Z" fill="#010202"/>
</svg>
