<svg width="117" height="117" viewBox="0 0 117 117" fill="none" xmlns="http://www.w3.org/2000/svg">
<path d="M112.387 116.042H112.167V116.632H112.057V116.042H111.837V115.932H112.397L112.387 116.042ZM113.247 116.632H113.137V116.062L112.937 116.562H112.817L112.617 116.062V116.632H112.507V115.932H112.677L112.877 116.432L113.077 115.932H113.247V116.632V116.632ZM7.91734 116.632H6.38734V99.1319H7.91734V116.632V116.632ZM19.5473 99.1319C20.8873 99.1119 22.2173 99.3219 23.4873 99.7419C24.5973 100.112 25.6173 100.702 26.4873 101.492C27.3173 102.262 27.9573 103.202 28.3773 104.252C29.2573 106.592 29.2573 109.172 28.3773 111.512C27.9573 112.562 27.3173 113.502 26.4873 114.272C25.6173 115.062 24.5973 115.652 23.4873 116.022C22.2173 116.442 20.8873 116.652 19.5473 116.632H13.1573V99.1319H19.5473ZM14.6873 100.582V115.182H19.5473C20.6973 115.202 21.8373 115.022 22.9273 114.662C23.8373 114.352 24.6773 113.852 25.3873 113.192C26.0573 112.552 26.5773 111.762 26.8973 110.892C27.5773 108.952 27.5773 106.832 26.8973 104.892C26.5773 104.022 26.0573 103.232 25.3873 102.582C24.6773 101.922 23.8473 101.422 22.9273 101.112C21.8373 100.752 20.6973 100.582 19.5573 100.602L14.6873 100.582ZM47.6873 98.9319C48.4173 98.9319 49.1573 99.0119 49.8673 99.1819C50.5573 99.3419 51.2273 99.5819 51.8673 99.9019C52.4673 100.202 53.0273 100.582 53.5273 101.032C54.0173 101.472 54.4473 101.972 54.7973 102.532L53.5273 103.382C53.2273 102.922 52.8673 102.502 52.4573 102.142C52.0473 101.772 51.5873 101.462 51.0973 101.202C50.5873 100.942 50.0573 100.742 49.4973 100.612C48.9173 100.472 48.3273 100.402 47.7273 100.402C46.7273 100.392 45.7473 100.572 44.8173 100.942C43.9373 101.282 43.1473 101.802 42.4773 102.462C41.8073 103.132 41.2773 103.942 40.9173 104.822C40.1573 106.782 40.1573 108.962 40.9173 110.922C41.2773 111.802 41.8073 112.612 42.4773 113.282C43.1473 113.942 43.9373 114.462 44.8173 114.802C45.7473 115.172 46.7273 115.352 47.7273 115.342C48.3173 115.342 48.9073 115.272 49.4873 115.142C50.5973 114.902 51.6273 114.372 52.4873 113.622C52.8973 113.252 53.2573 112.832 53.5573 112.372L54.8073 113.282C54.4473 113.822 54.0073 114.322 53.5173 114.752C53.0173 115.192 52.4573 115.562 51.8673 115.862C51.2473 116.172 50.5973 116.412 49.9273 116.572C48.0273 117.002 46.0373 116.862 44.2173 116.152C43.1573 115.732 42.1973 115.112 41.3773 114.312C40.5673 113.502 39.9273 112.542 39.4973 111.482C38.5873 109.162 38.5873 106.572 39.4973 104.252C39.9273 103.192 40.5673 102.232 41.3773 101.422C42.1973 100.622 43.1573 100.002 44.2173 99.5819C45.3373 99.1419 46.5273 98.9219 47.7273 98.9319H47.6873ZM59.9473 106.932C60.1673 106.562 60.4473 106.222 60.7673 105.932C61.0673 105.652 61.4073 105.422 61.7673 105.242C62.1373 105.062 62.5173 104.932 62.9173 104.842C63.3073 104.752 63.7173 104.712 64.1173 104.712C64.7973 104.702 65.4773 104.812 66.1173 105.042C66.6973 105.242 67.2373 105.562 67.6873 105.982C68.1273 106.402 68.4673 106.912 68.6873 107.472C68.9373 108.112 69.0573 108.792 69.0473 109.472V116.682H67.6173V109.912C67.6273 109.372 67.5373 108.832 67.3673 108.312C67.2173 107.862 66.9573 107.442 66.6273 107.102C66.2873 106.762 65.8873 106.502 65.4373 106.342C64.9273 106.162 64.3773 106.072 63.8373 106.082C63.3073 106.082 62.7873 106.172 62.2973 106.362C61.8273 106.542 61.4073 106.812 61.0473 107.162C60.6873 107.512 60.3973 107.932 60.2073 108.402C59.9973 108.902 59.8973 109.442 59.8973 109.982V116.682H58.4773V98.6819H59.8973L59.9473 106.932ZM78.3873 104.712C79.1373 104.702 79.8773 104.852 80.5673 105.152C81.2273 105.442 81.8173 105.862 82.3073 106.392C82.8073 106.942 83.2073 107.592 83.4673 108.292C83.7573 109.062 83.9073 109.882 83.9073 110.712C83.9073 110.822 83.9073 110.922 83.9073 111.022C83.9073 111.122 83.9073 111.212 83.9073 111.302H74.0473C74.0873 111.932 74.2373 112.552 74.5073 113.122C74.7473 113.632 75.0873 114.102 75.5073 114.482C75.9173 114.852 76.3973 115.142 76.9173 115.322C77.4573 115.512 78.0273 115.612 78.6073 115.612C79.3673 115.622 80.1173 115.472 80.8173 115.162C81.4673 114.862 82.0673 114.442 82.5773 113.932L83.3373 114.932C82.9873 115.282 82.6073 115.602 82.1973 115.872C81.8273 116.112 81.4273 116.312 81.0073 116.472C80.6073 116.622 80.1973 116.722 79.7773 116.782C79.3573 116.842 78.9373 116.872 78.5173 116.872C77.7073 116.882 76.8973 116.732 76.1473 116.432C75.4473 116.152 74.8073 115.732 74.2773 115.192C73.7473 114.642 73.3273 113.992 73.0573 113.282C72.7573 112.492 72.6073 111.662 72.6173 110.822C72.6073 109.992 72.7573 109.162 73.0573 108.382C73.3173 107.652 73.7273 106.992 74.2473 106.422C74.7673 105.882 75.3974 105.452 76.0974 105.162C76.8374 104.842 77.6273 104.682 78.4273 104.682L78.3873 104.712ZM78.3873 105.972C77.8273 105.962 77.2673 106.072 76.7473 106.282C76.2573 106.482 75.8173 106.772 75.4373 107.132C75.0573 107.502 74.7473 107.942 74.5173 108.422C74.2773 108.942 74.1173 109.502 74.0573 110.072H82.4673C82.4273 109.492 82.2873 108.932 82.0573 108.402C81.8473 107.922 81.5473 107.482 81.1773 107.112C80.4373 106.372 79.4273 105.962 78.3873 105.972ZM92.6273 104.712C93.4573 104.702 94.2873 104.862 95.0573 105.182C95.7873 105.482 96.4373 105.952 96.9673 106.542L96.0473 107.542C95.6073 107.092 95.0773 106.732 94.5073 106.472C93.9073 106.212 93.2574 106.082 92.5974 106.092C91.9774 106.092 91.3773 106.212 90.8073 106.452C90.2673 106.682 89.7773 107.022 89.3673 107.452C88.9373 107.882 88.5973 108.392 88.3673 108.952C87.9073 110.172 87.9073 111.522 88.3673 112.742C88.7973 113.862 89.6673 114.752 90.7673 115.212C91.3373 115.452 91.9373 115.572 92.5573 115.572C93.2173 115.582 93.8774 115.442 94.4874 115.172C95.0674 114.912 95.5973 114.552 96.0473 114.112L96.9373 115.112C96.4073 115.702 95.7573 116.162 95.0273 116.472C94.2573 116.792 93.4373 116.952 92.6073 116.942C91.7773 116.952 90.9473 116.792 90.1773 116.482C88.7373 115.892 87.5973 114.742 87.0273 113.292C86.4373 111.742 86.4373 110.022 87.0273 108.472C87.5873 107.022 88.7273 105.862 90.1773 105.272C90.9473 104.912 91.7873 104.712 92.6473 104.682L92.6273 104.712ZM101.757 109.862H103.667L108.667 104.862H110.467L104.867 110.412L110.567 116.622H108.757L103.757 111.112H101.847V116.622H100.347V98.6219H101.767L101.757 109.862ZM21.1873 90.1419V84.1419C21.3273 82.1819 19.8473 80.4819 17.8773 80.3419C17.7273 80.3319 17.5773 80.3319 17.4273 80.3419C16.0773 80.2519 14.7973 80.9019 14.0673 82.0419C13.4073 80.9419 12.1973 80.2819 10.9073 80.3419C9.78734 80.2819 8.72734 80.8219 8.10734 81.7619V80.5819H6.02734V90.1419H8.12734V84.8419C7.95734 83.6119 8.81734 82.4819 10.0473 82.3219C10.1873 82.3019 10.3273 82.2919 10.4673 82.3019C11.8473 82.3019 12.5473 83.2019 12.5473 84.8219V90.1419H14.6473V84.8419C14.4873 83.6119 15.3573 82.4819 16.5873 82.3219C16.7173 82.3019 16.8573 82.3019 16.9873 82.3019C18.4073 82.3019 19.0873 83.2019 19.0873 84.8219V90.1419H21.1873V90.1419ZM52.2473 80.5519H48.8473V77.6519H46.7473V80.5519H44.8073V82.4219H46.7473V86.7819C46.7473 89.0019 47.6073 90.3219 50.0673 90.3219C50.9873 90.3219 51.8873 90.0719 52.6673 89.5819L52.0673 87.8019C51.5273 88.1619 50.8973 88.3719 50.2473 88.4219C49.2473 88.4219 48.8673 87.7819 48.8673 86.8219V82.4219H52.2473V80.5519ZM69.9873 80.3119C68.9573 80.2819 67.9873 80.8219 67.4673 81.7119V80.5519H65.4073V90.1119H67.4873V84.7519C67.4873 83.1719 68.1673 82.2919 69.4873 82.2919C69.9273 82.2819 70.3773 82.3719 70.7873 82.5319L71.4273 80.5319C70.9573 80.3619 70.4473 80.2719 69.9473 80.2719L69.9873 80.3119ZM43.1673 81.3119C41.9873 80.6119 40.6373 80.2619 39.2673 80.3119C36.8473 80.3119 35.2673 81.4719 35.2673 83.3719C35.2673 84.9319 36.4273 85.8919 38.5673 86.1919L39.5673 86.3319C40.7073 86.4919 41.2473 86.7919 41.2473 87.3319C41.2473 88.0719 40.4873 88.4919 39.0673 88.4919C37.9273 88.5219 36.8073 88.1719 35.8873 87.4919L34.8873 89.1119C36.0973 89.9619 37.5473 90.3919 39.0273 90.3519C41.7873 90.3519 43.3873 89.0519 43.3873 87.2319C43.3873 85.4119 42.1273 84.6719 40.0473 84.3719L39.0473 84.2319C38.1473 84.1119 37.4273 83.9319 37.4273 83.2919C37.4273 82.6519 38.1073 82.1719 39.2473 82.1719C40.2973 82.1819 41.3373 82.4619 42.2473 82.9919L43.1673 81.3119ZM98.8773 80.3119C97.8473 80.2819 96.8773 80.8219 96.3573 81.7119V80.5519H94.2973V90.1119H96.3773V84.7519C96.3773 83.1719 97.0573 82.2919 98.3773 82.2919C98.8173 82.2819 99.2674 82.3719 99.6774 82.5319L100.317 80.5319C99.8374 80.3619 99.3373 80.2719 98.8373 80.2719L98.8773 80.3119ZM72.0773 85.3119C71.9773 87.9819 74.0573 90.2219 76.7273 90.3119C76.8773 90.3219 77.0273 90.3119 77.1773 90.3119C78.4273 90.3719 79.6573 89.9719 80.6173 89.1719L79.6173 87.4919C78.8973 88.0419 78.0173 88.3419 77.1173 88.3519C75.4273 88.2119 74.1673 86.7319 74.3073 85.0419C74.4273 83.5419 75.6173 82.3519 77.1173 82.2319C78.0173 82.2419 78.8973 82.5419 79.6173 83.0919L80.6173 81.4119C79.6573 80.6119 78.4273 80.2119 77.1773 80.2719C74.5173 80.1219 72.2373 82.1619 72.0773 84.8219C72.0673 84.9719 72.0673 85.1219 72.0773 85.2719V85.3119V85.3119ZM91.5573 85.3119V80.5319H89.4773V81.6919C88.7573 80.7719 87.6473 80.2519 86.4773 80.2919C83.7173 80.2919 81.4773 82.5319 81.4773 85.2919C81.4773 88.0519 83.7173 90.2919 86.4773 90.2919C87.6473 90.3319 88.7573 89.8119 89.4773 88.8919V90.0519H91.5573V85.3119ZM83.8173 85.3119C83.9073 83.7219 85.2773 82.5019 86.8773 82.5919C88.4673 82.6819 89.6874 84.0519 89.5974 85.6519C89.5074 87.1719 88.2473 88.3619 86.7273 88.3719C85.1473 88.3919 83.8373 87.1219 83.8173 85.5419C83.8073 85.4619 83.8073 85.3919 83.8173 85.3119ZM58.7173 80.3119C55.9573 80.3519 53.7473 82.6219 53.7873 85.3819C53.8273 88.1419 56.0973 90.3519 58.8573 90.3119C60.2873 90.3619 61.6773 89.8819 62.7773 88.9719L61.7773 87.4319C60.9873 88.0619 60.0073 88.4219 58.9973 88.4319C57.5673 88.5519 56.2973 87.5219 56.1373 86.0919H63.2473C63.2473 85.8319 63.2473 85.5719 63.2473 85.2919C63.2473 82.2919 61.3873 80.2919 58.7073 80.2919L58.7173 80.3119ZM58.7173 82.1719C60.0273 82.1419 61.1073 83.1819 61.1373 84.4919H56.1373C56.2173 83.1519 57.3373 82.1219 58.6773 82.1719H58.7173ZM110.887 85.3319V76.7119H108.807V81.7119C108.087 80.7919 106.977 80.2719 105.807 80.3119C103.047 80.3119 100.807 82.5519 100.807 85.3119C100.807 88.0719 103.047 90.3119 105.807 90.3119C106.977 90.3519 108.087 89.8319 108.807 88.9119V90.0719H110.887V85.3319ZM103.147 85.3319C103.237 83.7419 104.607 82.5219 106.197 82.6219C107.787 82.7119 109.007 84.0819 108.907 85.6819C108.817 87.2019 107.557 88.3919 106.037 88.4019C104.457 88.4219 103.147 87.1519 103.127 85.5719C103.137 85.4819 103.147 85.4119 103.147 85.3319ZM32.9173 85.3319V80.5519H30.8373V81.7119C30.1173 80.7919 29.0073 80.2719 27.8373 80.3119C25.0773 80.3119 22.8373 82.5519 22.8373 85.3119C22.8373 88.0719 25.0773 90.3119 27.8373 90.3119C29.0073 90.3519 30.1173 89.8319 30.8373 88.9119V90.0719H32.9173V85.3319ZM25.1773 85.3319C25.2673 83.7419 26.6373 82.5219 28.2273 82.6219C29.8173 82.7119 31.0373 84.0819 30.9473 85.6819C30.8573 87.2019 29.5973 88.3919 28.0773 88.4019C26.4973 88.4219 25.1873 87.1519 25.1673 85.5719C25.1673 85.4819 25.1773 85.4119 25.1773 85.3319ZM114.347 88.7219C114.477 88.7219 114.607 88.7419 114.727 88.7919C114.837 88.8419 114.947 88.9019 115.037 88.9919C115.127 89.0819 115.197 89.1819 115.247 89.2919C115.347 89.5319 115.347 89.7919 115.247 90.0319C115.197 90.1419 115.127 90.2419 115.037 90.3319C114.947 90.4219 114.837 90.4819 114.727 90.5319C114.607 90.5819 114.477 90.6119 114.347 90.6119C113.957 90.6119 113.607 90.3819 113.447 90.0319C113.347 89.7919 113.347 89.5319 113.447 89.2919C113.497 89.1819 113.567 89.0819 113.657 88.9919C113.747 88.9019 113.857 88.8419 113.967 88.7919C114.087 88.7419 114.217 88.7219 114.347 88.7219ZM114.347 90.4119C114.447 90.4119 114.547 90.3919 114.637 90.3519C114.727 90.3119 114.797 90.2619 114.867 90.1919C115.127 89.9119 115.127 89.4719 114.867 89.1919C114.797 89.1219 114.727 89.0719 114.637 89.0319C114.547 88.9919 114.447 88.9719 114.347 88.9719C114.247 88.9719 114.147 88.9919 114.057 89.0319C113.967 89.0719 113.887 89.1219 113.817 89.1919C113.557 89.4719 113.557 89.9119 113.817 90.1919C113.887 90.2619 113.967 90.3119 114.057 90.3519C114.147 90.3919 114.247 90.4219 114.347 90.4219V90.4119ZM114.407 89.2219C114.497 89.2219 114.597 89.2419 114.667 89.3019C114.727 89.3519 114.767 89.4319 114.757 89.5119C114.757 89.5819 114.737 89.6419 114.687 89.6919C114.627 89.7419 114.557 89.7719 114.477 89.7819L114.767 90.1119H114.537L114.267 89.7819H114.177V90.1119H113.987V89.2319L114.407 89.2219ZM114.187 89.3919V89.6319H114.407C114.447 89.6419 114.487 89.6419 114.527 89.6319C114.537 89.6019 114.537 89.5719 114.527 89.5419C114.537 89.5119 114.537 89.4819 114.527 89.4519C114.487 89.4419 114.447 89.4419 114.407 89.4519L114.187 89.3919Z" fill="black"/>
<path d="M73.9971 7.70166H42.4971V64.3117H73.9971V7.70166Z" fill="#FF5F00"/>
<path d="M44.4978 36.0117C44.4878 24.9617 49.5578 14.5217 58.2478 7.70174C42.6178 -4.58826 19.9878 -1.86826 7.69784 13.7617C-4.59216 29.3917 -1.87216 52.0217 13.7578 64.3117C26.8178 74.5717 45.1878 74.5717 58.2478 64.3117C49.5578 57.4917 44.4878 47.0517 44.4978 36.0117Z" fill="#EB001B"/>
<path d="M113.058 58.3219V57.1619H113.528V56.9219H112.338V57.1619H112.808V58.3219H113.058ZM115.368 58.3219V56.9219H115.008L114.588 57.9219L114.168 56.9219H113.798V58.3219H114.058V57.2719L114.448 58.1819H114.718L115.108 57.2719V58.3319L115.368 58.3219Z" fill="#F79E1B"/>
<path d="M116.497 36.0117C116.497 55.8917 100.377 72.0117 80.4971 72.0117C72.4271 72.0117 64.5871 69.3017 58.2471 64.3117C73.8771 52.0217 76.5971 29.3917 64.3071 13.7617C62.5371 11.5117 60.4971 9.47167 58.2471 7.70167C73.8771 -4.58833 96.5071 -1.87832 108.797 13.7517C113.787 20.0917 116.497 27.9317 116.497 36.0017V36.0117Z" fill="#F79E1B"/>
</svg>
