<svg width="117" height="91" viewBox="0 0 117 91" fill="none" xmlns="http://www.w3.org/2000/svg">
<path d="M21.1981 90.1114V84.1114C21.3381 82.1514 19.8581 80.4514 17.8881 80.3114C17.7381 80.3014 17.5881 80.3014 17.4381 80.3114C16.0881 80.2214 14.8081 80.8714 14.0781 82.0114C13.4181 80.9114 12.2081 80.2514 10.9181 80.3114C9.79809 80.2514 8.73809 80.7914 8.11809 81.7314V80.5514H6.03809V90.1114H8.13809V84.8514C7.96809 83.6214 8.82808 82.4914 10.0581 82.3314C10.1981 82.3114 10.3381 82.3014 10.4781 82.3114C11.8581 82.3114 12.5581 83.2114 12.5581 84.8314V90.1514H14.6581V84.8514C14.4981 83.6214 15.3681 82.4914 16.5981 82.3314C16.7281 82.3114 16.8681 82.3114 16.9981 82.3114C18.4181 82.3114 19.0981 83.2114 19.0981 84.8314V90.1514L21.1981 90.1114ZM52.2681 80.5514H48.8481V77.6514H46.7481V80.5514H44.8481V82.4514H46.7881V86.8514C46.7881 89.0714 47.6481 90.3914 50.1081 90.3914C51.0281 90.3914 51.9281 90.1414 52.7081 89.6514L52.1081 87.8714C51.5481 88.2014 50.9181 88.3914 50.2681 88.4114C49.2681 88.4114 48.8881 87.7714 48.8881 86.8114V82.4514H52.2881L52.2681 80.5514ZM70.0081 80.3114C68.9781 80.2814 68.0081 80.8214 67.4881 81.7114V80.5514H65.4281V90.1114H67.5081V84.7514C67.5081 83.1714 68.1881 82.2914 69.5081 82.2914C69.9481 82.2814 70.3981 82.3714 70.8081 82.5314L71.4481 80.5314C70.9781 80.3614 70.4681 80.2714 69.9681 80.2714L70.0081 80.3114ZM43.1881 81.3114C42.0081 80.6114 40.6581 80.2614 39.2881 80.3114C36.8681 80.3114 35.2881 81.4714 35.2881 83.3714C35.2881 84.9314 36.4481 85.8914 38.5881 86.1914L39.5881 86.3314C40.7281 86.4914 41.2681 86.7914 41.2681 87.3314C41.2681 88.0714 40.5081 88.4914 39.0881 88.4914C37.9481 88.5214 36.8281 88.1714 35.9081 87.4914L34.9081 89.1114C36.1181 89.9614 37.5681 90.3914 39.0481 90.3514C41.8081 90.3514 43.4081 89.0514 43.4081 87.2314C43.4081 85.4114 42.1481 84.6714 40.0681 84.3714L39.0681 84.2314C38.1681 84.1114 37.4481 83.9314 37.4481 83.2914C37.4481 82.6514 38.1281 82.1714 39.2681 82.1714C40.3181 82.1814 41.3581 82.4614 42.2681 82.9914L43.1881 81.3114ZM98.8981 80.3114C97.8681 80.2814 96.8981 80.8214 96.3781 81.7114V80.5514H94.3181V90.1114H96.3981V84.7514C96.3981 83.1714 97.0781 82.2914 98.3981 82.2914C98.8381 82.2814 99.2881 82.3714 99.6981 82.5314L100.338 80.5314C99.8681 80.3614 99.3581 80.2714 98.8581 80.2714L98.8981 80.3114ZM72.0981 85.3114C71.9981 87.9814 74.0781 90.2214 76.7481 90.3114C76.8981 90.3214 77.0481 90.3114 77.1981 90.3114C78.4481 90.3714 79.6781 89.9714 80.6381 89.1714L79.6381 87.4914C78.9181 88.0414 78.0381 88.3414 77.1381 88.3514C75.4481 88.2114 74.1881 86.7314 74.3281 85.0414C74.4481 83.5414 75.6381 82.3514 77.1381 82.2314C78.0381 82.2414 78.9181 82.5414 79.6381 83.0914L80.6381 81.4114C79.6781 80.6114 78.4481 80.2114 77.1981 80.2714C74.5381 80.1214 72.2581 82.1614 72.0981 84.8214C72.0881 84.9714 72.0881 85.1214 72.0981 85.2714V85.3114V85.3114ZM91.5781 85.3114V80.5514H89.4981V81.7114C88.7781 80.7914 87.6681 80.2714 86.4981 80.3114C83.7381 80.3114 81.4981 82.5514 81.4981 85.3114C81.4981 88.0714 83.7381 90.3114 86.4981 90.3114C87.6681 90.3514 88.7781 89.8314 89.4981 88.9114V90.0714H91.5781V85.3114ZM83.8381 85.3114C83.9281 83.7214 85.2981 82.5014 86.8981 82.6014C88.4881 82.6914 89.7081 84.0614 89.6181 85.6614C89.5281 87.1814 88.2681 88.3714 86.7481 88.3814C85.1681 88.4014 83.8581 87.1314 83.8381 85.5514C83.8281 85.4614 83.8381 85.3914 83.8381 85.3114ZM58.7381 80.3114C55.9781 80.3514 53.7681 82.6214 53.8081 85.3814C53.8481 88.1414 56.1181 90.3514 58.8781 90.3114C60.3181 90.3814 61.7281 89.9214 62.8481 89.0114L61.8481 87.4714C61.0581 88.1014 60.0781 88.4614 59.0681 88.4714C57.6381 88.5914 56.3681 87.5614 56.2081 86.1314H63.3081C63.3081 85.8714 63.3081 85.6114 63.3081 85.3314C63.3081 82.3314 61.4481 80.3314 58.7681 80.3314L58.7381 80.3114ZM58.7381 82.1714C60.0481 82.1414 61.1281 83.1814 61.1581 84.4914H56.1581C56.2381 83.1514 57.3581 82.1214 58.6981 82.1714H58.7381ZM110.848 85.3314V76.7114H108.848V81.7114C108.128 80.7914 107.018 80.2714 105.848 80.3114C103.088 80.3114 100.848 82.5514 100.848 85.3114C100.848 88.0714 103.088 90.3114 105.848 90.3114C107.018 90.3514 108.128 89.8314 108.848 88.9114V90.0714H110.848V85.3314ZM114.318 88.7214C114.448 88.7214 114.578 88.7414 114.698 88.7914C114.808 88.8414 114.918 88.9014 115.008 88.9914C115.098 89.0814 115.168 89.1814 115.218 89.2914C115.318 89.5314 115.318 89.7914 115.218 90.0314C115.168 90.1414 115.098 90.2414 115.008 90.3314C114.918 90.4214 114.808 90.4814 114.698 90.5314C114.578 90.5814 114.448 90.6114 114.318 90.6114C113.928 90.6114 113.578 90.3814 113.418 90.0314C113.318 89.7914 113.318 89.5314 113.418 89.2914C113.468 89.1814 113.538 89.0814 113.628 88.9914C113.718 88.9014 113.828 88.8414 113.938 88.7914C114.068 88.7414 114.208 88.7114 114.348 88.7214H114.318ZM114.318 90.4114C114.418 90.4114 114.518 90.3914 114.608 90.3514C114.698 90.3114 114.768 90.2614 114.838 90.1914C115.098 89.9114 115.098 89.4714 114.838 89.1914C114.768 89.1214 114.698 89.0714 114.608 89.0314C114.518 88.9914 114.418 88.9714 114.318 88.9714C114.218 88.9714 114.118 88.9914 114.028 89.0314C113.938 89.0714 113.858 89.1214 113.788 89.1914C113.528 89.4714 113.528 89.9114 113.788 90.1914C113.858 90.2614 113.938 90.3114 114.028 90.3514C114.128 90.3914 114.238 90.4114 114.348 90.4114H114.318ZM114.378 89.2214C114.468 89.2214 114.568 89.2414 114.638 89.3014C114.698 89.3514 114.738 89.4314 114.728 89.5114C114.728 89.5814 114.708 89.6414 114.658 89.6914C114.598 89.7414 114.528 89.7714 114.448 89.7814L114.738 90.1114H114.508L114.238 89.7814H114.148V90.1114H113.958V89.2314L114.378 89.2214ZM114.158 89.3914V89.6314H114.378C114.418 89.6414 114.458 89.6414 114.498 89.6314C114.508 89.6014 114.508 89.5714 114.498 89.5414C114.508 89.5114 114.508 89.4814 114.498 89.4514C114.458 89.4414 114.418 89.4414 114.378 89.4514L114.158 89.3914ZM103.158 85.3314C103.248 83.7414 104.618 82.5214 106.218 82.6114C107.808 82.7014 109.028 84.0714 108.938 85.6714C108.848 87.1914 107.588 88.3814 106.068 88.3914C104.488 88.4114 103.178 87.1414 103.158 85.5614C103.148 85.4814 103.158 85.4114 103.158 85.3314ZM32.9281 85.3314V80.5514H30.8481V81.7114C30.1281 80.7914 29.0181 80.2714 27.8481 80.3114C25.0881 80.3114 22.8481 82.5514 22.8481 85.3114C22.8481 88.0714 25.0881 90.3114 27.8481 90.3114C29.0181 90.3514 30.1281 89.8314 30.8481 88.9114V90.0714H32.9281V85.3314ZM25.1881 85.3314C25.2781 83.7414 26.6481 82.5214 28.2481 82.6114C29.8381 82.7014 31.0581 84.0714 30.9681 85.6714C30.8781 87.1914 29.6181 88.3814 28.0981 88.3914C26.5181 88.4214 25.2081 87.1614 25.1681 85.5814C25.1681 85.5014 25.1681 85.4214 25.1781 85.3314H25.1881Z" fill="white"/>
<path d="M73.998 7.70166H42.498V64.3117H73.998V7.70166Z" fill="#FF5F00"/>
<path d="M44.4978 36.0117C44.4878 24.9617 49.5578 14.5217 58.2478 7.70174C42.6178 -4.58826 19.9878 -1.86826 7.69784 13.7617C-4.59216 29.3917 -1.87216 52.0217 13.7578 64.3117C26.8178 74.5717 45.1878 74.5717 58.2478 64.3117C49.5578 57.4917 44.4878 47.0617 44.4978 36.0117Z" fill="#EB001B"/>
<path d="M116.498 36.0117C116.498 55.8917 100.378 72.0117 80.498 72.0117C72.428 72.0117 64.588 69.3017 58.248 64.3117C73.878 52.0217 76.598 29.3917 64.308 13.7617C62.538 11.5117 60.498 9.47168 58.248 7.70168C73.878 -4.58832 96.508 -1.87833 108.798 13.7517C113.788 20.0917 116.498 27.9317 116.498 36.0117Z" fill="#F79E1B"/>
<path d="M113.058 58.3116V57.1516H113.528V56.9116H112.338V57.1516H112.848V58.3116H113.058ZM115.368 58.3116V56.9116H115.008L114.588 57.9116L114.168 56.9116H113.848V58.3116H114.108V57.2616L114.498 58.1716H114.768L115.158 57.2616V58.3216L115.368 58.3116Z" fill="#F79E1B"/>
</svg>
