<svg width="400" height="120" viewBox="0 0 400 120" fill="none" xmlns="http://www.w3.org/2000/svg">
<path fill-rule="evenodd" clip-rule="evenodd" d="M63.5506 13.0164C66.6953 12.9976 76.0412 12.1558 80 25.5166C82.6667 34.5166 86.9145 49.2591 92.7435 69.7439H95.1174C101.369 48.1474 105.663 33.4049 108 25.5166C112 12.0166 122 13.0166 126 13.0166L156.861 13.0167V109.016H125.407V52.4422H123.297L105.763 109.016H82.0978L64.5636 52.4003H62.4543V109.016H31V13.0167L63.5506 13.0164ZM202.029 13.0167V69.6331H204.538L225.867 23.0778C230.007 13.8132 238.831 13.0167 238.831 13.0167H269.27V109.017H237.159V52.4003H234.649L213.739 98.9555C209.598 108.178 200.356 109.017 200.356 109.017H169.917V13.0167H202.029ZM380.26 58.6365C375.781 71.3294 361.715 80.4198 346.141 80.4198H312.467V109.017H281.931V58.6365H380.26Z" fill="black"/>
<path fill-rule="evenodd" clip-rule="evenodd" d="M347.614 13.0166H280.329C281.931 34.3895 300.336 52.686 319.39 52.686H382.382C386.017 34.9227 373.503 13.0166 347.614 13.0166Z" fill="url(#paint0_linear_3_2)"/>
<defs>
<linearGradient id="paint0_linear_3_2" x1="383" y1="37.9704" x2="280.329" y2="37.9704" gradientUnits="userSpaceOnUse">
<stop/>
<stop offset="1"/>
</linearGradient>
</defs>
</svg>
