<svg width="216" height="70" viewBox="0 0 216 70" fill="none" xmlns="http://www.w3.org/2000/svg">
<path d="M82.01 1.23001L53.73 68.7H35.28L21.37 14.85C20.52 11.53 19.79 10.32 17.22 8.92001C13.03 6.64001 6.1 4.50999 0 3.17999L0.420013 1.22H30.12C33.9 1.22 37.31 3.74001 38.17 8.10001L45.52 47.15L63.68 1.23001H82.01V1.23001ZM154.31 46.67C154.38 28.86 129.68 27.88 129.85 19.93C129.9 17.51 132.21 14.94 137.25 14.28C139.75 13.95 146.64 13.7 154.46 17.3L157.52 2.99002C153.32 1.46002 147.92 0 141.19 0C123.94 0 111.8 9.17 111.69 22.31C111.58 32.02 120.36 37.44 126.97 40.67C133.77 43.98 136.05 46.1 136.02 49.05C135.98 53.58 130.6 55.57 125.58 55.65C116.8 55.79 111.71 53.28 107.65 51.39L104.5 66.17C108.58 68.04 116.1 69.67 123.91 69.75C142.25 69.75 154.25 60.69 154.31 46.67ZM199.86 68.7H216L201.91 1.23001H187.01C183.66 1.23001 180.84 3.17999 179.58 6.17999L153.4 68.7H171.73L175.37 58.62H197.76L199.86 68.7ZM180.38 44.79L189.57 19.45L194.86 44.79H180.38ZM106.95 1.23001L92.52 68.7H75.07L89.5 1.23001H106.95Z" fill="#010202"/>
</svg>
