<?xml version="1.0" standalone="no"?>
<!DOCTYPE svg PUBLIC "-//W3C//DTD SVG 1.1//EN" "http://www.w3.org/Graphics/SVG/1.1/DTD/svg11.dtd" >
<svg xmlns="http://www.w3.org/2000/svg" xmlns:xlink="http://www.w3.org/1999/xlink" version="1.1">
<metadata>
Created by FontForge 20170731 at Sat Aug 31 17:51:25 2019
 By Aleksey,,,
</metadata>
<defs>
<font id="FRIZON" horiz-adv-x="683" >
  <font-face 
    font-family="FRIZON"
    font-weight="400"
    font-stretch="normal"
    units-per-em="1000"
    panose-1="0 0 0 0 0 0 0 0 0 0"
    ascent="800"
    descent="-200"
    x-height="700"
    cap-height="700"
    bbox="-74 -228 1064 1000"
    underline-thickness="50"
    underline-position="-175"
    unicode-range="U+000D-20AC"
  />
<missing-glyph horiz-adv-x="250" 
 />
    <glyph glyph-name=".notdef" horiz-adv-x="250" 
 />
    <glyph glyph-name="uni0000" horiz-adv-x="0" 
 />
    <glyph glyph-name="uni0000" horiz-adv-x="0" 
 />
    <glyph glyph-name="uni000D" unicode="&#xd;" horiz-adv-x="250" 
 />
    <glyph glyph-name="space" unicode=" " horiz-adv-x="250" 
 />
    <glyph glyph-name="exclam" unicode="!" horiz-adv-x="331" 
d="M246 232h-162l-32 468h231zM75 85q0 -44 26 -70t70 -26t70 26t26 70t-26 70t-70 26t-70 -26t-26 -70z" />
    <glyph glyph-name="quotedbl" unicode="&#x22;" horiz-adv-x="342" 
d="M171 750h146l-2 -211h-96zM0 750h146l-2 -211h-96z" />
    <glyph glyph-name="numbersign" unicode="#" horiz-adv-x="830" 
d="M52 0l68 172h-46v140h101l21 54h-122v146h179l74 188h194l-75 -188h82l74 188h194l-75 -188h53v-146h-112l-21 -54h133v-140h-189l-69 -172h-189l68 172h-85l-69 -172h-189zM450 312l21 54h-84l-21 -54h84z" />
    <glyph glyph-name="dollar" unicode="$" 
d="M287 717v83h118v-84q66 -10 118 -37t83 -56l-134 -122q-25 30 -67 43v-109q68 -4 115 -24t76.5 -50t43 -67.5t13.5 -76.5t-13.5 -77t-43 -70t-76.5 -55t-115 -31v-71h-118v71q-67 9 -120 36.5t-85 56.5l134 122q26 -31 71 -44v110q-70 4 -118 23.5t-78 49.5t-43 67.5
t-13 76.5t13.5 78t43.5 71t78 55.5t117 30.5zM228 497q0 -15 14.5 -29t44.5 -22v101q-29 -8 -44 -21.5t-15 -28.5zM405 154q26 8 40.5 21.5t14.5 27.5t-13.5 27.5t-41.5 22.5v-99z" />
    <glyph glyph-name="percent" unicode="%" horiz-adv-x="870" 
d="M280 0h-137l420 700h137zM15 526q0 49 15.5 85.5t40 61t56.5 36.5t65 12t65 -12t57 -36.5t40.5 -61t15.5 -85.5t-15.5 -86t-40.5 -61.5t-57 -36.5t-65 -12t-65 12t-56.5 36.5t-40 61.5t-15.5 86zM116 526q0 -55 23.5 -81.5t52.5 -26.5t52.5 27t23.5 81t-23.5 81t-52.5 27
t-52.5 -27t-23.5 -81zM484 174q0 49 15.5 85.5t40 61t56.5 36.5t65 12t65 -12t57 -36.5t40.5 -61t15.5 -85.5t-15.5 -86t-40.5 -61.5t-57 -36.5t-65 -12t-65 12t-56.5 36.5t-40 61.5t-15.5 86zM586 174q0 -55 23 -82t52 -27t53 27.5t24 81.5t-24 81t-53 27t-52 -27t-23 -81z
" />
    <glyph glyph-name="ampersand" unicode="&#x26;" horiz-adv-x="698" 
d="M252 286q-37 -30 -37 -79q0 -10 5.5 -20.5t14 -18.5t18.5 -13.5t20 -5.5q50 0 90 29zM318 582q-16 0 -27 -9.5t-11 -26.5q0 -18 18 -39q2 -4 12 -14l8 -8q1 0 6 2.5t11 6t11.5 7.5t7.5 6q6 6 6 25q0 24 -12 37t-30 13zM600 -28l-20 11q-24 15 -47.5 30.5t-45.5 33.5
q-88 -67 -210 -67q-56 0 -104.5 14.5t-84.5 41.5t-56.5 66.5t-20.5 90.5q0 37 11 68t30.5 56.5t45.5 46.5t56 38l-3 3q-29 29 -47 64.5t-18 76.5q0 42 20.5 76t53.5 57.5t75.5 36t86.5 12.5q41 0 81.5 -11.5t72.5 -33.5t51.5 -54.5t19.5 -74.5q0 -31 -10.5 -57.5t-28.5 -48
t-41 -39.5t-47 -33l53 -52q5 11 8 21t5 21l4 20l174 -56l-3 -14q-17 -64 -51 -122l75 -47z" />
    <glyph glyph-name="quotesingle" unicode="'" horiz-adv-x="176" 
d="M48 539l-48 211h146l-2 -211h-96z" />
    <glyph glyph-name="parenleft" unicode="(" horiz-adv-x="425" 
d="M50 151v194q0 76 24 141t68 112.5t106.5 74.5t140.5 27v-81q-28 0 -55 -25.5t-48.5 -65.5t-34.5 -88.5t-13 -94.5v-194q0 -48 13 -97t34.5 -88.5t48.5 -64.5t55 -25v-86q-63 0 -123.5 22t-108.5 67t-77.5 113t-29.5 159z" />
    <glyph glyph-name="parenright" unicode=")" horiz-adv-x="431" 
d="M36 -124q28 0 55 25t48 64.5t34 88.5t13 97v194q0 46 -13 94.5t-34 88.5t-48 65.5t-55 25.5v81q78 0 141.5 -26.5t108.5 -73.5t69.5 -112.5t24.5 -142.5v-194q0 -91 -29.5 -159t-78 -113t-110 -67t-126.5 -22v86z" />
    <glyph glyph-name="asterisk" unicode="*" horiz-adv-x="482" 
d="M298 603l81 54l54 -102l-97 -43l97 -44l-54 -102l-81 54l5 -97h-123l10 97l-80 -54l-60 102l97 44l-97 43l60 102l80 -54l-10 97h123z" />
    <glyph glyph-name="plus" unicode="+" horiz-adv-x="503" 
d="M184 409v146h140v-146h145v-140h-145v-145h-140v145h-145v140h145z" />
    <glyph glyph-name="comma" unicode="," horiz-adv-x="229" 
d="M98 -11q-44 0 -70 26t-26 70t26 70t70 26q48 0 72 -28t24 -74t-8 -85.5t-17 -64.5h-53q6 21 8 36.5t2 26.5q-13 -3 -28 -3z" />
    <glyph glyph-name="hyphen" unicode="-" horiz-adv-x="580" 
d="M505 409v-140h-430v140h430z" />
    <glyph glyph-name="period" unicode="." horiz-adv-x="211" 
d="M2 85q0 44 26 70t70 26t70 -26t26 -70t-26 -70t-70 -26t-70 26t-26 70z" />
    <glyph glyph-name="slash" unicode="/" horiz-adv-x="636" 
d="M203 0h-189l420 700h189z" />
    <glyph glyph-name="zero" unicode="0" horiz-adv-x="745" 
d="M35 350q0 93 29 163t76.5 116.5t108 69.5t123.5 23t124 -23t108.5 -69.5t76.5 -116.5t29 -163t-29 -162.5t-76.5 -116t-108.5 -70t-124 -23.5t-123.5 23.5t-108 70t-76.5 116t-29 162.5zM228 350q0 -52 12.5 -90.5t32.5 -64t46 -38.5t53 -13t53 13t46.5 38.5t33 64.5
t12.5 90t-12.5 90t-33 64.5t-46.5 38.5t-53 13t-53 -13t-46 -38.5t-32.5 -64t-12.5 -90.5z" />
    <glyph glyph-name="one" unicode="1" horiz-adv-x="366" 
d="M312 700v-700h-193v619h-63v81h256z" />
    <glyph glyph-name="two" unicode="2" horiz-adv-x="676" 
d="M442 167h199v-167h-606l358 409q16 18 22 35.5t6 31.5q0 18 -7 32t-19 24.5t-27 16t-31 5.5q-22 0 -44 -9.5t-42 -24.5t-38 -34t-31 -39l-131 143q34 39 73.5 64t80 40t78.5 20.5t69 5.5q59 0 108.5 -17.5t85.5 -48t56 -72t20 -90.5q0 -98 -85 -205z" />
    <glyph glyph-name="three" unicode="3" horiz-adv-x="641" 
d="M336 -18q-31 0 -69 5.5t-78.5 19.5t-80 38.5t-73.5 61.5l131 138q13 -19 32.5 -36.5t42 -31t47.5 -21.5t49 -8q39 0 58 19t19 42t-18.5 42t-56.5 19h-86v167h86q38 0 56.5 18t18.5 40t-19.5 40.5t-57.5 18.5q-24 0 -49 -8t-47.5 -21t-42 -30.5t-32.5 -36.5l-131 137
q34 38 73.5 62t80 38t78.5 19.5t69 5.5q59 0 108.5 -17t85.5 -47t56 -71t20 -89q0 -12 -2 -29.5t-8 -37t-17 -39.5t-29 -39q18 -18 29 -38.5t17 -40t8 -37t2 -29.5q0 -48 -20 -89t-56 -71t-85.5 -47t-108.5 -17z" />
    <glyph glyph-name="four" unicode="4" horiz-adv-x="682" 
d="M139 700h193l-66 -334h168v334h193v-700h-192v199h-400z" />
    <glyph glyph-name="five" unicode="5" horiz-adv-x="668" 
d="M304 533v-61h52q83 0 136.5 -20t84.5 -53.5t43.5 -76.5t12.5 -89q0 -50 -19 -95t-54 -79t-85.5 -54t-113.5 -20q-31 0 -73 9t-87 27.5t-88.5 47t-77.5 67.5l131 122q13 -20 35 -39t47.5 -34t53.5 -24.5t53 -9.5q43 0 64 24t21 53t-21 53t-64 24h-248v395h502v-167h-305z
" />
    <glyph glyph-name="six" unicode="6" horiz-adv-x="665" 
d="M86 382l165 318h192l-116 -228h3q58 0 112 -13.5t96 -42.5t67 -74t25 -108q0 -57 -21.5 -103t-60.5 -79t-93.5 -50.5t-121.5 -17.5t-122 17.5t-94 49t-60.5 74.5t-21.5 95q0 45 14.5 87.5t36.5 74.5zM337 151q55 0 81.5 24.5t26.5 53.5q0 15 -6.5 29t-20 25t-34 18
t-47.5 7t-47 -7t-33.5 -18t-20.5 -25t-7 -29q0 -29 26.5 -53.5t81.5 -24.5z" />
    <glyph glyph-name="seven" unicode="7" horiz-adv-x="589" 
d="M345 533h-310v167h519v-167l-213 -533h-208z" />
    <glyph glyph-name="eight" unicode="8" horiz-adv-x="580" 
d="M35 210q0 44 13.5 81t36.5 66q-50 56 -50 139q0 50 18.5 90.5t52 69.5t80.5 44.5t104 15.5t104 -15.5t80.5 -44.5t52 -69.5t18.5 -90.5q0 -83 -50 -139q23 -29 36.5 -66t13.5 -81q0 -51 -18.5 -92.5t-52 -70.5t-80.5 -45t-104 -16t-104 16t-80.5 45t-52 70.5t-18.5 92.5z
M291 153q31 0 46 19t15 42t-15.5 43t-47.5 20q-30 0 -45 -19.5t-15 -42.5t15 -42.5t47 -19.5zM291 451q31 0 46 15t15 33q0 19 -15.5 34.5t-47.5 15.5q-30 0 -45 -15t-15 -34q0 -18 15 -33.5t47 -15.5z" />
    <glyph glyph-name="nine" unicode="9" horiz-adv-x="665" 
d="M579 318l-165 -318h-192l116 228h-3q-58 0 -112 13.5t-96 42.5t-67 74t-25 108q0 57 21.5 103t60.5 79t94 50.5t122 17.5t121.5 -17.5t93.5 -49t60.5 -74.5t21.5 -95q0 -45 -14.5 -87.5t-36.5 -74.5zM328 549q-55 0 -81.5 -24.5t-26.5 -53.5q0 -15 7 -29t20.5 -25
t33.5 -18t47 -7t47.5 7t34 18t20 25t6.5 29q0 29 -26.5 53.5t-81.5 24.5z" />
    <glyph glyph-name="colon" unicode=":" horiz-adv-x="228" 
d="M2 404q0 44 26 70t70 26t70 -26t26 -70t-26 -70t-70 -26t-70 26t-26 70zM2 85q0 44 26 70t70 26t70 -26t26 -70t-26 -70t-70 -26t-70 26t-26 70z" />
    <glyph glyph-name="semicolon" unicode=";" horiz-adv-x="244" 
d="M98 -11q-44 0 -70 26t-26 70t26 70t70 26q48 0 72 -28t24 -74t-8 -85.5t-17 -64.5h-53q6 21 8 36.5t2 26.5q-13 -3 -28 -3zM2 404q0 44 26 70t70 26t70 -26t26 -70t-26 -70t-70 -26t-70 26t-26 70z" />
    <glyph glyph-name="less" unicode="&#x3c;" horiz-adv-x="517" 
d="M445 619v-140l-285 -140l285 -140v-140l-430 210v140z" />
    <glyph glyph-name="equal" unicode="=" horiz-adv-x="580" 
d="M75 337h430v-145h-430v145zM75 380v140h430v-140h-430z" />
    <glyph glyph-name="greater" unicode="&#x3e;" horiz-adv-x="517" 
d="M71 479v140l430 -210v-140l-430 -210v140l285 140z" />
    <glyph glyph-name="question" unicode="?" horiz-adv-x="648" 
d="M32 485q0 40 14.5 78.5t43 69t72.5 49t102 18.5h113q70 0 122.5 -29.5t82 -75t33.5 -99t-22.5 -101t-87.5 -83t-160 -43.5v-37h-162q-4 53 -8 102t-8 102h172q42 0 63.5 16t21.5 35t-21.5 35t-63.5 16h-37q-41 0 -61 -16.5t-20 -36.5h-189zM170 85q0 -44 26 -70t70 -26
t70 26t26 70t-26 70t-70 26t-70 -26t-26 -70z" />
    <glyph glyph-name="at" unicode="@" horiz-adv-x="1091" 
d="M635 403q-21 11 -39.5 16t-37.5 5q-108 0 -108 -163.5t98 -163.5q26 0 46 11t41 31v264zM833 -146q-110 -46 -271 -46q-509 0 -509 456q0 458 510 458q501 0 501 -446q0 -59 -15.5 -112.5t-48 -94t-83 -64.5t-119.5 -24q-24 0 -48.5 5t-45 13.5t-36 19t-21.5 22.5
q-59 -63 -183 -63q-206 0 -206 262q0 284 244 284q93 0 136 -40v33h192v-375q0 -19 12.5 -30t30.5 -11q26 0 42 21.5t25 51t12.5 60t3.5 47.5q0 163 -90.5 254.5t-294.5 91.5q-408 0 -408 -363q0 -361 399 -361q131 0 219 39z" />
    <glyph glyph-name="A" unicode="A" horiz-adv-x="770" 
d="M137 366h296l-94 334h199l197 -700h-200l-56 199h-189l-56 -199h-199z" />
    <glyph glyph-name="B" unicode="B" horiz-adv-x="781" 
d="M480 167q39 0 58.5 16.5t19.5 36.5t-19.5 36.5t-58.5 16.5h-233v-106h233zM237 440h243q38 0 56 14.5t18 32.5q0 17 -18 31.5t-56 14.5h-280l-145 167h441q63 0 109.5 -18.5t78 -48.5t47 -68t15.5 -78q0 -35 -12 -69t-36 -63q24 -29 36 -64t12 -72q0 -41 -15.5 -80.5
t-47 -70t-78 -49.5t-109.5 -19h-441v273z" />
    <glyph glyph-name="C" unicode="C" horiz-adv-x="704" 
d="M535 501q-24 25 -57 38.5t-75 13.5q-43 0 -76.5 -14.5t-56.5 -41.5t-35 -64.5t-12 -82.5q0 -92 47 -147.5t133 -55.5q45 0 80 15.5t58 43.5l119 -137q-48 -43 -113 -66t-143 -23q-83 0 -151 26.5t-116.5 75.5t-75 117t-26.5 152q0 83 26.5 151t75 116.5t117 75
t151.5 26.5q81 0 148 -25t116 -72z" />
    <glyph glyph-name="D" unicode="D" horiz-adv-x="776" 
d="M55 323l183 168v-329h126q46 0 80 16t57 42t34.5 59.5t11.5 67.5q0 35 -11.5 68.5t-34.5 59.5t-57 42t-80 16h-169l-140 167h349q84 0 147.5 -30t105.5 -79.5t63 -112t21 -128.5t-21 -128.5t-63 -112t-105.5 -79.5t-147.5 -30h-349v323z" />
    <glyph glyph-name="E" unicode="E" 
d="M648 700v-167h-401v-89h401l-179 -167h-221v-110h400v-167h-593v700h593z" />
    <glyph glyph-name="F" unicode="F" 
d="M248 277v-277h-193v700h593v-167h-401v-89h401l-182 -167h-218z" />
    <glyph glyph-name="G" unicode="G" horiz-adv-x="795" 
d="M427 -20q-83 0 -154.5 26.5t-124.5 75.5t-83 117t-30 152q0 83 30 151t83 116.5t125 75t155 26.5q81 0 154.5 -25t122.5 -72l-134 -122q-24 25 -57 38.5t-75 13.5q-43 0 -81 -14.5t-67 -41.5t-46 -64.5t-17 -82.5q0 -46 17 -83.5t46 -64t67.5 -41t81.5 -14.5q11 0 26 1
t30 3t28.5 4.5t22.5 6.5v82l-146 168h339v-412h-137q-15 -5 -38 -8.5t-47.5 -6t-48.5 -4t-42 -1.5z" />
    <glyph glyph-name="H" unicode="H" horiz-adv-x="797" 
d="M55 0v304l182 168h312v228h193v-700h-192v305h-303v-305h-192z" />
    <glyph glyph-name="I" unicode="I" horiz-adv-x="302" 
d="M55 0v700h192v-700h-192z" />
    <glyph glyph-name="J" unicode="J" 
d="M172 202q22 -27 51.5 -41t60.5 -14q29 0 56 11.5t48.5 34.5t34.5 57t13 80v370h192v-383q0 -84 -29.5 -147t-78 -105.5t-110 -63.5t-126.5 -21q-69 0 -134.5 24t-114.5 72z" />
    <glyph glyph-name="K" unicode="K" horiz-adv-x="776" 
d="M55 0v700h193v-296l240 296h215l-226 -279l264 -421h-196l-179 285l-118 -146v-139h-193z" />
    <glyph glyph-name="L" unicode="L" horiz-adv-x="664" 
d="M229 700v-533h400v-167h-593v521zM35 520l1 1z" />
    <glyph glyph-name="M" unicode="M" horiz-adv-x="886" 
d="M55 94v606h231l158 -288l157 288h230v-700h-192v417l-196 -354l-195 354v-146z" />
    <glyph glyph-name="N" unicode="N" horiz-adv-x="798" 
d="M248 700l302 -414v234l193 180v-700h-192v2l-303 415v-417h-193v700h193z" />
    <glyph glyph-name="O" unicode="O" horiz-adv-x="810" 
d="M35 351q0 83 26.5 151t75 116.5t116.5 75t151 26.5q84 0 152 -26.5t117 -75t75.5 -116.5t26.5 -151q0 -84 -26.5 -152t-75.5 -117t-117 -75.5t-152 -26.5q-83 0 -151 26.5t-116.5 75.5t-75 117t-26.5 152zM228 350q0 -92 44.5 -147.5t130.5 -55.5q44 0 77 14.5t56 41
t34.5 64t11.5 83.5q0 45 -11.5 82.5t-34.5 64.5t-56 41.5t-77 14.5q-86 0 -130.5 -56t-44.5 -147z" />
    <glyph glyph-name="P" unicode="P" horiz-adv-x="775" 
d="M247 199v-199h-192v198l183 168h224q39 0 62.5 23.5t23.5 62.5t-23.5 60t-62.5 21h-267l-140 167h436q56 0 102 -18t78.5 -51t50.5 -79t18 -102q0 -57 -18 -103.5t-50.5 -79t-78.5 -50.5t-102 -18h-244z" />
    <glyph glyph-name="Q" unicode="Q" horiz-adv-x="827" 
d="M404 720q84 0 152 -26.5t117 -75t75.5 -116.5t26.5 -151q0 -71 -19 -130.5t-55 -106.5l91 -101l-133 -120l-103 113q-70 -26 -151 -26q-83 0 -151.5 26.5t-117 75.5t-75 117t-26.5 152q0 83 26.5 151t75 116.5t116.5 75t151 26.5zM403 147q44 0 77 14.5t56 41t34.5 64
t11.5 83.5q0 45 -11.5 82.5t-34.5 64.5t-56 41.5t-77 14.5q-86 0 -130.5 -56t-44.5 -147q0 -92 44.5 -147.5t130.5 -55.5z" />
    <glyph glyph-name="R" unicode="R" horiz-adv-x="796" 
d="M55 0v230l183 168h224q45 0 67 21t22 47t-22 46.5t-67 20.5h-267l-140 167h436q63 0 110 -20.5t78.5 -53.5t47 -75t15.5 -86q0 -33 -9 -64.5t-26 -60t-43 -51t-61 -37.5l158 -252h-192l-144 231h-178v-231h-192z" />
    <glyph glyph-name="S" unicode="S" horiz-adv-x="688" 
d="M369 436q78 0 132 -18.5t87.5 -49.5t49 -70t15.5 -81q0 -43 -16.5 -85t-53.5 -76t-97 -55t-146 -21q-42 0 -81 8.5t-72 22.5t-59.5 31t-45.5 35l134 122q20 -23 52 -37.5t79 -14.5q54 0 83.5 17.5t29.5 38.5q0 23 -34 42t-107 19q-79 0 -133 18.5t-87.5 49t-48.5 70
t-15 80.5q0 43 16.5 85.5t53.5 76.5t97 55t146 21q42 0 81 -8.5t72 -22.5t59.5 -31t45.5 -35l-134 -122q-20 23 -52 37.5t-79 14.5q-54 0 -83.5 -17.5t-29.5 -38.5q0 -23 34 -42t107 -19z" />
    <glyph glyph-name="T" unicode="T" horiz-adv-x="758" 
d="M35 700h688v-167h-243v-356l-192 -177v533h-253v167z" />
    <glyph glyph-name="U" unicode="U" horiz-adv-x="798" 
d="M743 700v-383q0 -84 -29.5 -147t-78 -105.5t-110 -63.5t-126.5 -21q-64 0 -126 21t-110.5 63.5t-78 105.5t-29.5 147v383h192v-370q0 -46 13 -80t34.5 -57t49 -34.5t55.5 -11.5q29 0 56 11.5t48.5 34.5t34.5 57t13 80v191z" />
    <glyph glyph-name="V" unicode="V" horiz-adv-x="714" 
d="M35 500h200l94 -335l150 535h200l-197 -700h-306z" />
    <glyph glyph-name="W" unicode="W" horiz-adv-x="954" 
d="M35 533h173l57 -212l102 379h174v-2l102 -377l102 379h174l-190 -700h-173l-102 379l-102 -377v-2h-174z" />
    <glyph glyph-name="X" unicode="X" horiz-adv-x="774" 
d="M272 365l-116 177h231l102 158h230l-217 -335l237 -365h-231l-121 187l-122 -187h-230z" />
    <glyph glyph-name="Y" unicode="Y" horiz-adv-x="735" 
d="M35 700h230l103 -158l102 158h230l-234 -361v-162l-192 -177v334z" />
    <glyph glyph-name="Z" unicode="Z" horiz-adv-x="758" 
d="M35 168l430 365h-284l-146 167h688v-167l-426 -365h426v-167h-688v167z" />
    <glyph glyph-name="bracketleft" unicode="[" horiz-adv-x="368" 
d="M328 700v-81h-65v-743h65v-86h-253v910h253z" />
    <glyph glyph-name="backslash" unicode="\" horiz-adv-x="636" 
d="M14 700h189l420 -700h-189z" />
    <glyph glyph-name="bracketright" unicode="]" horiz-adv-x="367" 
d="M292 700v-910h-253v86h65v743h-65v81h253z" />
    <glyph glyph-name="asciicircum" unicode="^" horiz-adv-x="572" 
d="M121 700h306l105 -358h-200l-58 193l-52 -193h-199z" />
    <glyph glyph-name="grave" unicode="`" horiz-adv-x="281" 
d="M262 1000l-163 -197h-98l109 197h152z" />
    <glyph glyph-name="a" unicode="a" horiz-adv-x="770" 
d="M137 366h296l-94 334h199l197 -700h-200l-56 199h-189l-56 -199h-199z" />
    <glyph glyph-name="b" unicode="b" horiz-adv-x="781" 
d="M480 167q39 0 58.5 16.5t19.5 36.5t-19.5 36.5t-58.5 16.5h-233v-106h233zM237 440h243q38 0 56 14.5t18 32.5q0 17 -18 31.5t-56 14.5h-280l-145 167h441q63 0 109.5 -18.5t78 -48.5t47 -68t15.5 -78q0 -35 -12 -69t-36 -63q24 -29 36 -64t12 -72q0 -41 -15.5 -80.5
t-47 -70t-78 -49.5t-109.5 -19h-441v273z" />
    <glyph glyph-name="c" unicode="c" horiz-adv-x="704" 
d="M535 501q-24 25 -57 38.5t-75 13.5q-43 0 -76.5 -14.5t-56.5 -41.5t-35 -64.5t-12 -82.5q0 -92 47 -147.5t133 -55.5q45 0 80 15.5t58 43.5l119 -137q-48 -43 -113 -66t-143 -23q-83 0 -151 26.5t-116.5 75.5t-75 117t-26.5 152q0 83 26.5 151t75 116.5t117 75
t151.5 26.5q81 0 148 -25t116 -72z" />
    <glyph glyph-name="d" unicode="d" horiz-adv-x="776" 
d="M55 323l183 168v-329h126q46 0 80 16t57 42t34.5 59.5t11.5 67.5q0 35 -11.5 68.5t-34.5 59.5t-57 42t-80 16h-169l-140 167h349q84 0 147.5 -30t105.5 -79.5t63 -112t21 -128.5t-21 -128.5t-63 -112t-105.5 -79.5t-147.5 -30h-349v323z" />
    <glyph glyph-name="e" unicode="e" 
d="M648 700v-167h-401v-89h401l-179 -167h-221v-110h400v-167h-593v700h593z" />
    <glyph glyph-name="f" unicode="f" 
d="M248 277v-277h-193v700h593v-167h-401v-89h401l-182 -167h-218z" />
    <glyph glyph-name="g" unicode="g" horiz-adv-x="795" 
d="M427 -20q-83 0 -154.5 26.5t-124.5 75.5t-83 117t-30 152q0 83 30 151t83 116.5t125 75t155 26.5q81 0 154.5 -25t122.5 -72l-134 -122q-24 25 -57 38.5t-75 13.5q-43 0 -81 -14.5t-67 -41.5t-46 -64.5t-17 -82.5q0 -46 17 -83.5t46 -64t67.5 -41t81.5 -14.5q11 0 26 1
t30 3t28.5 4.5t22.5 6.5v82l-146 168h339v-412h-137q-15 -5 -38 -8.5t-47.5 -6t-48.5 -4t-42 -1.5z" />
    <glyph glyph-name="h" unicode="h" horiz-adv-x="797" 
d="M55 0v304l182 168h312v228h193v-700h-192v305h-303v-305h-192z" />
    <glyph glyph-name="i" unicode="i" horiz-adv-x="302" 
d="M55 0v700h192v-700h-192z" />
    <glyph glyph-name="j" unicode="j" 
d="M172 202q22 -27 51.5 -41t60.5 -14q29 0 56 11.5t48.5 34.5t34.5 57t13 80v370h192v-383q0 -84 -29.5 -147t-78 -105.5t-110 -63.5t-126.5 -21q-69 0 -134.5 24t-114.5 72z" />
    <glyph glyph-name="k" unicode="k" horiz-adv-x="776" 
d="M55 0v700h193v-296l240 296h215l-226 -279l264 -421h-196l-179 285l-118 -146v-139h-193z" />
    <glyph glyph-name="l" unicode="l" horiz-adv-x="664" 
d="M229 700v-533h400v-167h-593v521z" />
    <glyph glyph-name="m" unicode="m" horiz-adv-x="886" 
d="M55 94v606h231l158 -288l157 288h230v-700h-192v417l-196 -354l-195 354v-146z" />
    <glyph glyph-name="n" unicode="n" horiz-adv-x="798" 
d="M248 700l302 -414v234l193 180v-700h-192v2l-303 415v-417h-193v700h193z" />
    <glyph glyph-name="o" unicode="o" horiz-adv-x="810" 
d="M35 351q0 83 26.5 151t75 116.5t116.5 75t151 26.5q84 0 152 -26.5t117 -75t75.5 -116.5t26.5 -151q0 -84 -26.5 -152t-75.5 -117t-117 -75.5t-152 -26.5q-83 0 -151 26.5t-116.5 75.5t-75 117t-26.5 152zM228 350q0 -92 44.5 -147.5t130.5 -55.5q44 0 77 14.5t56 41
t34.5 64t11.5 83.5q0 45 -11.5 82.5t-34.5 64.5t-56 41.5t-77 14.5q-86 0 -130.5 -56t-44.5 -147z" />
    <glyph glyph-name="p" unicode="p" horiz-adv-x="775" 
d="M247 199v-199h-192v198l183 168h224q39 0 62.5 23.5t23.5 62.5t-23.5 60t-62.5 21h-267l-140 167h436q56 0 102 -18t78.5 -51t50.5 -79t18 -102q0 -57 -18 -103.5t-50.5 -79t-78.5 -50.5t-102 -18h-244z" />
    <glyph glyph-name="q" unicode="q" horiz-adv-x="827" 
d="M404 720q84 0 152 -26.5t117 -75t75.5 -116.5t26.5 -151q0 -71 -19 -130.5t-55 -106.5l91 -101l-133 -120l-103 113q-70 -26 -151 -26q-83 0 -151.5 26.5t-117 75.5t-75 117t-26.5 152q0 83 26.5 151t75 116.5t116.5 75t151 26.5zM403 147q44 0 77 14.5t56 41t34.5 64
t11.5 83.5q0 45 -11.5 82.5t-34.5 64.5t-56 41.5t-77 14.5q-86 0 -130.5 -56t-44.5 -147q0 -92 44.5 -147.5t130.5 -55.5z" />
    <glyph glyph-name="r" unicode="r" horiz-adv-x="796" 
d="M55 0v230l183 168h224q45 0 67 21t22 47t-22 46.5t-67 20.5h-267l-140 167h436q63 0 110 -20.5t78.5 -53.5t47 -75t15.5 -86q0 -33 -9 -64.5t-26 -60t-43 -51t-61 -37.5l158 -252h-192l-144 231h-178v-231h-192z" />
    <glyph glyph-name="s" unicode="s" horiz-adv-x="688" 
d="M369 436q78 0 132 -18.5t87.5 -49.5t49 -70t15.5 -81q0 -43 -16.5 -85t-53.5 -76t-97 -55t-146 -21q-42 0 -81 8.5t-72 22.5t-59.5 31t-45.5 35l134 122q20 -23 52 -37.5t79 -14.5q54 0 83.5 17.5t29.5 38.5q0 23 -34 42t-107 19q-79 0 -133 18.5t-87.5 49t-48.5 70
t-15 80.5q0 43 16.5 85.5t53.5 76.5t97 55t146 21q42 0 81 -8.5t72 -22.5t59.5 -31t45.5 -35l-134 -122q-20 23 -52 37.5t-79 14.5q-54 0 -83.5 -17.5t-29.5 -38.5q0 -23 34 -42t107 -19z" />
    <glyph glyph-name="t" unicode="t" horiz-adv-x="758" 
d="M35 700h688v-167h-243v-356l-192 -177v533h-253v167z" />
    <glyph glyph-name="u" unicode="u" horiz-adv-x="798" 
d="M743 700v-383q0 -84 -29.5 -147t-78 -105.5t-110 -63.5t-126.5 -21q-64 0 -126 21t-110.5 63.5t-78 105.5t-29.5 147v383h192v-370q0 -46 13 -80t34.5 -57t49 -34.5t55.5 -11.5q29 0 56 11.5t48.5 34.5t34.5 57t13 80v191z" />
    <glyph glyph-name="v" unicode="v" horiz-adv-x="714" 
d="M35 500h200l94 -335l150 535h200l-197 -700h-306z" />
    <glyph glyph-name="w" unicode="w" horiz-adv-x="954" 
d="M35 533h173l57 -212l102 379h174v-2l102 -377l102 379h174l-190 -700h-173l-102 379l-102 -377v-2h-174z" />
    <glyph glyph-name="x" unicode="x" horiz-adv-x="774" 
d="M272 365l-116 177h231l102 158h230l-217 -335l237 -365h-231l-121 187l-122 -187h-230z" />
    <glyph glyph-name="y" unicode="y" horiz-adv-x="735" 
d="M35 700h230l103 -158l102 158h230l-234 -361v-162l-192 -177v334z" />
    <glyph glyph-name="z" unicode="z" horiz-adv-x="758" 
d="M35 168l430 365h-284l-146 167h688v-167l-426 -365h426v-167h-688v167z" />
    <glyph glyph-name="braceleft" unicode="{" horiz-adv-x="488" 
d="M23 215v60q32 0 53 19.5t33 49t17 65t5 67.5q0 71 28.5 115t74 68t102 32.5t112.5 8.5v-81q-18 0 -39.5 -7.5t-40.5 -23.5t-31.5 -41.5t-12.5 -61.5q0 -39 -12.5 -80.5t-36.5 -76.5t-58 -57.5t-76 -22.5q42 0 76 -23.5t58 -59.5t36.5 -78t12.5 -80q0 -35 12.5 -60
t31.5 -41t40.5 -23t39.5 -7v-86q-31 0 -66.5 2.5t-71 11t-67.5 23.5t-57 40t-40 61.5t-15 86.5q0 34 -5 69.5t-17 64.5t-33 47.5t-53 18.5z" />
    <glyph glyph-name="bar" unicode="|" horiz-adv-x="227" 
d="M55 -228v928h123v-928h-123z" />
    <glyph glyph-name="braceright" unicode="}" horiz-adv-x="486" 
d="M65 700q47 0 98.5 -9t95 -33.5t72 -67.5t28.5 -111q0 -34 4.5 -70t16 -66t31.5 -49t50 -19v-60q-30 0 -50 -18t-31.5 -47.5t-16 -66t-4.5 -72.5q0 -49 -15 -84t-40 -59.5t-57.5 -39.5t-68 -23.5t-71 -11.5t-66.5 -3v86q16 0 36.5 7.5t38.5 23t30.5 40t12.5 58.5
q0 39 13.5 81.5t38 78.5t58.5 59.5t74 23.5q-40 0 -74 22.5t-58.5 57.5t-38 76.5t-13.5 80.5q0 36 -12.5 61.5t-30.5 41.5t-38.5 23.5t-36.5 7.5v81h24z" />
    <glyph glyph-name="yen" unicode="&#xa5;" horiz-adv-x="756" 
d="M37 700h226l113 -172l118 172h226l-247 -377h118v-108h-118v-37h118v-103h-118v-75h-189v75h-124v103h124v37h-124v108h124z" />
    <glyph glyph-name="dieresis" unicode="&#xa8;" horiz-adv-x="580" 
d="M314 920q0 36 22 57.5t58 21.5q35 0 57 -21.5t22 -57.5t-22 -57.5t-57 -21.5q-36 0 -58 21.5t-22 57.5zM102 920q0 36 22 57.5t57 21.5q36 0 58 -21.5t22 -57.5t-22 -57.5t-58 -21.5q-35 0 -57 21.5t-22 57.5z" />
    <glyph glyph-name="acute" unicode="&#xb4;" horiz-adv-x="207" 
d="M-74 1000h152l109 -197h-98z" />
    <glyph glyph-name="Agrave" unicode="&#xc0;" horiz-adv-x="770" 
d="M137 366h296l-94 334h199l197 -700h-200l-56 199h-189l-56 -199h-199zM576 1000l-163 -197h-98l109 197h152z" />
    <glyph glyph-name="Aacute" unicode="&#xc1;" horiz-adv-x="770" 
d="M137 366h296l-94 334h199l197 -700h-200l-56 199h-189l-56 -199h-199zM152 1000h152l109 -197h-98z" />
    <glyph glyph-name="Acircumflex" unicode="&#xc2;" horiz-adv-x="770" 
d="M137 366h296l-94 334h199l197 -700h-200l-56 199h-189l-56 -199h-199zM173 803l109 197h152l109 -197h-98l-87 106l-88 -106h-97z" />
    <glyph glyph-name="Atilde" unicode="&#xc3;" horiz-adv-x="770" 
d="M137 366h296l-94 334h199l197 -700h-200l-56 199h-189l-56 -199h-199zM566 996q-4 -77 -37 -113.5t-87 -36.5q-25 0 -44.5 8t-36.5 19q-12 8 -28.5 16.5t-32.5 8.5q-18 0 -25.5 -14t-9.5 -41h-98q0 69 36.5 109t89.5 40q24 0 43 -8t44 -22q9 -5 23 -12.5t27 -7.5
q20 0 28.5 14.5t8.5 39.5h99z" />
    <glyph glyph-name="Adieresis" unicode="&#xc4;" horiz-adv-x="770" 
d="M137 366h296l-94 334h199l197 -700h-200l-56 199h-189l-56 -199h-199zM383 920q0 36 22 57.5t58 21.5q35 0 57 -21.5t22 -57.5t-22 -57.5t-57 -21.5q-36 0 -58 21.5t-22 57.5zM171 920q0 36 22 57.5t57 21.5q36 0 58 -21.5t22 -57.5t-22 -57.5t-58 -21.5q-35 0 -57 21.5
t-22 57.5z" />
    <glyph glyph-name="Egrave" unicode="&#xc8;" 
d="M648 700v-167h-401v-89h401l-179 -167h-221v-110h400v-167h-593v700h593zM568 1000l-163 -197h-98l109 197h152z" />
    <glyph glyph-name="Eacute" unicode="&#xc9;" 
d="M648 700v-167h-401v-89h401l-179 -167h-221v-110h400v-167h-593v700h593zM144 1000h152l109 -197h-98z" />
    <glyph glyph-name="Ecircumflex" unicode="&#xca;" 
d="M648 700v-167h-401v-89h401l-179 -167h-221v-110h400v-167h-593v700h593zM165 803l109 197h152l109 -197h-98l-87 106l-88 -106h-97z" />
    <glyph glyph-name="Edieresis" unicode="&#xcb;" 
d="M648 700v-167h-401v-89h401l-179 -167h-221v-110h400v-167h-593v700h593zM375 920q0 36 22 57.5t58 21.5q35 0 57 -21.5t22 -57.5t-22 -57.5t-57 -21.5q-36 0 -58 21.5t-22 57.5zM163 920q0 36 22 57.5t57 21.5q36 0 58 -21.5t22 -57.5t-22 -57.5t-58 -21.5
q-35 0 -57 21.5t-22 57.5z" />
    <glyph glyph-name="Igrave" unicode="&#xcc;" horiz-adv-x="302" 
d="M55 0v700h192v-700h-192zM366 1000l-163 -197h-98l109 197h152z" />
    <glyph glyph-name="Iacute" unicode="&#xcd;" horiz-adv-x="302" 
d="M55 0v700h192v-700h-192zM-58 1000h152l109 -197h-98z" />
    <glyph glyph-name="Icircumflex" unicode="&#xce;" horiz-adv-x="302" 
d="M55 0v700h192v-700h-192zM-37 803l109 197h152l109 -197h-98l-87 106l-88 -106h-97z" />
    <glyph glyph-name="Idieresis" unicode="&#xcf;" horiz-adv-x="302" 
d="M55 0v700h192v-700h-192zM173 920q0 36 22 57.5t58 21.5q35 0 57 -21.5t22 -57.5t-22 -57.5t-57 -21.5q-36 0 -58 21.5t-22 57.5zM-39 920q0 36 22 57.5t57 21.5q36 0 58 -21.5t22 -57.5t-22 -57.5t-58 -21.5q-35 0 -57 21.5t-22 57.5z" />
    <glyph glyph-name="Ntilde" unicode="&#xd1;" horiz-adv-x="798" 
d="M248 700l302 -414v234l193 180v-700h-192v2l-303 415v-417h-193v700h193zM622 996q-4 -77 -37 -113.5t-87 -36.5q-25 0 -44.5 8t-36.5 19q-12 8 -28.5 16.5t-32.5 8.5q-18 0 -25.5 -14t-9.5 -41h-98q0 69 36.5 109t89.5 40q24 0 43 -8t44 -22q9 -5 23 -12.5t27 -7.5
q20 0 28.5 14.5t8.5 39.5h99z" />
    <glyph glyph-name="Ograve" unicode="&#xd2;" horiz-adv-x="810" 
d="M35 351q0 83 26.5 151t75 116.5t116.5 75t151 26.5q84 0 152 -26.5t117 -75t75.5 -116.5t26.5 -151q0 -84 -26.5 -152t-75.5 -117t-117 -75.5t-152 -26.5q-83 0 -151 26.5t-116.5 75.5t-75 117t-26.5 152zM228 350q0 -92 44.5 -147.5t130.5 -55.5q44 0 77 14.5t56 41
t34.5 64t11.5 83.5q0 45 -11.5 82.5t-34.5 64.5t-56 41.5t-77 14.5q-86 0 -130.5 -56t-44.5 -147zM623 1000l-163 -197h-98l109 197h152z" />
    <glyph glyph-name="Oacute" unicode="&#xd3;" horiz-adv-x="810" 
d="M35 351q0 83 26.5 151t75 116.5t116.5 75t151 26.5q84 0 152 -26.5t117 -75t75.5 -116.5t26.5 -151q0 -84 -26.5 -152t-75.5 -117t-117 -75.5t-152 -26.5q-83 0 -151 26.5t-116.5 75.5t-75 117t-26.5 152zM228 350q0 -92 44.5 -147.5t130.5 -55.5q44 0 77 14.5t56 41
t34.5 64t11.5 83.5q0 45 -11.5 82.5t-34.5 64.5t-56 41.5t-77 14.5q-86 0 -130.5 -56t-44.5 -147zM199 1000h152l109 -197h-98z" />
    <glyph glyph-name="Ocircumflex" unicode="&#xd4;" horiz-adv-x="810" 
d="M35 351q0 83 26.5 151t75 116.5t116.5 75t151 26.5q84 0 152 -26.5t117 -75t75.5 -116.5t26.5 -151q0 -84 -26.5 -152t-75.5 -117t-117 -75.5t-152 -26.5q-83 0 -151 26.5t-116.5 75.5t-75 117t-26.5 152zM228 350q0 -92 44.5 -147.5t130.5 -55.5q44 0 77 14.5t56 41
t34.5 64t11.5 83.5q0 45 -11.5 82.5t-34.5 64.5t-56 41.5t-77 14.5q-86 0 -130.5 -56t-44.5 -147zM220 803l109 197h152l109 -197h-98l-87 106l-88 -106h-97z" />
    <glyph glyph-name="Otilde" unicode="&#xd5;" horiz-adv-x="810" 
d="M35 351q0 83 26.5 151t75 116.5t116.5 75t151 26.5q84 0 152 -26.5t117 -75t75.5 -116.5t26.5 -151q0 -84 -26.5 -152t-75.5 -117t-117 -75.5t-152 -26.5q-83 0 -151 26.5t-116.5 75.5t-75 117t-26.5 152zM228 350q0 -92 44.5 -147.5t130.5 -55.5q44 0 77 14.5t56 41
t34.5 64t11.5 83.5q0 45 -11.5 82.5t-34.5 64.5t-56 41.5t-77 14.5q-86 0 -130.5 -56t-44.5 -147zM613 996q-4 -77 -37 -113.5t-87 -36.5q-25 0 -44.5 8t-36.5 19q-12 8 -28.5 16.5t-32.5 8.5q-18 0 -25.5 -14t-9.5 -41h-98q0 69 36.5 109t89.5 40q24 0 43 -8t44 -22
q9 -5 23 -12.5t27 -7.5q20 0 28.5 14.5t8.5 39.5h99z" />
    <glyph glyph-name="Odieresis" unicode="&#xd6;" horiz-adv-x="810" 
d="M35 351q0 83 26.5 151t75 116.5t116.5 75t151 26.5q84 0 152 -26.5t117 -75t75.5 -116.5t26.5 -151q0 -84 -26.5 -152t-75.5 -117t-117 -75.5t-152 -26.5q-83 0 -151 26.5t-116.5 75.5t-75 117t-26.5 152zM228 350q0 -92 44.5 -147.5t130.5 -55.5q44 0 77 14.5t56 41
t34.5 64t11.5 83.5q0 45 -11.5 82.5t-34.5 64.5t-56 41.5t-77 14.5q-86 0 -130.5 -56t-44.5 -147zM430 920q0 36 22 57.5t58 21.5q35 0 57 -21.5t22 -57.5t-22 -57.5t-57 -21.5q-36 0 -58 21.5t-22 57.5zM218 920q0 36 22 57.5t57 21.5q36 0 58 -21.5t22 -57.5t-22 -57.5
t-58 -21.5q-35 0 -57 21.5t-22 57.5z" />
    <glyph glyph-name="Ugrave" unicode="&#xd9;" horiz-adv-x="798" 
d="M743 700v-383q0 -84 -29.5 -147t-78 -105.5t-110 -63.5t-126.5 -21q-64 0 -126 21t-110.5 63.5t-78 105.5t-29.5 147v383h192v-370q0 -46 13 -80t34.5 -57t49 -34.5t55.5 -11.5q29 0 56 11.5t48.5 34.5t34.5 57t13 80v191zM625 1000l-163 -197h-98l109 197h152z" />
    <glyph glyph-name="Uacute" unicode="&#xda;" horiz-adv-x="798" 
d="M743 700v-383q0 -84 -29.5 -147t-78 -105.5t-110 -63.5t-126.5 -21q-64 0 -126 21t-110.5 63.5t-78 105.5t-29.5 147v383h192v-370q0 -46 13 -80t34.5 -57t49 -34.5t55.5 -11.5q29 0 56 11.5t48.5 34.5t34.5 57t13 80v191zM201 1000h152l109 -197h-98z" />
    <glyph glyph-name="Ucircumflex" unicode="&#xdb;" horiz-adv-x="798" 
d="M743 700v-383q0 -84 -29.5 -147t-78 -105.5t-110 -63.5t-126.5 -21q-64 0 -126 21t-110.5 63.5t-78 105.5t-29.5 147v383h192v-370q0 -46 13 -80t34.5 -57t49 -34.5t55.5 -11.5q29 0 56 11.5t48.5 34.5t34.5 57t13 80v191zM222 803l109 197h152l109 -197h-98l-87 106
l-88 -106h-97z" />
    <glyph glyph-name="Udieresis" unicode="&#xdc;" horiz-adv-x="798" 
d="M743 700v-383q0 -84 -29.5 -147t-78 -105.5t-110 -63.5t-126.5 -21q-64 0 -126 21t-110.5 63.5t-78 105.5t-29.5 147v383h192v-370q0 -46 13 -80t34.5 -57t49 -34.5t55.5 -11.5q29 0 56 11.5t48.5 34.5t34.5 57t13 80v191zM432 920q0 36 22 57.5t58 21.5q35 0 57 -21.5
t22 -57.5t-22 -57.5t-57 -21.5q-36 0 -58 21.5t-22 57.5zM220 920q0 36 22 57.5t57 21.5q36 0 58 -21.5t22 -57.5t-22 -57.5t-58 -21.5q-35 0 -57 21.5t-22 57.5z" />
    <glyph glyph-name="Yacute" unicode="&#xdd;" horiz-adv-x="735" 
d="M35 700h230l103 -158l102 158h230l-234 -361v-162l-192 -177v334zM163 1000h152l109 -197h-98z" />
    <glyph glyph-name="agrave" unicode="&#xe0;" horiz-adv-x="770" 
d="M137 366h296l-94 334h199l197 -700h-200l-56 199h-189l-56 -199h-199zM583 1000l-163 -197h-98l109 197h152z" />
    <glyph glyph-name="aacute" unicode="&#xe1;" horiz-adv-x="770" 
d="M137 366h296l-94 334h199l197 -700h-200l-56 199h-189l-56 -199h-199zM159 1000h152l109 -197h-98z" />
    <glyph glyph-name="acircumflex" unicode="&#xe2;" horiz-adv-x="770" 
d="M137 366h296l-94 334h199l197 -700h-200l-56 199h-189l-56 -199h-199zM180 803l109 197h152l109 -197h-98l-87 106l-88 -106h-97z" />
    <glyph glyph-name="atilde" unicode="&#xe3;" horiz-adv-x="770" 
d="M137 366h296l-94 334h199l197 -700h-200l-56 199h-189l-56 -199h-199zM573 996q-4 -77 -37 -113.5t-87 -36.5q-25 0 -44.5 8t-36.5 19q-12 8 -28.5 16.5t-32.5 8.5q-18 0 -25.5 -14t-9.5 -41h-98q0 69 36.5 109t89.5 40q24 0 43 -8t44 -22q9 -5 23 -12.5t27 -7.5
q20 0 28.5 14.5t8.5 39.5h99z" />
    <glyph glyph-name="adieresis" unicode="&#xe4;" horiz-adv-x="770" 
d="M137 366h296l-94 334h199l197 -700h-200l-56 199h-189l-56 -199h-199zM390 920q0 36 22 57.5t58 21.5q35 0 57 -21.5t22 -57.5t-22 -57.5t-57 -21.5q-36 0 -58 21.5t-22 57.5zM178 920q0 36 22 57.5t57 21.5q36 0 58 -21.5t22 -57.5t-22 -57.5t-58 -21.5q-35 0 -57 21.5
t-22 57.5z" />
    <glyph glyph-name="egrave" unicode="&#xe8;" 
d="M648 700v-167h-401v-89h401l-179 -167h-221v-110h400v-167h-593v700h593zM573 1000l-163 -197h-98l109 197h152z" />
    <glyph glyph-name="eacute" unicode="&#xe9;" 
d="M648 700v-167h-401v-89h401l-179 -167h-221v-110h400v-167h-593v700h593zM149 1000h152l109 -197h-98z" />
    <glyph glyph-name="ecircumflex" unicode="&#xea;" 
d="M648 700v-167h-401v-89h401l-179 -167h-221v-110h400v-167h-593v700h593zM170 803l109 197h152l109 -197h-98l-87 106l-88 -106h-97z" />
    <glyph glyph-name="edieresis" unicode="&#xeb;" 
d="M648 700v-167h-401v-89h401l-179 -167h-221v-110h400v-167h-593v700h593zM380 920q0 36 22 57.5t58 21.5q35 0 57 -21.5t22 -57.5t-22 -57.5t-57 -21.5q-36 0 -58 21.5t-22 57.5zM168 920q0 36 22 57.5t57 21.5q36 0 58 -21.5t22 -57.5t-22 -57.5t-58 -21.5
q-35 0 -57 21.5t-22 57.5z" />
    <glyph glyph-name="igrave" unicode="&#xec;" horiz-adv-x="302" 
d="M55 0v700h192v-700h-192zM369 1000l-163 -197h-98l109 197h152z" />
    <glyph glyph-name="iacute" unicode="&#xed;" horiz-adv-x="302" 
d="M55 0v700h192v-700h-192zM-55 1000h152l109 -197h-98z" />
    <glyph glyph-name="icircumflex" unicode="&#xee;" horiz-adv-x="302" 
d="M55 0v700h192v-700h-192zM-34 803l109 197h152l109 -197h-98l-87 106l-88 -106h-97z" />
    <glyph glyph-name="idieresis" unicode="&#xef;" horiz-adv-x="302" 
d="M55 0v700h192v-700h-192zM176 920q0 36 22 57.5t58 21.5q35 0 57 -21.5t22 -57.5t-22 -57.5t-57 -21.5q-36 0 -58 21.5t-22 57.5zM-36 920q0 36 22 57.5t57 21.5q36 0 58 -21.5t22 -57.5t-22 -57.5t-58 -21.5q-35 0 -57 21.5t-22 57.5z" />
    <glyph glyph-name="ntilde" unicode="&#xf1;" horiz-adv-x="798" 
d="M248 700l302 -414v234l193 180v-700h-192v2l-303 415v-417h-193v700h193zM607 996q-4 -77 -37 -113.5t-87 -36.5q-25 0 -44.5 8t-36.5 19q-12 8 -28.5 16.5t-32.5 8.5q-18 0 -25.5 -14t-9.5 -41h-98q0 69 36.5 109t89.5 40q24 0 43 -8t44 -22q9 -5 23 -12.5t27 -7.5
q20 0 28.5 14.5t8.5 39.5h99z" />
    <glyph glyph-name="ograve" unicode="&#xf2;" horiz-adv-x="810" 
d="M35 351q0 83 26.5 151t75 116.5t116.5 75t151 26.5q84 0 152 -26.5t117 -75t75.5 -116.5t26.5 -151q0 -84 -26.5 -152t-75.5 -117t-117 -75.5t-152 -26.5q-83 0 -151 26.5t-116.5 75.5t-75 117t-26.5 152zM228 350q0 -92 44.5 -147.5t130.5 -55.5q44 0 77 14.5t56 41
t34.5 64t11.5 83.5q0 45 -11.5 82.5t-34.5 64.5t-56 41.5t-77 14.5q-86 0 -130.5 -56t-44.5 -147zM623 1000l-163 -197h-98l109 197h152z" />
    <glyph glyph-name="oacute" unicode="&#xf3;" horiz-adv-x="810" 
d="M35 351q0 83 26.5 151t75 116.5t116.5 75t151 26.5q84 0 152 -26.5t117 -75t75.5 -116.5t26.5 -151q0 -84 -26.5 -152t-75.5 -117t-117 -75.5t-152 -26.5q-83 0 -151 26.5t-116.5 75.5t-75 117t-26.5 152zM228 350q0 -92 44.5 -147.5t130.5 -55.5q44 0 77 14.5t56 41
t34.5 64t11.5 83.5q0 45 -11.5 82.5t-34.5 64.5t-56 41.5t-77 14.5q-86 0 -130.5 -56t-44.5 -147zM199 1000h152l109 -197h-98z" />
    <glyph glyph-name="ocircumflex" unicode="&#xf4;" horiz-adv-x="810" 
d="M35 351q0 83 26.5 151t75 116.5t116.5 75t151 26.5q84 0 152 -26.5t117 -75t75.5 -116.5t26.5 -151q0 -84 -26.5 -152t-75.5 -117t-117 -75.5t-152 -26.5q-83 0 -151 26.5t-116.5 75.5t-75 117t-26.5 152zM228 350q0 -92 44.5 -147.5t130.5 -55.5q44 0 77 14.5t56 41
t34.5 64t11.5 83.5q0 45 -11.5 82.5t-34.5 64.5t-56 41.5t-77 14.5q-86 0 -130.5 -56t-44.5 -147zM220 803l109 197h152l109 -197h-98l-87 106l-88 -106h-97z" />
    <glyph glyph-name="otilde" unicode="&#xf5;" horiz-adv-x="810" 
d="M35 351q0 83 26.5 151t75 116.5t116.5 75t151 26.5q84 0 152 -26.5t117 -75t75.5 -116.5t26.5 -151q0 -84 -26.5 -152t-75.5 -117t-117 -75.5t-152 -26.5q-83 0 -151 26.5t-116.5 75.5t-75 117t-26.5 152zM228 350q0 -92 44.5 -147.5t130.5 -55.5q44 0 77 14.5t56 41
t34.5 64t11.5 83.5q0 45 -11.5 82.5t-34.5 64.5t-56 41.5t-77 14.5q-86 0 -130.5 -56t-44.5 -147zM613 996q-4 -77 -37 -113.5t-87 -36.5q-25 0 -44.5 8t-36.5 19q-12 8 -28.5 16.5t-32.5 8.5q-18 0 -25.5 -14t-9.5 -41h-98q0 69 36.5 109t89.5 40q24 0 43 -8t44 -22
q9 -5 23 -12.5t27 -7.5q20 0 28.5 14.5t8.5 39.5h99z" />
    <glyph glyph-name="odieresis" unicode="&#xf6;" horiz-adv-x="810" 
d="M35 351q0 83 26.5 151t75 116.5t116.5 75t151 26.5q84 0 152 -26.5t117 -75t75.5 -116.5t26.5 -151q0 -84 -26.5 -152t-75.5 -117t-117 -75.5t-152 -26.5q-83 0 -151 26.5t-116.5 75.5t-75 117t-26.5 152zM228 350q0 -92 44.5 -147.5t130.5 -55.5q44 0 77 14.5t56 41
t34.5 64t11.5 83.5q0 45 -11.5 82.5t-34.5 64.5t-56 41.5t-77 14.5q-86 0 -130.5 -56t-44.5 -147zM430 920q0 36 22 57.5t58 21.5q35 0 57 -21.5t22 -57.5t-22 -57.5t-57 -21.5q-36 0 -58 21.5t-22 57.5zM218 920q0 36 22 57.5t57 21.5q36 0 58 -21.5t22 -57.5t-22 -57.5
t-58 -21.5q-35 0 -57 21.5t-22 57.5z" />
    <glyph glyph-name="ugrave" unicode="&#xf9;" horiz-adv-x="798" 
d="M743 700v-383q0 -84 -29.5 -147t-78 -105.5t-110 -63.5t-126.5 -21q-64 0 -126 21t-110.5 63.5t-78 105.5t-29.5 147v383h192v-370q0 -46 13 -80t34.5 -57t49 -34.5t55.5 -11.5q29 0 56 11.5t48.5 34.5t34.5 57t13 80v191zM620 1000l-163 -197h-98l109 197h152z" />
    <glyph glyph-name="uacute" unicode="&#xfa;" horiz-adv-x="798" 
d="M743 700v-383q0 -84 -29.5 -147t-78 -105.5t-110 -63.5t-126.5 -21q-64 0 -126 21t-110.5 63.5t-78 105.5t-29.5 147v383h192v-370q0 -46 13 -80t34.5 -57t49 -34.5t55.5 -11.5q29 0 56 11.5t48.5 34.5t34.5 57t13 80v191zM196 1000h152l109 -197h-98z" />
    <glyph glyph-name="ucircumflex" unicode="&#xfb;" horiz-adv-x="798" 
d="M743 700v-383q0 -84 -29.5 -147t-78 -105.5t-110 -63.5t-126.5 -21q-64 0 -126 21t-110.5 63.5t-78 105.5t-29.5 147v383h192v-370q0 -46 13 -80t34.5 -57t49 -34.5t55.5 -11.5q29 0 56 11.5t48.5 34.5t34.5 57t13 80v191zM217 803l109 197h152l109 -197h-98l-87 106
l-88 -106h-97z" />
    <glyph glyph-name="udieresis" unicode="&#xfc;" horiz-adv-x="798" 
d="M743 700v-383q0 -84 -29.5 -147t-78 -105.5t-110 -63.5t-126.5 -21q-64 0 -126 21t-110.5 63.5t-78 105.5t-29.5 147v383h192v-370q0 -46 13 -80t34.5 -57t49 -34.5t55.5 -11.5q29 0 56 11.5t48.5 34.5t34.5 57t13 80v191zM427 920q0 36 22 57.5t58 21.5q35 0 57 -21.5
t22 -57.5t-22 -57.5t-57 -21.5q-36 0 -58 21.5t-22 57.5zM215 920q0 36 22 57.5t57 21.5q36 0 58 -21.5t22 -57.5t-22 -57.5t-58 -21.5q-35 0 -57 21.5t-22 57.5z" />
    <glyph glyph-name="yacute" unicode="&#xfd;" horiz-adv-x="735" 
d="M35 700h230l103 -158l102 158h230l-234 -361v-162l-192 -177v334zM163 1000h152l109 -197h-98z" />
    <glyph glyph-name="ydieresis" unicode="&#xff;" horiz-adv-x="735" 
d="M35 700h230l103 -158l102 158h230l-234 -361v-162l-192 -177v334zM394 920q0 36 22 57.5t58 21.5q35 0 57 -21.5t22 -57.5t-22 -57.5t-57 -21.5q-36 0 -58 21.5t-22 57.5zM182 920q0 36 22 57.5t57 21.5q36 0 58 -21.5t22 -57.5t-22 -57.5t-58 -21.5q-35 0 -57 21.5
t-22 57.5z" />
    <glyph glyph-name="Scaron" unicode="&#x160;" horiz-adv-x="688" 
d="M369 436q78 0 132 -18.5t87.5 -49.5t49 -70t15.5 -81q0 -43 -16.5 -85t-53.5 -76t-97 -55t-146 -21q-42 0 -81 8.5t-72 22.5t-59.5 31t-45.5 35l134 122q20 -23 52 -37.5t79 -14.5q54 0 83.5 17.5t29.5 38.5q0 23 -34 42t-107 19q-79 0 -133 18.5t-87.5 49t-48.5 70
t-15 80.5q0 43 16.5 85.5t53.5 76.5t97 55t146 21q42 0 81 -8.5t72 -22.5t59.5 -31t45.5 -35l-134 -122q-20 23 -52 37.5t-79 14.5q-54 0 -83.5 -17.5t-29.5 -38.5q0 -23 34 -42t107 -19zM142 972h97l88 -106l87 106h98l-109 -197h-152z" />
    <glyph glyph-name="scaron" unicode="&#x161;" horiz-adv-x="688" 
d="M369 436q78 0 132 -18.5t87.5 -49.5t49 -70t15.5 -81q0 -43 -16.5 -85t-53.5 -76t-97 -55t-146 -21q-42 0 -81 8.5t-72 22.5t-59.5 31t-45.5 35l134 122q20 -23 52 -37.5t79 -14.5q54 0 83.5 17.5t29.5 38.5q0 23 -34 42t-107 19q-79 0 -133 18.5t-87.5 49t-48.5 70
t-15 80.5q0 43 16.5 85.5t53.5 76.5t97 55t146 21q42 0 81 -8.5t72 -22.5t59.5 -31t45.5 -35l-134 -122q-20 23 -52 37.5t-79 14.5q-54 0 -83.5 -17.5t-29.5 -38.5q0 -23 34 -42t107 -19zM140 972h97l88 -106l87 106h98l-109 -197h-152z" />
    <glyph glyph-name="Ydieresis" unicode="&#x178;" horiz-adv-x="735" 
d="M35 700h230l103 -158l102 158h230l-234 -361v-162l-192 -177v334zM394 920q0 36 22 57.5t58 21.5q35 0 57 -21.5t22 -57.5t-22 -57.5t-57 -21.5q-36 0 -58 21.5t-22 57.5zM182 920q0 36 22 57.5t57 21.5q36 0 58 -21.5t22 -57.5t-22 -57.5t-58 -21.5q-35 0 -57 21.5
t-22 57.5z" />
    <glyph glyph-name="Zcaron" unicode="&#x17d;" horiz-adv-x="758" 
d="M35 168l430 365h-284l-146 167h688v-167l-426 -365h426v-167h-688v167zM183 972h97l88 -106l87 106h98l-109 -197h-152z" />
    <glyph glyph-name="zcaron" unicode="&#x17e;" horiz-adv-x="758" 
d="M35 168l430 365h-284l-146 167h688v-167l-426 -365h426v-167h-688v167zM183 972h97l88 -106l87 106h98l-109 -197h-152z" />
    <glyph glyph-name="circumflex" unicode="&#x2c6;" horiz-adv-x="428" 
d="M40 803l109 197h152l109 -197h-98l-87 106l-88 -106h-97z" />
    <glyph glyph-name="caron" unicode="&#x2c7;" horiz-adv-x="418" 
d="M40 1000h97l88 -106l87 106h98l-109 -197h-152z" />
    <glyph glyph-name="tilde" unicode="&#x2dc;" horiz-adv-x="677" 
d="M568 970q-4 -77 -37 -113.5t-87 -36.5q-25 0 -44.5 8t-36.5 19q-12 8 -28.5 16.5t-32.5 8.5q-18 0 -25.5 -14t-9.5 -41h-98q0 69 36.5 109t89.5 40q24 0 43 -8t44 -22q9 -5 23 -12.5t27 -7.5q20 0 28.5 14.5t8.5 39.5h99z" />
    <glyph glyph-name="quoteleft" unicode="&#x2018;" horiz-adv-x="175" 
 />
    <glyph glyph-name="Euro" unicode="&#x20ac;" horiz-adv-x="572" 
d="M0 246l23 63h27q-1 10 -1.5 19.5t-0.5 19.5q0 11 0.5 22t1.5 22h-50l23 63h37q27 120 114.5 188t231.5 68q69 0 124 -15t112 -43l-112 -102q-47 26 -102 26q-61 0 -108 -32.5t-62 -89.5h304l-22 -63h-296q-1 -11 -1.5 -22.5t-0.5 -22.5q0 -10 0.5 -19.5t0.5 -18.5h266
l-22 -63h-231q13 -57 59 -91.5t112 -34.5q58 0 109 26t87 66h19v-167q-34 -16 -63.5 -27.5t-57.5 -19t-56.5 -10.5t-61.5 -3q-144 0 -231.5 68.5t-113.5 192.5h-58z" />
    </font>
</defs>
</svg>
